{"glyphs":{"0":{"ha":833,"x_min":96,"x_max":739,"o":"m 739 376 q 716 208 739 281 q 653 86 694 135 q 552 11 612 37 q 418 -14 493 -14 q 284 11 344 -14 q 183 86 224 36 q 119 208 141 135 q 96 376 96 281 l 96 611 q 118 780 96 707 q 182 902 140 852 q 283 976 224 951 q 416 1002 342 1002 q 551 976 492 1002 q 652 902 611 951 q 716 780 694 852 q 739 611 739 707 l 739 376 m 273 446 l 562 663 q 548 756 559 717 q 515 819 536 795 q 473 849 498 840 q 416 859 448 859 q 356 847 382 859 q 312 810 330 835 q 282 741 292 784 q 273 641 273 699 l 273 519 q 273 478 273 490 q 273 446 273 466 m 562 348 l 562 468 q 562 502 562 488 q 562 536 562 517 l 273 320 q 285 239 276 274 q 311 180 294 204 q 356 141 329 154 q 418 127 382 127 q 478 139 452 127 q 522 176 505 151 q 552 247 543 203 q 562 348 562 290 "},"1":{"ha":833,"x_min":122,"x_max":551,"o":"m 551 0 l 374 0 l 374 772 l 122 681 l 122 835 l 541 987 l 551 987 l 551 0 "},"2":{"ha":833,"x_min":50,"x_max":738,"o":"m 738 0 l 70 0 l 70 121 l 390 467 q 455 544 429 509 q 498 606 481 578 q 521 659 514 634 q 528 707 528 684 q 518 769 528 742 q 490 815 509 795 q 446 845 471 834 q 389 855 420 855 q 318 844 348 855 q 267 811 288 832 q 236 756 247 789 q 226 682 226 724 l 50 682 q 74 805 50 747 q 144 907 98 863 q 252 976 188 951 q 393 1001 315 1001 q 525 980 467 1001 q 622 922 583 959 q 681 831 661 884 q 701 715 701 779 q 686 623 701 667 q 644 536 671 579 q 577 449 616 493 q 494 357 539 404 l 291 141 l 738 141 l 738 0 "},"3":{"ha":833,"x_min":65,"x_max":732,"o":"m 281 572 l 381 572 q 454 583 423 572 q 505 616 485 595 q 532 661 523 634 q 542 719 542 688 q 533 777 542 751 q 505 821 524 803 q 460 849 488 840 q 397 859 433 859 q 339 850 366 859 q 294 825 313 841 q 262 784 273 808 q 251 730 251 760 l 76 730 q 100 840 76 790 q 167 926 124 889 q 268 981 210 961 q 393 1001 326 1001 q 525 983 465 1001 q 627 930 585 965 q 693 841 670 894 q 717 720 717 789 q 708 658 717 689 q 680 600 699 627 q 634 547 662 571 q 570 507 607 524 q 644 468 613 492 q 694 415 675 445 q 723 350 713 385 q 732 277 732 315 q 706 153 732 208 q 635 62 680 99 q 528 6 590 25 q 393 -14 465 -14 q 271 4 330 -14 q 165 57 212 22 q 92 144 119 92 q 65 267 65 197 l 240 267 q 252 211 240 236 q 284 167 263 185 q 333 138 304 148 q 397 127 362 127 q 465 138 435 127 q 516 169 495 149 q 547 215 536 187 q 557 277 557 242 q 545 348 557 319 q 510 397 532 378 q 454 426 486 416 q 381 435 421 435 l 281 435 l 281 572 "},"4":{"ha":833,"x_min":42,"x_max":762,"o":"m 642 359 l 762 359 l 762 218 l 642 218 l 642 0 l 467 0 l 467 218 l 48 218 l 42 326 l 463 987 l 642 987 l 642 359 m 218 359 l 467 359 l 467 752 l 448 718 l 218 359 "},"5":{"ha":833,"x_min":90,"x_max":743,"o":"m 117 488 l 172 987 l 711 987 l 711 836 l 317 836 l 292 608 q 354 635 315 622 q 444 648 393 648 q 570 625 515 648 q 665 559 626 602 q 723 455 703 516 q 743 316 743 393 q 724 189 743 248 q 664 84 704 129 q 563 13 624 39 q 419 -14 502 -14 q 298 5 356 -14 q 195 60 239 24 q 121 149 149 96 q 90 270 92 201 l 261 270 q 311 164 269 201 q 418 127 353 127 q 486 142 458 127 q 533 182 515 157 q 559 245 551 209 q 568 323 568 281 q 557 398 568 363 q 526 458 547 433 q 472 496 504 482 q 398 510 441 510 q 349 505 370 510 q 311 493 328 500 q 282 475 296 486 q 257 453 269 465 l 117 488 "},"6":{"ha":833,"x_min":77,"x_max":739,"o":"m 593 994 l 593 846 l 582 846 q 446 826 505 846 q 347 768 387 805 q 283 677 307 730 q 254 562 260 625 q 291 597 271 580 q 338 627 312 614 q 394 648 363 640 q 458 656 424 656 q 582 629 530 656 q 670 557 635 602 q 722 450 705 511 q 739 324 739 390 q 717 191 739 253 q 653 84 695 130 q 551 13 611 39 q 415 -14 490 -14 q 274 16 336 -14 q 168 98 211 46 q 100 221 123 150 q 77 375 77 293 l 77 445 q 108 668 77 564 q 207 847 139 772 q 360 956 269 917 q 571 994 452 994 l 593 994 m 410 515 q 357 507 382 515 q 311 483 332 498 q 277 450 292 469 q 252 409 262 431 l 252 356 q 264 257 252 300 q 298 186 277 214 q 349 143 320 157 q 412 128 378 128 q 476 143 448 128 q 525 183 505 157 q 555 243 545 208 q 566 321 566 279 q 555 397 566 361 q 525 459 545 433 q 476 500 505 485 q 410 515 448 515 "},"7":{"ha":833,"x_min":53,"x_max":741,"o":"m 741 890 l 351 0 l 167 0 l 557 843 l 53 843 l 53 987 l 741 987 l 741 890 "},"8":{"ha":833,"x_min":83,"x_max":739,"o":"m 718 726 q 704 646 718 684 q 667 578 691 609 q 628 539 650 557 q 580 508 606 522 q 632 478 608 495 q 675 439 656 460 q 722 362 705 406 q 739 269 739 319 q 714 147 739 200 q 645 59 688 94 q 541 5 600 23 q 412 -14 481 -14 q 282 5 342 -14 q 178 59 222 23 q 109 147 134 94 q 83 269 83 200 q 95 347 83 310 q 127 414 106 383 q 177 468 148 444 q 242 509 205 492 q 186 546 211 524 q 144 595 161 568 q 116 656 125 623 q 106 726 106 689 q 129 844 106 793 q 192 930 151 895 q 288 983 232 965 q 410 1001 344 1001 q 532 983 476 1001 q 630 930 589 965 q 694 844 671 895 q 718 726 718 793 m 563 280 q 552 344 563 315 q 522 393 541 373 q 473 425 501 414 q 411 435 446 435 q 348 425 376 435 q 301 393 320 414 q 270 344 281 373 q 260 280 260 315 q 271 214 260 243 q 303 165 282 185 q 350 137 322 147 q 412 127 378 127 q 473 138 446 127 q 521 168 501 149 q 552 216 541 188 q 563 280 563 244 m 543 719 q 533 776 543 750 q 507 821 524 802 q 465 848 489 838 q 410 859 440 859 q 356 849 380 859 q 315 821 332 840 q 290 777 298 803 q 281 719 281 751 q 290 661 281 687 q 316 616 299 635 q 357 587 333 597 q 412 577 382 577 q 466 587 442 577 q 507 616 490 597 q 533 661 524 635 q 543 719 543 687 "},"9":{"ha":833,"x_min":73,"x_max":726,"o":"m 231 142 q 368 159 311 142 q 464 210 425 177 q 522 292 503 245 q 548 394 542 338 l 548 397 q 515 369 533 382 q 474 345 496 355 q 422 328 451 334 q 359 322 393 322 q 235 349 288 322 q 146 420 181 375 q 91 526 109 465 q 73 654 73 586 q 95 788 73 725 q 159 899 117 852 q 261 974 201 946 q 397 1001 321 1001 q 534 971 474 1001 q 637 890 595 942 q 703 761 680 836 q 726 599 726 686 l 726 538 q 697 318 726 420 q 604 140 669 216 q 453 32 546 71 q 232 -7 361 -7 l 218 -7 l 218 142 l 231 142 m 399 459 q 450 467 426 459 q 494 490 473 475 q 527 524 513 505 q 551 567 542 544 l 551 629 q 539 728 551 686 q 506 800 527 771 q 457 844 485 829 q 396 859 429 859 q 333 842 361 859 q 287 799 305 826 q 258 734 268 770 q 248 657 248 698 q 257 582 248 618 q 285 519 266 546 q 332 475 304 492 q 399 459 361 459 "}," ":{"ha":833,"x_min":0,"x_max":0,"o":""},"A":{"ha":833,"x_min":26,"x_max":824,"o":"m 578 216 l 274 216 l 212 0 l 26 0 l 349 987 l 508 987 l 824 0 l 640 0 l 578 216 m 318 368 l 535 368 l 428 745 l 318 368 "},"B":{"ha":833,"x_min":94,"x_max":791,"o":"m 94 0 l 94 987 l 417 987 q 558 971 494 987 q 669 922 623 955 q 742 839 716 889 q 767 719 768 788 q 752 637 766 675 q 709 570 737 600 q 671 538 692 552 q 622 513 649 524 l 622 512 q 698 478 668 499 q 748 429 728 456 q 780 363 770 399 q 791 289 791 328 q 766 164 791 218 q 695 73 741 110 q 586 19 650 37 q 444 0 522 0 l 94 0 m 271 441 l 271 144 l 446 144 q 514 154 484 144 q 566 182 545 164 q 601 229 589 201 q 613 290 613 256 q 604 352 614 324 q 574 399 594 380 q 524 430 554 419 q 454 441 494 440 l 271 441 m 271 572 l 420 572 q 495 582 462 572 q 550 612 528 592 q 579 652 569 629 q 590 707 590 676 q 581 763 590 739 q 553 802 571 787 q 497 832 532 823 q 418 842 463 842 l 271 842 l 271 572 "},"C":{"ha":833,"x_min":58,"x_max":772,"o":"m 771 307 q 738 174 765 233 q 665 73 711 115 q 557 8 620 31 q 419 -14 495 -14 q 307 2 358 -14 q 214 48 255 18 q 147 116 176 77 q 98 204 117 156 q 68 308 78 252 q 58 426 58 364 l 58 560 q 67 672 58 618 q 96 773 77 726 q 150 871 117 828 q 228 945 184 915 q 315 987 267 972 q 420 1002 363 1002 q 562 979 500 1002 q 669 913 625 956 q 739 810 713 871 q 772 673 764 749 l 595 673 q 580 751 591 717 q 548 809 569 785 q 495 845 527 833 q 420 857 464 857 q 371 850 393 857 q 330 831 348 844 q 284 782 303 813 q 254 711 265 751 q 241 642 245 680 q 237 562 237 604 l 237 426 q 243 327 237 372 q 262 247 249 282 q 285 199 271 220 q 317 162 299 177 q 362 138 338 146 q 419 130 387 130 q 490 141 459 130 q 543 174 522 151 q 578 229 565 195 q 594 307 591 262 l 771 307 "},"D":{"ha":833,"x_min":89,"x_max":772,"o":"m 89 0 l 89 987 l 339 987 q 463 972 406 987 q 569 928 521 956 q 651 864 615 902 q 713 780 688 826 q 757 666 742 728 q 772 533 772 604 l 772 453 q 758 325 772 386 q 718 214 744 264 q 656 129 692 168 q 579 63 621 90 q 472 16 531 33 q 347 0 414 0 l 89 0 m 267 844 l 267 142 l 347 142 q 419 152 386 142 q 479 180 452 162 q 530 229 508 199 q 567 296 552 258 q 586 368 579 329 q 593 453 592 408 l 593 534 q 586 617 592 578 q 566 689 579 656 q 525 761 551 729 q 465 812 500 792 q 408 835 439 827 q 339 844 376 844 l 267 844 "},"E":{"ha":833,"x_min":104,"x_max":758,"o":"m 689 437 l 282 437 l 282 144 l 758 144 l 758 0 l 104 0 l 104 987 l 755 987 l 755 842 l 282 842 l 282 579 l 689 579 l 689 437 "},"F":{"ha":833,"x_min":107,"x_max":762,"o":"m 705 414 l 285 414 l 285 0 l 107 0 l 107 987 l 762 987 l 762 842 l 285 842 l 285 559 l 705 559 l 705 414 "},"G":{"ha":833,"x_min":61,"x_max":766,"o":"m 766 118 q 715 72 746 95 q 645 31 685 50 q 546 -2 600 10 q 429 -14 491 -14 q 325 0 374 -14 q 237 39 277 14 q 165 102 197 65 q 111 185 133 139 q 74 297 86 235 q 61 428 61 358 l 61 558 q 73 685 61 625 q 108 794 85 744 q 159 876 130 840 q 224 940 188 913 q 314 985 265 970 q 420 1001 363 1001 q 561 980 500 1001 q 665 920 623 959 q 733 823 708 880 q 764 695 758 766 l 592 695 q 575 762 587 732 q 546 812 564 791 q 495 845 526 834 q 423 857 465 857 q 373 848 397 857 q 331 824 350 840 q 289 775 307 805 q 259 707 271 745 q 244 638 249 675 q 239 559 239 601 l 239 428 q 246 335 239 378 q 266 257 253 292 q 287 213 275 233 q 315 177 299 193 q 368 143 338 155 q 436 130 398 131 q 482 133 459 130 q 526 143 505 136 q 563 158 547 149 q 589 179 579 168 l 589 367 l 418 367 l 418 502 l 764 502 l 766 118 "},"H":{"ha":833,"x_min":86,"x_max":740,"o":"m 740 0 l 566 0 l 566 434 l 260 434 l 260 0 l 86 0 l 86 987 l 260 987 l 260 578 l 566 578 l 566 987 l 740 987 l 740 0 "},"I":{"ha":833,"x_min":128,"x_max":705,"o":"m 128 987 l 705 987 l 705 843 l 503 843 l 503 144 l 705 144 l 705 0 l 128 0 l 128 144 l 325 144 l 325 843 l 128 843 l 128 987 "},"J":{"ha":833,"x_min":73,"x_max":739,"o":"m 560 987 l 738 987 l 739 302 q 711 175 737 233 q 641 75 686 117 q 535 9 596 33 q 405 -14 475 -14 q 271 6 331 -14 q 168 64 211 25 q 100 158 124 101 q 73 290 75 214 l 252 290 q 260 224 252 253 q 285 176 269 196 q 334 142 304 153 q 405 130 363 130 q 469 143 439 130 q 517 180 498 157 q 549 235 538 203 q 560 302 560 267 l 560 987 "},"K":{"ha":833,"x_min":94,"x_max":844,"o":"m 377 416 l 272 300 l 272 0 l 94 0 l 94 987 l 272 987 l 272 529 l 362 649 l 613 987 l 829 987 l 494 551 l 844 0 l 633 0 l 377 416 "},"L":{"ha":833,"x_min":109,"x_max":753,"o":"m 286 144 l 753 144 l 753 0 l 109 0 l 109 987 l 286 987 l 286 144 "},"M":{"ha":833,"x_min":89,"x_max":757,"o":"m 309 987 l 416 591 l 537 987 l 757 987 l 757 0 l 593 0 l 593 313 l 602 765 l 460 315 l 371 315 l 244 747 l 253 313 l 253 0 l 89 0 l 89 987 l 309 987 "},"N":{"ha":833,"x_min":86,"x_max":739,"o":"m 739 0 l 562 0 l 265 658 l 264 0 l 86 0 l 86 987 l 264 987 l 560 332 l 562 987 l 739 987 l 739 0 "},"O":{"ha":833,"x_min":58,"x_max":774,"o":"m 774 425 q 763 306 774 363 q 731 201 752 250 q 677 110 709 151 q 602 41 644 69 q 515 1 563 15 q 412 -14 468 -14 q 305 2 354 -14 q 216 46 256 18 q 147 116 178 75 q 96 208 117 157 q 68 310 77 256 q 58 425 58 365 l 58 562 q 69 682 58 624 q 100 789 79 739 q 150 875 121 836 q 219 943 180 914 q 306 986 258 970 q 412 1001 354 1001 q 519 985 469 1001 q 608 942 569 970 q 677 877 648 915 q 728 793 707 838 q 762 684 751 743 q 774 562 774 626 l 774 425 m 595 563 q 592 635 595 600 q 579 702 588 671 q 552 768 569 739 q 512 819 536 798 q 468 843 492 834 q 412 852 443 852 q 357 844 381 852 q 315 820 334 836 q 276 770 292 800 q 251 702 260 740 q 240 635 243 671 q 237 563 237 600 l 237 425 q 240 354 237 389 q 250 290 243 320 q 273 223 258 254 q 309 172 288 192 q 354 144 328 154 q 412 134 379 134 q 470 143 444 134 q 515 171 496 153 q 554 221 538 191 q 580 288 570 251 q 592 353 588 318 q 595 425 595 388 l 595 563 "},"P":{"ha":833,"x_min":107,"x_max":788,"o":"m 284 369 l 284 0 l 107 0 l 107 987 l 441 987 q 583 965 519 987 q 692 901 646 942 q 763 803 738 861 q 788 674 788 745 q 763 550 788 606 q 692 454 738 494 q 583 392 646 414 q 441 369 519 370 l 284 369 m 284 513 l 441 513 q 513 526 482 513 q 566 559 545 538 q 599 610 588 581 q 610 673 610 640 q 599 741 610 709 q 567 794 588 772 q 514 830 545 817 q 441 844 482 844 l 284 844 l 284 513 "},"Q":{"ha":833,"x_min":59,"x_max":818,"o":"m 781 404 q 770 302 780 352 q 742 208 761 252 q 704 138 726 171 q 653 77 682 104 l 818 -69 l 703 -173 l 513 -1 q 466 -10 490 -7 q 416 -14 441 -14 q 305 3 355 -14 q 214 50 255 20 q 143 123 174 81 q 94 214 113 165 q 68 305 77 257 q 59 404 59 353 l 59 557 q 67 665 59 612 q 93 764 76 718 q 143 862 112 818 q 217 939 174 907 q 306 985 256 968 q 415 1001 356 1001 q 526 985 475 1001 q 617 939 576 968 q 696 858 663 905 q 749 753 730 810 q 773 659 765 709 q 781 557 781 610 l 781 404 m 602 558 q 598 635 602 597 q 585 705 594 672 q 560 766 576 738 q 524 814 544 794 q 476 842 503 832 q 415 852 449 852 q 357 843 382 852 q 313 815 332 833 q 271 757 287 792 q 248 680 256 722 q 240 621 243 651 q 238 558 238 590 l 238 404 q 241 347 238 376 q 250 291 243 318 q 274 223 258 254 q 314 170 290 192 q 358 143 333 153 q 416 134 383 134 q 474 143 448 134 q 521 170 500 153 q 561 222 545 191 q 587 287 578 252 q 598 345 595 315 q 602 404 602 374 l 602 558 "},"R":{"ha":833,"x_min":96,"x_max":805,"o":"m 429 376 l 273 376 l 273 0 l 96 0 l 96 987 l 418 987 q 563 968 498 987 q 675 911 628 949 q 748 819 722 875 q 773 690 773 764 q 760 596 773 638 q 724 522 747 554 q 667 463 700 488 q 593 419 634 437 l 805 9 l 805 0 l 616 0 l 429 376 m 273 520 l 420 520 q 497 533 463 520 q 555 569 532 545 q 585 617 574 589 q 595 680 595 645 q 583 752 595 721 q 546 804 570 784 q 491 833 523 823 q 418 844 459 844 l 273 844 l 273 520 "},"S":{"ha":833,"x_min":64,"x_max":785,"o":"m 608 256 q 597 311 608 286 q 562 357 585 336 q 501 393 537 376 q 415 422 465 409 q 279 474 339 444 q 178 541 218 504 q 116 625 138 578 q 94 728 94 671 q 121 841 94 790 q 195 927 148 892 q 303 982 241 963 q 437 1001 366 1001 q 575 979 511 1001 q 684 917 638 957 q 756 821 730 877 q 783 699 783 766 l 609 699 q 595 764 607 734 q 562 814 583 793 q 508 847 540 835 q 434 859 476 859 q 366 849 397 859 q 314 823 336 840 q 281 781 292 805 q 269 728 269 757 q 284 672 269 696 q 328 631 300 648 q 393 597 355 612 q 475 570 431 583 q 575 534 527 555 q 663 484 623 513 q 751 387 718 443 q 785 257 785 331 q 758 142 785 192 q 684 57 731 92 q 575 5 638 22 q 441 -13 513 -13 q 296 9 368 -13 q 172 75 225 32 q 94 172 123 116 q 64 302 65 228 l 239 302 q 257 224 241 257 q 298 170 272 192 q 361 139 325 149 q 441 129 397 129 q 509 138 479 129 q 562 163 540 146 q 596 203 584 179 q 608 256 608 227 "},"T":{"ha":833,"x_min":25,"x_max":808,"o":"m 808 842 l 503 842 l 503 0 l 327 0 l 327 842 l 25 842 l 25 987 l 808 987 l 808 842 "},"U":{"ha":833,"x_min":87,"x_max":745,"o":"m 745 987 l 745 330 q 722 186 745 250 q 656 79 699 123 q 552 10 614 34 q 413 -14 491 -14 q 279 10 339 -14 q 177 78 220 34 q 111 186 134 122 q 87 330 87 250 l 88 987 l 264 987 l 265 330 q 276 243 266 281 q 305 180 286 205 q 351 143 323 155 q 413 130 378 130 q 479 143 450 130 q 528 182 509 157 q 558 245 548 208 q 569 330 568 283 l 570 987 l 745 987 "},"V":{"ha":833,"x_min":26,"x_max":806,"o":"m 328 0 l 26 987 l 221 987 l 399 323 l 415 260 l 433 324 l 612 987 l 806 987 l 504 0 l 328 0 "},"W":{"ha":833,"x_min":24,"x_max":815,"o":"m 157 0 l 24 987 l 187 987 l 254 408 l 258 370 l 265 410 l 352 987 l 482 987 l 573 407 l 579 366 l 584 408 l 652 987 l 815 987 l 682 0 l 519 0 l 425 568 l 418 617 l 410 568 l 320 0 l 157 0 "},"X":{"ha":833,"x_min":28,"x_max":821,"o":"m 423 627 l 607 987 l 814 987 l 535 498 l 821 0 l 615 0 l 426 367 l 237 0 l 28 0 l 315 498 l 36 987 l 243 987 l 423 627 "},"Y":{"ha":833,"x_min":26,"x_max":819,"o":"m 422 524 l 623 987 l 819 987 l 509 347 l 508 0 l 334 0 l 332 354 l 26 987 l 222 987 l 422 524 "},"Z":{"ha":833,"x_min":64,"x_max":771,"o":"m 277 144 l 771 144 l 771 0 l 64 0 l 64 113 l 545 842 l 67 842 l 67 987 l 758 987 l 758 878 l 277 144 "},"a":{"ha":833,"x_min":84,"x_max":743,"o":"m 564 0 q 552 32 557 14 q 545 71 547 51 q 507 38 528 54 q 461 12 486 23 q 405 -7 435 0 q 340 -14 374 -14 q 236 3 283 -14 q 155 48 189 19 q 103 118 121 77 q 84 205 84 158 q 108 313 84 266 q 178 390 132 359 q 284 433 221 418 q 427 448 347 448 l 538 448 l 538 494 q 530 543 538 522 q 503 581 521 565 q 458 606 485 597 q 396 614 431 614 q 341 607 365 614 q 303 586 318 600 q 282 556 289 574 q 275 519 275 539 l 100 519 q 120 605 100 564 q 180 678 141 646 q 276 729 220 710 q 406 747 333 747 q 528 731 471 747 q 626 684 584 715 q 690 604 667 652 q 714 492 714 556 l 714 172 q 721 79 714 118 q 743 12 728 40 l 743 0 l 564 0 m 375 125 q 431 132 406 125 q 478 151 457 139 q 514 178 499 163 q 538 209 530 193 l 538 340 l 438 340 q 355 331 389 340 q 298 305 320 322 q 269 268 279 290 q 259 220 259 246 q 267 181 259 199 q 289 151 274 163 q 325 132 303 139 q 375 125 347 125 "},"b":{"ha":833,"x_min":104,"x_max":753,"o":"m 753 359 q 746 261 753 307 q 724 174 739 214 q 682 92 708 129 q 620 31 656 56 q 550 -2 589 9 q 467 -14 512 -14 q 387 -3 422 -14 q 323 28 351 8 q 295 51 308 39 q 270 79 281 64 l 262 0 l 104 0 l 104 1042 l 279 1042 l 279 665 q 309 695 293 681 q 344 719 326 709 q 400 740 370 733 q 465 747 430 747 q 552 735 513 747 q 624 700 592 723 q 670 655 650 681 q 707 598 691 629 q 742 495 730 552 q 753 374 753 438 l 753 359 m 578 374 q 575 432 578 404 q 565 486 572 460 q 543 538 557 515 q 505 581 530 562 q 468 598 488 592 q 421 604 447 604 q 361 594 387 604 q 317 568 336 585 q 296 544 305 557 q 279 516 286 531 l 279 218 q 300 183 288 199 q 328 157 311 168 q 369 137 345 144 q 422 130 393 130 q 470 136 449 130 q 508 154 492 142 q 545 195 530 170 q 566 252 559 220 q 575 303 572 275 q 578 359 578 330 l 578 374 "},"c":{"ha":833,"x_min":83,"x_max":734,"o":"m 422 127 q 478 136 452 127 q 525 160 505 144 q 557 198 545 176 q 568 247 568 220 l 733 247 q 709 143 734 191 q 642 61 684 96 q 544 6 600 26 q 425 -14 488 -14 q 276 15 340 -14 q 170 94 212 44 q 105 212 127 144 q 83 355 83 279 l 83 377 q 104 521 83 454 q 170 639 126 588 q 276 718 212 689 q 425 747 340 747 q 549 727 492 747 q 647 670 606 707 q 711 582 688 633 q 733 467 734 530 l 568 467 q 558 520 568 495 q 528 564 547 546 q 481 594 509 583 q 422 605 454 605 q 343 586 374 605 q 293 534 312 566 q 266 461 274 503 q 258 377 258 420 l 258 355 q 266 270 258 311 q 293 197 273 229 q 343 146 311 165 q 422 127 374 127 "},"d":{"ha":833,"x_min":80,"x_max":728,"o":"m 80 372 q 100 525 80 456 q 157 644 119 594 q 248 720 194 693 q 369 747 301 747 q 473 726 429 747 q 553 667 518 705 l 553 1042 l 728 1042 l 728 0 l 570 0 l 561 77 q 478 10 526 34 q 368 -14 431 -14 q 248 15 301 -14 q 157 92 194 43 q 100 211 120 142 q 80 358 80 279 l 80 372 m 255 358 q 263 269 255 311 q 292 197 272 228 q 340 148 310 165 q 412 130 370 130 q 498 153 465 130 q 553 214 532 175 l 553 520 q 498 581 532 559 q 414 604 465 604 q 341 586 371 604 q 292 536 311 568 q 264 463 273 505 q 255 372 255 420 l 255 358 "},"e":{"ha":833,"x_min":79,"x_max":760,"o":"m 450 -14 q 298 14 366 -14 q 181 90 230 41 q 106 202 132 137 q 79 341 79 267 l 79 368 q 106 523 79 454 q 180 643 133 593 q 292 720 228 692 q 430 747 356 747 q 571 721 509 747 q 675 647 632 694 q 739 533 717 600 q 760 386 760 466 l 760 311 l 256 311 l 256 309 q 280 233 265 262 q 321 179 296 203 q 384 141 349 155 q 460 127 418 127 q 570 150 518 127 q 656 215 623 172 l 746 122 q 633 28 710 70 q 450 -14 556 -14 m 429 605 q 367 593 395 605 q 318 559 339 582 q 282 506 296 537 q 260 435 267 475 l 587 435 l 587 449 q 576 509 587 479 q 545 559 565 538 q 496 592 525 580 q 429 605 467 605 "},"f":{"ha":833,"x_min":89,"x_max":779,"o":"m 283 0 l 283 604 l 89 604 l 89 734 l 283 734 l 283 777 q 306 903 283 848 q 370 996 329 958 q 472 1053 412 1034 q 604 1072 531 1072 q 651 1070 629 1072 q 696 1065 674 1068 q 737 1059 717 1062 q 779 1050 758 1055 l 766 912 q 707 923 741 918 q 630 928 673 928 q 550 917 583 928 q 497 885 517 906 q 469 839 478 867 q 460 777 460 812 l 460 734 l 728 734 l 728 604 l 460 604 l 460 0 l 283 0 "},"g":{"ha":833,"x_min":81,"x_max":736,"o":"m 81 372 q 101 525 81 456 q 160 644 121 594 q 253 720 199 693 q 377 747 308 747 q 448 740 416 747 q 507 716 480 732 q 541 692 525 706 q 570 662 557 679 l 577 734 l 736 734 l 736 22 q 712 -110 736 -52 q 642 -208 687 -168 q 535 -268 597 -248 q 397 -289 472 -289 q 327 -282 364 -289 q 252 -261 289 -275 q 181 -224 214 -247 q 123 -170 147 -202 l 203 -64 q 245 -103 223 -86 q 290 -130 267 -119 q 337 -145 313 -140 q 387 -151 361 -151 q 462 -139 429 -151 q 517 -104 495 -127 q 550 -52 538 -83 q 561 19 561 -20 l 561 66 q 532 38 547 50 q 500 16 517 25 q 443 -6 474 2 q 376 -14 412 -14 q 253 15 308 -14 q 160 92 199 43 q 101 211 121 142 q 81 358 81 279 l 81 372 m 256 358 q 266 269 256 311 q 296 197 275 228 q 346 148 315 165 q 420 130 377 130 q 467 135 446 130 q 506 151 488 140 q 537 176 524 161 q 561 209 551 191 l 561 525 q 535 561 550 545 q 502 585 521 576 q 465 599 486 594 q 421 604 445 604 q 348 586 378 604 q 296 536 317 568 q 266 463 276 505 q 256 372 256 420 l 256 358 "},"h":{"ha":833,"x_min":100,"x_max":747,"o":"m 275 631 q 308 670 290 652 q 345 703 325 688 q 410 735 374 724 q 486 747 446 747 q 592 730 544 747 q 674 677 640 713 q 728 584 709 640 q 747 448 747 527 l 747 0 l 572 0 l 572 449 q 562 519 572 490 q 533 567 551 548 q 487 595 514 586 q 426 604 460 604 q 375 598 399 604 q 332 581 352 593 q 301 559 315 572 q 275 530 287 546 l 275 0 l 100 0 l 100 1042 l 275 1042 l 275 631 "},"i":{"ha":833,"x_min":144,"x_max":746,"o":"m 144 734 l 538 734 l 538 144 l 746 144 l 746 0 l 144 0 l 144 144 l 361 144 l 361 589 l 144 589 l 144 734 m 347 922 q 355 961 347 943 q 376 991 362 979 q 407 1010 389 1004 q 449 1017 426 1017 q 518 994 492 1017 q 547 934 545 971 q 527 872 549 897 q 465 844 505 847 q 426 839 446 837 q 387 851 406 840 q 357 880 368 861 q 347 922 347 899 "},"j":{"ha":833,"x_min":149,"x_max":594,"o":"m 207 734 l 582 734 l 582 -14 q 561 -140 582 -87 q 501 -227 541 -193 q 405 -279 462 -262 q 275 -296 348 -296 q 239 -296 257 -296 q 203 -293 220 -295 q 176 -290 189 -292 q 149 -285 163 -288 l 159 -142 q 183 -146 168 -144 q 214 -149 198 -148 q 244 -150 230 -150 q 266 -151 259 -151 q 320 -144 295 -151 q 365 -121 346 -137 q 394 -79 383 -105 q 405 -14 405 -53 l 405 589 l 207 589 l 207 734 m 391 923 q 417 990 391 962 q 492 1017 444 1017 q 567 990 539 1017 q 594 923 594 964 q 567 855 594 882 q 492 828 539 828 q 418 855 445 828 q 391 923 391 882 "},"k":{"ha":833,"x_min":102,"x_max":802,"o":"m 365 311 l 277 230 l 277 0 l 102 0 l 102 1042 l 277 1042 l 277 437 l 340 507 l 551 734 l 762 734 l 481 428 l 802 0 l 585 0 l 365 311 "},"l":{"ha":833,"x_min":136,"x_max":755,"o":"m 136 1042 l 538 1042 l 538 144 l 755 144 l 755 0 l 136 0 l 136 144 l 361 144 l 361 897 l 136 897 l 136 1042 "},"m":{"ha":833,"x_min":54,"x_max":775,"o":"m 205 734 l 210 649 q 268 721 231 694 q 357 747 305 747 q 405 741 384 747 q 441 722 426 735 q 463 700 454 713 q 477 669 471 686 q 499 699 487 686 q 526 722 511 712 q 566 741 544 734 q 616 747 589 747 q 679 735 650 747 q 730 698 708 724 q 763 630 751 671 q 775 529 775 588 l 775 0 l 614 0 l 614 530 q 610 565 614 551 q 597 589 605 580 q 578 600 589 597 q 554 604 567 604 q 531 600 541 604 q 513 591 521 597 q 500 578 505 585 q 492 561 495 570 q 492 554 492 559 q 492 543 492 550 l 492 0 l 336 0 l 336 530 q 332 566 336 551 q 320 589 328 581 q 301 600 312 597 q 277 604 290 604 q 252 600 263 604 q 233 587 241 595 q 222 574 227 582 q 214 557 218 566 l 214 0 l 54 0 l 54 734 l 205 734 "},"n":{"ha":833,"x_min":100,"x_max":745,"o":"m 100 0 l 100 734 l 259 734 l 270 631 q 302 669 285 652 q 339 700 319 686 q 410 735 372 723 q 492 747 449 747 q 594 731 548 747 q 675 680 641 715 q 726 589 708 644 q 745 454 745 533 l 745 0 l 570 0 l 570 452 q 559 526 570 496 q 530 572 549 555 q 485 597 511 590 q 424 604 458 604 q 371 597 395 604 q 328 577 347 590 q 299 553 312 567 q 276 522 286 539 l 276 0 l 100 0 "},"o":{"ha":833,"x_min":73,"x_max":760,"o":"m 73 374 q 96 522 73 454 q 163 640 119 590 q 271 719 207 690 q 416 747 334 747 q 562 719 498 747 q 670 640 625 690 q 736 522 713 590 q 760 374 760 454 l 760 359 q 736 211 760 279 q 670 92 713 142 q 562 14 626 42 q 417 -14 498 -14 q 271 14 335 -14 q 163 92 207 42 q 96 211 119 142 q 73 359 73 279 l 73 374 m 248 359 q 257 269 248 311 q 288 196 267 227 q 340 145 308 163 q 417 127 372 127 q 492 145 460 127 q 545 196 524 163 q 574 269 564 227 q 584 359 584 311 l 584 374 q 574 462 584 420 q 545 536 564 504 q 492 587 524 568 q 416 605 460 605 q 340 587 372 605 q 288 536 308 568 q 257 462 267 504 q 248 374 248 420 l 248 359 "},"p":{"ha":833,"x_min":102,"x_max":751,"o":"m 102 -282 l 102 734 l 264 734 l 271 660 q 303 693 286 679 q 341 719 321 708 q 397 740 366 732 q 463 747 428 747 q 587 720 533 747 q 677 644 640 693 q 732 526 713 595 q 751 374 751 457 l 751 359 q 732 212 751 280 q 677 94 713 143 q 587 15 641 43 q 465 -14 534 -14 q 395 -5 427 -14 q 336 18 363 3 q 305 39 319 27 q 277 65 291 51 l 277 -282 l 102 -282 m 576 374 q 567 464 576 422 q 538 537 557 506 q 489 586 519 568 q 416 604 458 604 q 371 599 391 604 q 334 585 351 594 q 302 559 316 574 q 277 524 288 545 l 277 208 q 300 175 287 190 q 330 149 313 160 q 369 133 347 139 q 417 127 391 127 q 490 146 459 127 q 539 197 520 165 q 567 271 558 229 q 576 360 576 313 l 576 374 "},"q":{"ha":833,"x_min":81,"x_max":729,"o":"m 81 373 q 100 525 81 456 q 156 644 119 594 q 248 720 193 693 q 372 747 302 747 q 440 739 409 747 q 498 716 472 731 q 533 691 517 705 q 564 660 549 677 l 574 734 l 729 734 l 729 -282 l 553 -282 l 553 63 q 521 34 538 47 q 486 12 504 21 q 432 -7 461 -1 q 370 -14 404 -14 q 247 15 301 -14 q 157 93 193 43 q 100 211 119 142 q 81 359 81 279 l 81 373 m 256 359 q 264 270 256 311 q 293 197 273 228 q 342 146 312 165 q 414 127 372 127 q 461 133 440 127 q 499 148 482 138 q 529 173 516 158 q 553 206 543 188 l 553 529 q 530 561 543 547 q 500 585 517 575 q 462 600 483 595 q 416 605 441 605 q 343 587 374 605 q 294 537 313 568 q 265 463 274 505 q 256 373 256 421 l 256 359 "},"r":{"ha":833,"x_min":201,"x_max":753,"o":"m 618 747 q 695 742 659 747 q 753 729 732 736 l 728 555 q 653 568 690 564 q 580 572 615 572 q 510 565 541 572 q 455 543 479 557 q 408 503 428 527 q 376 447 389 479 l 376 0 l 201 0 l 201 734 l 364 734 l 372 631 l 373 614 q 480 712 418 676 q 618 747 543 747 "},"s":{"ha":833,"x_min":90,"x_max":747,"o":"m 576 200 q 569 232 576 218 q 541 258 561 246 q 487 280 520 270 q 402 300 453 290 q 285 332 338 313 q 195 378 232 351 q 136 440 157 405 q 115 523 115 476 q 136 609 115 568 q 197 680 157 650 q 295 729 237 711 q 423 747 352 747 q 557 729 498 747 q 659 680 617 711 q 722 605 700 648 q 744 512 744 562 l 569 512 q 562 549 569 532 q 540 581 554 566 q 492 608 522 597 q 423 618 463 618 q 360 611 387 618 q 317 591 334 604 q 293 564 301 579 q 284 530 284 548 q 291 499 284 513 q 317 473 298 484 q 365 451 334 460 q 443 434 395 441 q 566 405 509 422 q 662 361 622 388 q 725 297 703 334 q 747 208 747 260 q 724 119 747 159 q 659 48 701 78 q 557 2 617 19 q 425 -14 497 -14 q 281 7 343 -14 q 176 64 218 28 q 112 142 134 98 q 90 231 90 186 l 258 231 q 276 177 261 199 q 314 141 291 155 q 367 121 338 127 q 427 115 397 115 q 497 122 467 115 q 545 142 526 130 q 568 169 560 154 q 576 200 576 183 "},"t":{"ha":833,"x_min":87,"x_max":742,"o":"m 436 913 l 436 734 l 711 734 l 711 604 l 436 604 l 436 271 q 446 203 436 230 q 472 161 455 176 q 514 137 490 144 q 568 130 538 130 q 611 133 589 130 q 655 138 634 135 q 693 144 675 141 q 724 151 711 148 l 742 30 q 697 11 723 19 q 643 -3 672 3 q 582 -11 614 -8 q 519 -14 551 -14 q 414 1 462 -14 q 332 50 366 17 q 279 134 298 83 q 260 256 260 184 l 260 604 l 87 604 l 87 734 l 260 734 l 260 913 l 436 913 "},"u":{"ha":833,"x_min":106,"x_max":739,"o":"m 580 0 l 570 102 q 480 17 533 48 q 362 -14 427 -14 q 258 3 305 -14 q 177 60 210 21 q 124 157 143 98 q 106 299 106 216 l 106 734 l 281 734 l 281 298 q 289 218 281 250 q 311 166 296 185 q 350 138 326 146 q 408 130 374 130 q 466 136 440 130 q 512 156 492 143 q 541 182 528 167 q 563 216 554 198 l 563 734 l 739 734 l 739 0 l 580 0 "},"v":{"ha":833,"x_min":52,"x_max":780,"o":"m 337 0 l 52 734 l 235 734 l 407 209 l 417 159 l 428 209 l 597 734 l 780 734 l 497 0 l 337 0 "},"w":{"ha":833,"x_min":21,"x_max":803,"o":"m 158 0 l 21 734 l 181 734 l 242 291 l 252 214 l 267 291 l 353 734 l 470 734 l 557 293 l 572 213 l 583 294 l 643 734 l 803 734 l 666 0 l 515 0 l 427 404 l 410 487 l 395 404 l 309 0 l 158 0 "},"x":{"ha":833,"x_min":63,"x_max":798,"o":"m 429 496 l 598 734 l 789 734 l 537 373 l 798 0 l 606 0 l 430 248 l 256 0 l 63 0 l 323 373 l 73 734 l 263 734 l 429 496 "},"y":{"ha":833,"x_min":37,"x_max":823,"o":"m 204 -296 q 158 -293 179 -296 q 116 -283 138 -290 l 138 -149 q 169 -150 151 -149 q 197 -151 186 -151 q 238 -137 220 -151 q 269 -106 256 -123 q 290 -78 283 -89 q 304 -52 296 -67 l 349 32 l 37 734 l 230 734 l 405 295 l 428 217 l 457 293 l 629 734 l 823 734 l 451 -111 q 419 -171 439 -138 q 370 -231 399 -203 q 301 -277 342 -258 q 204 -296 260 -296 "},"z":{"ha":833,"x_min":86,"x_max":763,"o":"m 323 141 l 763 141 l 763 0 l 86 0 l 86 111 l 503 591 l 95 591 l 95 734 l 744 734 l 744 626 l 323 141 "},"¹":{"ha":833,"x_min":266,"x_max":528,"o":"m 528 448 l 399 448 l 399 829 l 266 798 l 266 901 l 515 981 l 528 981 l 528 448 "},"²":{"ha":833,"x_min":205,"x_max":633,"o":"m 633 452 l 217 452 l 217 540 l 412 717 q 441 746 429 732 q 463 772 454 760 q 480 803 475 789 q 486 828 486 817 q 481 853 486 842 q 469 873 477 865 q 447 886 460 881 q 416 890 433 890 q 380 884 395 890 q 355 866 364 878 q 340 842 345 856 q 335 811 335 827 l 205 811 q 219 882 205 849 q 260 941 233 916 q 325 980 287 966 q 411 995 363 995 q 505 982 464 995 q 572 943 546 968 q 605 893 593 922 q 616 829 616 865 q 607 775 616 800 q 581 727 598 751 q 536 679 562 703 q 474 626 509 655 l 387 555 l 633 555 l 633 452 "},"³":{"ha":833,"x_min":203,"x_max":633,"o":"m 351 768 l 410 768 q 443 772 429 768 q 468 783 458 775 q 487 804 481 791 q 493 832 493 817 q 489 854 493 844 q 475 872 484 864 q 451 885 466 880 q 416 890 437 890 q 386 886 400 890 q 362 876 372 883 q 347 862 353 870 q 342 842 342 853 l 212 842 q 228 907 212 879 q 272 956 244 936 q 335 984 299 975 q 412 994 372 994 q 498 984 459 994 q 564 956 536 975 q 607 907 591 936 q 623 841 623 878 q 614 798 623 818 q 590 762 606 778 q 564 742 579 751 q 531 726 549 732 q 572 710 553 720 q 603 686 590 700 q 625 650 617 671 q 633 602 633 629 q 616 534 633 564 q 570 486 599 505 q 499 455 539 465 q 412 444 459 444 q 337 453 374 444 q 271 482 300 462 q 221 533 240 502 q 203 608 203 564 l 334 608 q 339 586 334 597 q 354 568 345 576 q 382 553 366 559 q 420 548 399 548 q 458 554 442 548 q 484 568 474 559 q 497 588 493 577 q 502 612 502 600 q 496 642 502 630 q 480 662 491 654 q 451 675 469 671 q 410 680 433 680 l 351 680 l 351 768 "},"ª":{"ha":833,"x_min":186,"x_max":640,"o":"m 521 478 q 512 509 516 493 q 507 543 509 525 q 484 515 497 528 q 453 492 471 503 q 409 475 433 481 q 355 469 385 469 q 283 479 315 469 q 231 511 252 490 q 198 559 209 531 q 186 623 186 588 q 202 692 186 662 q 247 742 218 722 q 317 770 275 760 q 411 780 358 780 l 505 780 l 505 814 q 500 852 505 836 q 485 880 495 868 q 460 896 475 890 q 425 902 445 902 q 379 896 399 902 q 348 879 360 890 q 334 859 339 871 q 330 833 330 848 l 214 843 q 229 906 214 878 q 272 956 244 935 q 338 989 299 977 q 425 1001 376 1001 q 505 989 469 1001 q 568 954 541 977 q 608 896 593 930 q 622 814 622 861 l 622 601 q 626 538 622 568 q 640 478 630 508 l 521 478 m 384 566 q 421 571 402 566 q 458 587 440 577 q 487 607 474 595 q 505 631 499 618 l 505 701 l 412 701 q 364 695 385 701 q 330 677 344 688 q 310 654 317 667 q 304 626 304 641 q 308 602 304 612 q 320 584 312 591 q 346 570 330 574 q 384 566 362 566 "},"º":{"ha":833,"x_min":181,"x_max":650,"o":"m 181 774 q 197 865 181 823 q 244 937 214 907 q 318 984 275 967 q 416 1001 361 1001 q 513 984 470 1001 q 587 937 557 967 q 634 865 618 907 q 650 774 650 823 l 650 694 q 634 604 650 646 q 588 532 618 562 q 514 485 557 502 q 416 468 471 468 q 319 485 362 468 q 245 532 275 502 q 198 604 214 562 q 181 694 181 646 l 181 774 m 298 694 q 306 643 298 667 q 328 603 313 620 q 364 576 342 585 q 417 566 387 566 q 468 576 446 566 q 504 603 490 585 q 526 643 519 620 q 533 694 533 667 l 533 774 q 526 824 533 801 q 504 865 519 848 q 467 892 489 882 q 415 902 445 902 q 364 892 386 902 q 328 865 342 882 q 306 824 313 848 q 298 774 298 801 l 298 694 "},"½":{"ha":833,"x_min":18,"x_max":814,"o":"m 254 509 l 138 509 l 138 853 l 18 825 l 18 916 l 242 989 l 254 989 l 254 509 m 814 0 l 439 0 l 439 79 l 614 238 q 642 265 630 252 q 662 290 654 278 q 676 317 672 304 q 681 338 681 329 q 677 359 681 349 q 667 376 673 369 q 647 390 659 385 q 618 394 635 394 q 585 388 599 394 q 561 371 570 382 q 549 349 553 361 q 545 323 545 336 l 428 323 q 440 387 428 357 q 477 440 453 417 q 536 475 502 462 q 614 488 570 488 q 694 477 659 488 q 754 446 730 467 q 787 400 776 427 q 798 339 798 373 q 790 291 798 313 q 766 248 782 269 q 726 204 749 226 q 671 157 702 182 l 591 93 l 814 93 l 814 0 m 239 157 l 153 203 l 500 841 l 587 795 l 239 157 "},"¼":{"ha":833,"x_min":41,"x_max":793,"o":"m 277 509 l 161 509 l 161 853 l 41 825 l 41 916 l 266 989 l 277 989 l 277 509 m 735 194 l 793 194 l 793 99 l 735 99 l 735 0 l 617 0 l 617 99 l 403 99 l 397 175 l 617 481 l 735 481 l 735 194 m 509 194 l 617 194 l 617 334 l 610 322 l 509 194 m 285 157 l 199 203 l 545 841 l 632 795 l 285 157 "},"¾":{"ha":833,"x_min":23,"x_max":823,"o":"m 766 194 l 823 194 l 823 99 l 766 99 l 766 0 l 648 0 l 648 99 l 433 99 l 427 175 l 648 481 l 766 481 l 766 194 m 540 194 l 648 194 l 648 334 l 640 322 l 540 194 m 156 789 l 210 789 q 242 793 228 789 q 265 804 256 798 q 279 823 275 812 q 284 847 284 833 q 280 866 284 857 q 269 883 277 875 q 247 894 260 890 q 215 899 234 899 q 187 895 200 899 q 165 886 174 892 q 152 873 157 880 q 148 857 148 865 l 31 857 q 46 915 31 889 q 85 958 60 941 q 142 984 110 975 q 212 993 175 993 q 289 984 254 993 q 348 958 323 975 q 387 915 373 941 q 401 855 401 888 q 393 814 401 833 q 370 782 385 796 q 347 765 359 772 q 318 751 334 757 q 352 739 337 746 q 378 721 367 731 q 402 686 394 707 q 410 640 410 666 q 395 579 410 606 q 353 535 380 553 q 290 507 326 517 q 212 498 254 498 q 144 506 178 498 q 84 532 111 514 q 40 578 57 550 q 23 646 23 606 l 141 646 q 146 626 141 635 q 159 609 151 616 q 184 596 169 602 q 218 591 199 591 q 253 596 239 591 q 276 610 267 602 q 288 628 284 617 q 292 649 292 638 q 288 672 292 663 q 278 690 284 682 q 250 705 267 700 q 210 710 233 710 l 156 710 l 156 789 m 340 157 l 253 203 l 600 841 l 686 795 l 340 157 "},"Æ":{"ha":833,"x_min":31,"x_max":801,"o":"m 801 0 l 438 0 l 438 229 l 277 229 l 210 0 l 31 0 l 367 987 l 786 987 l 786 844 l 606 844 l 606 581 l 765 581 l 765 437 l 606 437 l 606 142 l 801 142 l 801 0 m 322 382 l 438 382 l 437 768 l 322 382 "},"æ":{"ha":833,"x_min":31,"x_max":810,"o":"m 593 -14 q 523 -6 555 -14 q 465 18 491 2 q 433 42 448 28 q 406 71 418 55 q 377 39 393 54 q 340 12 361 23 q 296 -7 320 0 q 243 -14 271 -14 q 152 2 191 -14 q 86 45 113 17 q 45 112 59 72 q 31 199 31 151 q 46 291 31 250 q 90 362 61 332 q 188 418 127 399 q 330 437 248 437 l 340 437 l 340 522 q 336 563 340 545 q 321 590 331 580 q 304 601 314 597 q 280 605 294 605 q 248 600 262 605 q 225 583 234 595 q 214 560 218 574 q 211 528 211 547 l 45 534 q 61 623 45 583 q 106 690 77 662 q 178 732 136 717 q 273 747 220 747 q 331 742 304 747 q 381 727 358 737 q 408 712 395 720 q 432 692 420 703 q 457 712 444 703 q 486 727 470 721 q 532 743 507 737 q 587 747 558 748 q 680 729 638 747 q 750 675 721 710 q 794 590 779 640 q 810 479 810 541 l 810 314 l 496 314 l 496 253 q 498 221 496 236 q 506 193 501 205 q 521 167 511 178 q 545 146 530 155 q 578 132 559 137 q 624 127 598 127 q 666 131 648 127 q 701 140 685 134 q 729 151 715 144 q 756 163 743 157 l 792 41 q 760 21 780 31 q 715 4 741 12 q 659 -9 689 -4 q 593 -14 628 -14 m 286 117 q 303 120 294 117 q 320 127 312 123 q 332 135 326 130 q 341 143 337 139 q 341 189 341 172 q 341 231 341 206 q 341 273 341 255 q 340 319 340 291 l 332 319 q 278 309 301 319 q 238 283 254 299 q 213 243 222 266 q 205 197 205 221 q 210 165 205 180 q 224 140 214 151 q 249 123 234 130 q 286 117 264 117 m 648 435 l 648 514 q 643 551 648 534 q 630 581 639 568 q 608 598 621 592 q 576 605 595 605 q 550 602 562 605 q 530 591 538 598 q 512 568 519 582 q 501 536 505 554 q 497 508 498 523 q 496 478 496 494 l 496 435 l 648 435 "},"Œ":{"ha":833,"x_min":50,"x_max":807,"o":"m 807 0 l 521 0 q 433 -10 478 -5 q 340 -14 387 -14 q 222 7 276 -14 q 131 73 169 28 q 71 182 92 116 q 50 337 50 248 l 50 650 q 71 805 50 739 q 130 915 92 871 q 221 980 168 959 q 338 1002 275 1002 q 432 997 386 1002 q 521 987 478 993 l 800 987 l 800 850 l 557 850 l 557 581 l 765 581 l 765 444 l 557 444 l 557 146 l 807 146 l 807 0 m 340 132 q 371 132 355 132 q 402 134 387 133 l 402 861 q 370 863 387 862 q 338 863 354 863 q 282 853 307 863 q 240 819 257 844 q 214 754 223 795 q 205 652 205 713 l 205 337 q 214 237 205 277 q 241 174 223 197 q 283 141 258 151 q 340 132 308 132 "},"œ":{"ha":833,"x_min":27,"x_max":806,"o":"m 27 434 q 43 565 27 507 q 90 663 59 623 q 167 726 121 704 q 271 747 212 747 q 332 740 304 747 q 385 718 361 732 q 409 702 397 711 q 430 682 420 693 q 453 705 441 695 q 479 722 465 715 q 526 742 500 735 q 579 747 551 748 q 676 726 633 747 q 747 667 718 705 q 791 575 777 629 q 806 456 806 522 l 806 314 l 515 314 l 515 287 q 517 248 515 266 q 524 214 519 230 q 535 182 528 197 q 552 157 543 167 q 585 135 566 142 q 629 127 604 127 q 663 130 648 127 q 690 137 677 132 q 713 147 703 141 q 736 159 724 153 l 776 45 q 749 24 764 34 q 716 5 734 14 q 670 -8 695 -3 q 614 -14 644 -14 q 546 -6 578 -14 q 486 16 513 1 q 459 34 473 24 q 435 56 446 44 q 411 32 424 43 q 384 14 398 22 q 333 -7 361 0 q 272 -14 304 -14 q 168 8 213 -14 q 91 69 122 29 q 43 167 60 109 q 27 298 27 225 l 27 434 m 193 298 q 198 219 193 254 q 214 163 203 185 q 237 137 223 146 q 272 127 252 127 q 303 135 290 127 q 325 157 316 142 q 337 182 332 168 q 345 214 342 197 q 349 253 347 231 q 350 298 350 274 l 350 435 q 349 477 350 457 q 345 514 348 497 q 340 538 342 527 q 333 559 337 550 q 309 593 324 581 q 271 605 293 605 q 234 593 249 605 q 210 559 219 581 q 197 506 201 538 q 193 435 193 474 l 193 298 m 579 605 q 557 601 567 605 q 541 587 547 596 q 528 564 533 578 q 519 528 523 550 q 516 493 517 512 q 515 453 515 475 l 515 439 l 642 439 l 642 496 q 638 543 642 522 q 626 578 634 564 q 607 598 618 591 q 579 605 595 605 "},"ð":{"ha":833,"x_min":31,"x_max":742,"o":"m 602 861 q 705 675 668 782 q 742 437 742 569 l 742 391 q 732 290 742 338 q 705 201 722 241 q 643 102 681 145 q 558 33 606 60 q 474 -2 519 9 q 379 -14 429 -14 q 237 12 302 -14 q 127 83 173 37 q 56 188 81 127 q 31 317 31 248 q 54 456 31 393 q 122 564 78 519 q 226 633 165 608 q 364 657 288 657 q 464 640 416 657 q 548 593 511 623 q 509 696 533 650 q 452 777 484 742 l 284 684 l 232 758 l 379 840 q 330 868 355 856 q 280 889 305 880 l 336 1028 q 442 988 392 1014 q 535 927 492 963 l 675 1005 l 727 930 l 602 861 m 382 127 q 433 135 409 127 q 476 156 456 142 q 518 199 500 174 q 547 256 536 224 q 561 313 556 283 q 566 378 566 344 l 566 422 q 566 434 566 428 q 566 452 566 439 q 495 501 544 479 q 372 522 446 522 q 302 505 332 522 q 250 460 272 488 q 217 395 229 432 q 206 317 206 357 q 218 245 206 279 q 253 185 230 211 q 307 142 275 158 q 382 127 340 127 "},"Þ":{"ha":833,"x_min":97,"x_max":788,"o":"m 273 987 l 273 800 l 433 800 q 585 778 519 800 q 696 716 651 755 q 765 621 741 676 q 788 500 788 566 q 765 379 788 435 q 696 285 741 324 q 585 222 651 244 q 433 199 519 199 l 273 199 l 273 0 l 97 0 l 97 987 l 273 987 m 273 659 l 273 341 l 433 341 q 515 354 481 341 q 571 389 549 368 q 602 440 592 411 q 612 499 612 469 q 602 559 612 530 q 571 610 592 588 q 515 645 549 632 q 433 659 481 659 l 273 659 "},"þ":{"ha":833,"x_min":102,"x_max":751,"o":"m 751 360 q 733 212 751 280 q 678 94 714 143 q 588 15 642 43 q 466 -14 535 -14 q 393 -5 427 -14 q 332 20 360 3 q 304 41 317 29 q 277 66 290 52 l 277 -282 l 102 -282 l 102 1048 l 277 1048 l 277 667 q 310 698 293 684 q 347 722 328 711 q 401 741 372 734 q 465 747 431 747 q 588 720 534 747 q 678 644 642 693 q 733 526 714 595 q 751 374 751 457 l 751 360 m 576 374 q 567 464 576 422 q 538 537 557 506 q 489 586 519 568 q 417 604 459 604 q 373 599 393 604 q 338 587 353 595 q 303 561 318 576 q 277 524 288 545 l 277 209 q 300 176 287 191 q 330 150 313 161 q 369 134 347 140 q 418 127 391 127 q 491 146 460 127 q 540 197 521 165 q 567 271 559 229 q 576 360 576 313 l 576 374 "},"ĸ":{"ha":833,"x_min":112,"x_max":809,"o":"m 398 296 l 287 202 l 287 0 l 112 0 l 112 734 l 287 734 l 287 404 l 360 490 l 574 734 l 793 734 l 522 425 l 809 0 l 585 0 l 398 296 "},"ß":{"ha":833,"x_min":111,"x_max":789,"o":"m 286 0 l 111 0 l 111 731 q 133 872 111 810 q 197 975 156 933 q 293 1037 237 1016 q 416 1059 349 1059 q 517 1044 469 1059 q 601 998 565 1029 q 658 922 637 968 q 680 814 680 876 q 667 730 680 762 q 641 674 654 698 q 614 626 626 650 q 603 563 603 601 q 617 515 603 538 q 652 471 631 493 q 696 424 672 448 q 741 372 720 400 q 775 310 762 344 q 789 233 789 275 q 771 126 789 173 q 720 49 753 80 q 637 2 686 18 q 526 -14 588 -14 q 471 -11 500 -14 q 417 -3 443 -8 q 369 10 391 2 q 333 27 347 18 l 368 168 q 395 154 379 161 q 431 141 411 146 q 473 131 450 135 q 519 127 496 127 q 559 134 542 127 q 588 153 576 140 q 608 185 601 166 q 614 228 614 204 q 600 280 614 256 q 566 326 586 304 q 521 370 545 347 q 476 419 496 392 q 441 479 455 446 q 427 557 427 513 q 440 630 427 600 q 469 686 453 660 q 491 730 481 707 q 503 785 500 753 q 500 829 505 809 q 484 866 494 850 q 458 896 473 884 q 425 910 442 907 q 381 908 403 914 q 343 884 360 901 q 301 827 317 866 q 286 729 286 789 l 286 0 "},"ə":{"ha":833,"x_min":109,"x_max":770,"o":"m 412 748 q 561 720 495 748 q 674 644 627 692 q 745 529 720 595 q 770 386 770 463 l 770 358 q 745 210 770 278 q 675 92 720 142 q 568 14 630 42 q 431 -13 506 -14 q 291 11 351 -13 q 191 78 231 35 q 129 182 150 121 q 109 317 109 243 l 109 419 l 592 419 q 592 421 592 420 q 592 425 592 422 q 573 495 587 463 q 536 552 559 528 q 477 592 511 577 q 398 606 443 606 q 327 602 359 606 q 269 589 296 597 q 221 570 243 581 q 179 547 199 559 l 127 661 q 174 693 146 678 q 238 721 202 709 q 318 741 274 733 q 412 748 361 748 m 431 128 q 491 141 464 128 q 537 176 517 153 q 570 228 557 197 q 589 294 583 258 l 281 294 l 281 277 q 290 218 281 245 q 317 171 299 191 q 363 140 335 151 q 431 128 392 128 "},"$":{"ha":833,"x_min":91,"x_max":766,"o":"m 591 258 q 583 310 591 287 q 555 352 574 333 q 503 387 534 371 q 427 418 471 404 q 305 469 360 442 q 211 532 250 496 q 150 615 172 568 q 129 727 129 663 q 148 832 129 785 q 203 914 168 880 q 287 971 237 949 q 397 999 337 993 l 397 1145 l 505 1145 l 505 998 q 610 966 563 990 q 691 904 657 942 q 745 808 726 863 q 764 682 764 752 l 589 682 q 578 760 589 726 q 547 816 567 793 q 502 847 528 836 q 444 857 476 857 q 381 848 408 857 q 337 821 354 838 q 312 779 320 803 q 304 728 304 755 q 312 677 304 699 q 340 637 321 656 q 392 602 360 618 q 471 569 424 585 q 593 517 538 544 q 686 454 648 490 q 746 371 725 418 q 766 260 766 323 q 747 152 766 200 q 692 71 728 104 q 604 15 655 36 q 491 -12 553 -5 l 491 -144 l 385 -144 l 385 -12 q 275 14 328 -6 q 181 71 222 33 q 116 166 140 109 q 91 304 91 223 l 267 304 q 282 219 267 253 q 321 165 296 186 q 374 137 344 146 q 435 129 404 129 q 505 139 475 129 q 555 167 535 149 q 582 207 572 184 q 591 258 591 231 "},"¢":{"ha":833,"x_min":97,"x_max":748,"o":"m 437 127 q 492 136 466 127 q 539 160 519 144 q 571 198 559 176 q 581 247 583 220 l 747 247 q 728 155 747 198 q 676 79 709 113 q 597 23 642 45 q 500 -9 551 0 l 500 -166 l 366 -166 l 366 -8 q 249 37 300 4 q 165 118 199 70 q 114 227 132 166 q 97 355 97 288 l 97 377 q 114 506 97 445 q 165 614 132 566 q 249 696 199 663 q 366 741 300 729 l 366 894 l 500 894 l 500 743 q 601 710 555 734 q 680 652 646 687 q 730 569 712 615 q 747 467 748 522 l 581 467 q 572 520 583 495 q 542 564 562 546 q 495 594 523 583 q 436 605 468 605 q 357 586 389 605 q 307 534 326 566 q 280 461 288 503 q 273 377 273 420 l 273 355 q 280 270 273 311 q 307 197 288 229 q 357 146 325 165 q 437 127 389 127 "},"£":{"ha":833,"x_min":78,"x_max":792,"o":"m 366 403 l 370 288 q 367 238 370 262 q 356 194 363 215 q 344 167 351 180 q 328 142 337 155 l 792 142 l 792 0 l 80 0 l 80 142 l 138 142 q 165 161 155 146 q 182 195 176 176 q 190 238 188 215 q 192 281 192 260 l 188 403 l 78 403 l 78 543 l 184 543 l 178 705 q 201 830 178 775 q 264 924 223 885 q 361 981 304 961 q 485 1001 417 1001 q 611 981 555 1001 q 704 925 666 962 q 762 838 742 889 q 781 725 781 787 l 610 725 q 600 787 610 762 q 572 828 589 812 q 530 851 553 844 q 480 858 506 858 q 430 848 453 858 q 391 819 408 838 q 365 771 374 800 q 355 705 355 742 l 361 543 l 572 543 l 572 403 l 366 403 "},"¥":{"ha":833,"x_min":16,"x_max":826,"o":"m 330 0 l 330 200 l 92 200 l 92 306 l 330 306 l 330 396 l 92 396 l 92 503 l 281 503 l 16 987 l 212 987 l 401 602 l 420 559 l 422 559 l 442 602 l 630 987 l 826 987 l 561 503 l 740 503 l 740 396 l 507 396 l 507 306 l 740 306 l 740 200 l 507 200 l 507 0 l 330 0 "},"ƒ":{"ha":833,"x_min":102,"x_max":762,"o":"m 634 604 l 493 604 l 493 -14 q 475 -135 493 -83 q 422 -224 456 -188 q 338 -278 388 -260 q 227 -296 289 -296 q 164 -291 195 -296 q 102 -271 134 -286 l 112 -132 q 160 -149 127 -143 q 210 -154 193 -154 q 251 -148 233 -154 q 281 -130 269 -142 q 309 -83 300 -113 q 317 -14 317 -54 l 317 604 l 206 604 l 206 734 l 317 734 l 317 790 q 339 911 317 859 q 401 1000 361 964 q 499 1054 441 1035 q 630 1072 557 1072 q 696 1064 664 1072 q 762 1044 728 1056 l 745 907 q 704 922 727 917 q 652 928 681 928 q 579 918 610 928 q 529 890 549 909 q 502 848 511 873 q 493 790 493 823 l 493 734 l 634 734 l 634 604 "},"₣":{"ha":833,"x_min":3,"x_max":762,"o":"m 705 414 l 285 414 l 285 0 l 107 0 l 107 987 l 762 987 l 762 842 l 285 842 l 285 559 l 705 559 l 705 414 m 464 157 l 3 157 l 3 275 l 464 275 l 464 157 "},"₤":{"ha":833,"x_min":75,"x_max":788,"o":"m 566 318 l 365 318 l 366 288 q 364 241 367 264 q 354 199 361 219 q 341 170 349 184 q 323 142 334 155 l 788 142 l 788 0 l 76 0 l 76 142 l 134 142 q 161 161 151 146 q 178 195 172 176 q 186 238 184 215 q 188 281 188 260 l 186 318 l 75 318 l 75 418 l 183 418 l 180 498 l 75 498 l 75 598 l 178 598 l 174 705 q 197 830 174 775 q 260 924 219 885 q 357 981 300 961 q 480 1001 413 1001 q 607 981 551 1001 q 700 925 662 962 q 757 838 737 889 q 777 725 777 787 l 606 725 q 596 787 606 762 q 567 828 585 812 q 525 851 549 844 q 475 858 501 858 q 426 848 448 858 q 387 819 403 838 q 360 771 370 800 q 351 705 351 742 l 354 598 l 566 598 l 566 498 l 358 498 l 361 418 l 566 418 l 566 318 "},"₧":{"ha":833,"x_min":84,"x_max":817,"o":"m 803 633 l 684 633 l 684 202 q 689 152 684 172 q 703 120 694 132 q 724 103 712 109 q 749 98 735 98 q 777 102 762 98 q 798 108 791 105 l 817 14 q 773 -6 802 1 q 715 -14 744 -14 q 650 -2 680 -14 q 598 36 620 9 q 563 103 576 62 q 551 203 551 144 l 551 633 l 493 633 q 469 531 487 577 q 421 452 451 485 q 350 400 391 418 q 257 382 309 382 l 218 382 l 218 0 l 84 0 l 84 987 l 257 987 q 351 969 309 987 q 422 917 392 950 q 470 836 452 883 q 493 734 488 789 l 551 734 l 551 910 l 684 910 l 684 734 l 803 734 l 803 633 m 218 489 l 257 489 q 305 506 285 489 q 338 549 326 522 q 356 611 351 576 q 362 683 362 646 q 356 756 362 720 q 338 819 351 791 q 305 863 326 846 q 257 880 285 880 l 218 880 l 218 489 "},"¤":{"ha":833,"x_min":59,"x_max":782,"o":"m 617 54 q 525 4 575 21 q 419 -14 475 -14 q 314 4 363 -14 q 222 52 264 21 l 153 -18 l 59 79 l 133 154 q 96 244 109 195 q 83 345 83 292 q 97 453 83 402 q 138 546 112 503 l 59 627 l 153 724 l 231 644 q 319 688 272 673 q 419 703 367 703 q 520 688 472 703 q 608 643 568 672 l 688 724 l 782 627 l 701 543 q 741 451 726 501 q 755 345 755 401 q 742 245 755 292 q 706 156 729 197 l 782 79 l 688 -18 l 617 54 m 207 345 q 223 254 207 296 q 269 180 239 211 q 336 130 297 149 q 419 111 374 111 q 502 130 463 111 q 570 180 541 149 q 614 254 598 211 q 631 345 631 296 q 614 437 631 395 q 570 511 598 479 q 502 560 541 542 q 419 578 463 578 q 336 560 374 578 q 269 511 297 542 q 223 437 239 479 q 207 345 207 395 "},"!":{"ha":833,"x_min":311,"x_max":517,"o":"m 495 340 l 333 340 l 325 987 l 504 987 l 495 340 m 311 87 q 338 157 311 129 q 414 185 366 185 q 490 157 462 185 q 517 87 517 129 q 490 18 517 46 q 414 -9 462 -9 q 338 18 366 -9 q 311 87 311 46 "},"¡":{"ha":833,"x_min":329,"x_max":536,"o":"m 350 390 l 511 390 l 520 -256 l 340 -256 l 350 390 m 536 648 q 508 579 536 607 q 432 552 479 552 q 356 580 383 552 q 329 648 329 608 q 356 719 329 690 q 432 748 383 748 q 508 720 479 748 q 536 648 536 691 "},"?":{"ha":833,"x_min":113,"x_max":740,"o":"m 340 295 q 343 375 340 342 q 355 433 345 407 q 382 481 364 458 q 433 530 400 503 q 479 575 456 551 q 522 624 503 599 q 552 676 540 649 q 564 730 564 703 q 555 786 564 762 q 529 825 546 810 q 486 848 511 841 q 427 856 460 856 q 376 849 400 856 q 332 828 351 842 q 301 790 313 813 q 289 735 290 767 l 113 735 q 138 851 114 802 q 205 935 163 901 q 303 985 247 968 q 427 1002 360 1002 q 558 985 500 1002 q 658 935 617 968 q 719 851 698 901 q 740 738 740 802 q 724 649 740 690 q 682 574 707 609 q 622 507 655 538 q 557 447 589 476 q 525 411 536 427 q 509 378 513 395 q 502 342 503 361 q 500 295 500 322 l 340 295 m 315 88 q 342 159 315 130 q 418 187 370 187 q 494 159 466 187 q 522 88 522 130 q 494 20 522 47 q 418 -8 466 -8 q 342 20 370 -8 q 315 88 315 47 "},"¿":{"ha":833,"x_min":137,"x_max":734,"o":"m 527 438 q 525 359 527 392 q 514 302 523 327 q 488 254 506 276 q 437 207 470 233 q 394 159 416 184 q 354 110 372 135 q 325 56 336 83 q 313 -1 313 28 q 321 -53 313 -31 q 342 -90 328 -75 q 380 -114 357 -106 q 431 -121 403 -121 q 479 -115 456 -121 q 519 -94 502 -108 q 547 -57 536 -79 q 557 -3 557 -35 l 734 -3 q 709 -119 732 -69 q 646 -201 686 -168 q 551 -250 606 -234 q 434 -267 497 -267 q 309 -249 364 -267 q 216 -198 254 -232 q 157 -116 178 -165 q 137 -3 137 -66 q 153 85 137 45 q 194 162 169 126 q 251 229 219 197 q 314 291 283 261 q 346 326 335 311 q 361 357 356 341 q 366 392 366 373 q 367 438 367 411 l 527 438 m 361 646 q 380 708 361 682 q 448 733 399 733 q 516 708 496 733 q 536 646 536 683 q 516 587 536 610 q 448 563 496 563 q 380 587 399 563 q 361 646 361 611 "},",":{"ha":833,"x_min":243,"x_max":473,"o":"m 472 18 q 435 -135 472 -58 q 338 -265 398 -212 l 243 -216 q 287 -114 271 -167 q 304 11 304 -60 l 304 161 l 473 161 l 472 18 "},".":{"ha":833,"x_min":297,"x_max":545,"o":"m 297 103 q 329 188 297 153 q 420 222 361 222 q 512 188 479 222 q 545 103 545 154 q 512 20 545 53 q 420 -14 478 -14 q 330 20 363 -14 q 297 103 297 54 "},":":{"ha":833,"x_min":311,"x_max":559,"o":"m 312 103 q 344 188 312 153 q 435 222 376 222 q 527 188 494 222 q 560 103 560 154 q 527 20 560 53 q 435 -14 493 -14 q 345 20 378 -14 q 312 103 312 54 m 312 670 q 344 755 312 720 q 435 789 376 789 q 527 755 494 789 q 560 670 560 721 q 527 587 560 620 q 435 553 493 553 q 345 587 378 553 q 312 670 312 621 "},";":{"ha":833,"x_min":302,"x_max":579,"o":"m 331 670 q 363 755 331 720 q 454 789 395 789 q 546 755 513 789 q 579 670 579 721 q 546 587 579 620 q 454 553 512 553 q 364 587 397 553 q 331 670 331 621 m 532 18 q 495 -135 532 -58 q 398 -265 458 -212 l 303 -216 q 347 -114 330 -167 q 363 11 363 -60 l 363 161 l 532 161 l 532 18 "},"…":{"ha":833,"x_min":92,"x_max":874,"o":"m 92 102 q 124 187 92 153 q 216 222 157 222 q 308 188 275 222 q 340 102 340 153 q 307 19 340 52 q 216 -14 273 -14 q 125 19 158 -14 q 92 102 92 53 m 360 102 q 392 187 360 153 q 484 222 425 222 q 575 188 543 222 q 608 102 608 153 q 575 19 608 52 q 484 -14 541 -14 q 393 19 426 -14 q 360 102 360 53 m 626 102 q 658 187 626 153 q 749 222 690 222 q 841 188 808 222 q 874 102 874 153 q 841 19 874 52 q 749 -14 807 -14 q 659 19 692 -14 q 626 102 626 53 "},"·":{"ha":833,"x_min":336,"x_max":538,"o":"m 336 479 q 363 548 336 520 q 437 576 390 576 q 511 548 484 576 q 538 479 538 521 q 511 411 538 438 q 437 384 484 384 q 363 411 390 384 q 336 479 336 439 "},"•":{"ha":833,"x_min":275,"x_max":583,"o":"m 275 534 q 286 594 275 566 q 317 641 297 621 q 365 672 336 661 q 429 684 393 684 q 493 672 465 684 q 543 641 522 661 q 573 594 562 621 q 583 534 583 566 l 583 494 q 573 435 583 462 q 543 388 562 408 q 493 357 522 368 q 429 347 465 347 q 365 357 393 347 q 317 388 336 368 q 286 435 296 408 q 275 494 275 462 l 275 534 "},"_":{"ha":833,"x_min":101,"x_max":721,"o":"m 721 -138 l 101 -138 l 101 0 l 721 0 l 721 -138 "},"-":{"ha":833,"x_min":182,"x_max":737,"o":"m 737 364 l 182 364 l 182 506 l 737 506 l 737 364 "},"–":{"ha":833,"x_min":43,"x_max":797,"o":"m 797 414 l 43 414 l 43 558 l 797 558 l 797 414 "},"—":{"ha":833,"x_min":42,"x_max":795,"o":"m 795 414 l 42 414 l 42 558 l 795 558 l 795 414 "},"'":{"ha":833,"x_min":315,"x_max":452,"o":"m 452 950 l 434 682 l 315 682 l 315 948 l 315 1042 l 452 1042 l 452 950 "},"\"":{"ha":833,"x_min":201,"x_max":604,"o":"m 333 968 l 314 690 l 201 690 l 201 963 l 201 1042 l 333 1042 l 333 968 m 604 968 l 586 690 l 473 690 l 473 965 l 473 1042 l 604 1042 l 604 968 "},"‘":{"ha":833,"x_min":333,"x_max":539,"o":"m 333 805 q 342 876 333 840 q 368 947 351 912 q 407 1014 385 983 q 456 1069 429 1045 l 539 1017 q 495 921 512 971 q 478 806 478 870 l 478 690 l 333 690 l 333 805 "},"’":{"ha":833,"x_min":315,"x_max":521,"o":"m 521 944 q 512 873 521 910 q 486 802 503 837 q 447 736 469 767 q 397 680 425 705 l 315 733 q 359 829 342 778 q 375 943 375 880 l 375 1058 l 521 1058 l 521 944 "},"‚":{"ha":833,"x_min":312,"x_max":521,"o":"m 521 45 q 511 -25 521 12 q 486 -96 502 -61 q 447 -162 469 -131 q 398 -217 425 -193 l 312 -165 q 354 -70 339 -119 q 370 45 370 -20 l 370 176 l 521 176 l 521 45 "},"“":{"ha":833,"x_min":222,"x_max":656,"o":"m 221 805 q 230 876 221 840 q 256 947 239 912 q 295 1014 273 983 q 344 1069 317 1045 l 427 1017 q 383 921 400 971 q 366 806 366 870 l 366 690 l 221 690 l 221 805 m 450 805 q 459 876 450 840 q 486 947 469 912 q 524 1014 502 983 q 573 1069 547 1045 l 656 1017 q 612 921 629 971 q 595 806 595 870 l 595 690 l 450 690 l 450 805 "},"”":{"ha":833,"x_min":203,"x_max":648,"o":"m 409 944 q 400 873 409 910 q 374 802 391 837 q 335 736 357 767 q 286 680 313 705 l 203 733 q 247 829 231 778 q 263 943 263 880 l 263 1058 l 409 1058 l 409 944 m 649 944 q 640 873 649 910 q 614 802 631 837 q 575 736 597 767 q 526 680 553 705 l 444 733 q 487 829 471 778 q 503 943 503 880 l 503 1058 l 649 1058 l 649 944 "},"„":{"ha":833,"x_min":215,"x_max":641,"o":"m 424 45 q 415 -26 424 10 q 391 -97 406 -62 q 353 -164 375 -132 q 304 -218 332 -195 l 215 -166 q 258 -71 242 -121 q 273 43 273 -21 l 273 157 l 424 157 l 424 45 m 641 45 q 632 -26 641 10 q 606 -97 623 -62 q 568 -164 590 -132 q 518 -218 545 -195 l 429 -166 q 473 -71 456 -121 q 490 43 490 -21 l 490 157 l 641 157 l 641 45 "},"′":{"ha":833,"x_min":315,"x_max":452,"o":"m 452 950 l 434 682 l 315 682 l 315 948 l 315 1042 l 452 1042 l 452 950 "},"″":{"ha":833,"x_min":201,"x_max":604,"o":"m 333 968 l 314 690 l 201 690 l 201 963 l 201 1042 l 333 1042 l 333 968 m 604 968 l 586 690 l 473 690 l 473 965 l 473 1042 l 604 1042 l 604 968 "},"(":{"ha":833,"x_min":236,"x_max":606,"o":"m 236 401 q 251 582 236 497 q 290 739 265 667 q 349 870 315 810 q 420 975 382 929 q 496 1052 457 1020 q 572 1101 536 1084 l 606 1002 q 563 963 585 986 q 520 911 541 940 q 468 817 492 871 q 425 699 444 762 q 400 563 410 637 q 390 403 390 489 l 390 387 q 399 230 390 302 q 420 111 408 157 q 457 -1 436 50 q 500 -92 477 -53 q 553 -164 526 -133 q 606 -215 580 -195 l 572 -312 q 496 -262 536 -294 q 420 -184 457 -230 q 349 -80 382 -139 q 290 52 315 -21 q 251 207 265 123 q 236 388 236 292 l 236 401 "},")":{"ha":833,"x_min":215,"x_max":593,"o":"m 593 388 q 578 211 593 294 q 537 55 563 127 q 477 -76 511 -17 q 405 -182 443 -136 q 327 -262 367 -229 q 249 -312 286 -294 l 215 -215 q 264 -169 239 -197 q 313 -105 290 -142 q 361 -12 339 -64 q 400 105 383 41 q 423 235 414 164 q 431 387 431 305 l 431 403 q 422 555 431 485 q 399 683 413 626 q 354 814 380 755 q 298 914 328 872 q 257 966 278 943 q 215 1006 235 989 l 249 1101 q 327 1051 286 1084 q 405 972 367 1019 q 477 866 444 925 q 537 734 511 807 q 578 579 563 663 q 593 401 593 496 l 593 388 "},"[":{"ha":833,"x_min":275,"x_max":571,"o":"m 571 1006 l 448 1006 l 448 -87 l 571 -87 l 571 -224 l 275 -224 l 275 1143 l 571 1143 l 571 1006 "},"]":{"ha":833,"x_min":272,"x_max":568,"o":"m 272 1143 l 568 1143 l 568 -224 l 272 -224 l 272 -87 l 395 -87 l 395 1006 l 272 1006 l 272 1143 "},"{":{"ha":833,"x_min":212,"x_max":664,"o":"m 643 -245 q 527 -215 576 -245 q 448 -141 478 -186 q 400 -39 415 -94 q 386 71 386 17 l 386 182 q 343 314 386 274 q 212 355 300 355 l 212 483 q 343 523 300 483 q 386 656 386 563 l 386 768 q 402 885 386 825 q 452 991 418 946 q 529 1057 481 1031 q 643 1083 576 1082 l 664 983 q 597 964 621 983 q 563 913 574 945 q 549 844 551 882 q 547 768 547 805 l 547 656 q 508 513 547 575 q 386 418 469 451 q 508 325 469 387 q 547 182 547 263 l 547 71 q 552 -5 547 33 q 570 -75 557 -44 q 606 -125 583 -106 q 664 -144 629 -144 l 643 -245 "},"}":{"ha":833,"x_min":224,"x_max":676,"o":"m 224 -144 q 282 -125 259 -144 q 317 -75 304 -106 q 336 -5 330 -44 q 341 71 341 33 l 341 182 q 352 262 341 224 q 384 330 362 299 q 430 380 403 358 q 495 418 458 402 q 439 449 463 431 q 396 490 414 467 q 354 566 368 524 q 341 656 341 608 l 341 768 q 339 844 341 805 q 326 913 336 882 q 291 964 314 945 q 224 983 267 983 l 245 1083 q 365 1054 316 1082 q 446 977 414 1025 q 489 877 476 932 q 503 768 503 821 l 503 656 q 510 588 503 618 q 532 538 517 559 q 589 496 552 509 q 676 483 625 483 l 676 355 q 585 340 622 355 q 528 292 547 325 q 509 245 515 272 q 503 182 503 218 l 503 71 q 487 -39 503 18 q 441 -140 471 -96 q 361 -216 410 -187 q 245 -245 312 -245 l 224 -144 "},"‹":{"ha":833,"x_min":267,"x_max":576,"o":"m 410 361 l 576 90 l 460 90 l 267 355 l 267 368 l 460 632 l 576 632 l 410 361 "},"›":{"ha":833,"x_min":262,"x_max":573,"o":"m 380 631 l 573 367 l 573 354 l 380 90 l 262 90 l 429 360 l 262 631 l 380 631 "},"+":{"ha":833,"x_min":70,"x_max":747,"o":"m 493 546 l 747 546 l 747 384 l 493 384 l 493 99 l 324 99 l 324 384 l 70 384 l 70 546 l 324 546 l 324 818 l 493 818 l 493 546 "},"−":{"ha":833,"x_min":104,"x_max":684,"o":"m 684 414 l 104 414 l 104 558 l 684 558 l 684 414 "},"±":{"ha":833,"x_min":101,"x_max":722,"o":"m 493 622 l 722 622 l 722 475 l 493 475 l 493 218 l 338 218 l 338 475 l 101 475 l 101 622 l 338 622 l 338 868 l 493 868 l 493 622 m 699 0 l 119 0 l 119 143 l 699 143 l 699 0 "},"×":{"ha":833,"x_min":110,"x_max":744,"o":"m 110 245 l 322 463 l 111 679 l 216 784 l 427 569 l 638 784 l 743 679 l 531 463 l 744 245 l 639 140 l 427 356 l 215 140 l 110 245 "},"÷":{"ha":833,"x_min":74,"x_max":765,"o":"m 765 393 l 74 393 l 74 541 l 765 541 l 765 393 m 321 740 q 347 805 321 779 q 418 831 373 831 q 490 805 464 831 q 516 740 516 779 q 490 675 516 701 q 418 649 464 649 q 347 675 373 649 q 321 740 321 701 m 320 189 q 346 254 320 228 q 417 280 372 280 q 489 254 463 280 q 515 189 515 228 q 489 124 515 150 q 417 98 463 98 q 346 124 372 98 q 320 189 320 150 "},"=":{"ha":833,"x_min":109,"x_max":743,"o":"m 743 495 l 109 495 l 109 640 l 743 640 l 743 495 m 743 205 l 109 205 l 109 350 l 743 350 l 743 205 "},"≠":{"ha":833,"x_min":106,"x_max":739,"o":"m 739 205 l 365 205 l 307 95 l 231 136 l 267 205 l 106 205 l 106 350 l 343 350 l 420 495 l 106 495 l 106 640 l 496 640 l 553 747 l 629 706 l 595 640 l 739 640 l 739 495 l 517 495 l 441 350 l 739 350 l 739 205 "},"≈":{"ha":833,"x_min":96,"x_max":746,"o":"m 103 597 q 176 669 135 642 q 263 696 218 696 q 351 683 315 697 q 431 645 387 669 q 503 612 471 625 q 583 600 536 600 q 668 626 628 600 q 739 699 707 652 l 746 562 q 676 488 714 514 q 593 463 638 463 q 510 476 545 463 q 433 511 475 490 q 356 547 389 534 q 273 559 323 559 q 185 533 228 559 q 110 460 142 507 l 103 597 m 96 306 q 169 378 130 352 q 252 405 208 405 q 337 393 303 406 q 416 356 371 380 q 492 322 458 335 q 572 309 526 309 q 659 335 617 309 q 732 408 700 361 l 739 270 q 667 197 707 224 q 583 171 627 171 q 501 184 534 171 q 425 219 468 197 q 346 256 378 243 q 263 267 313 269 q 177 241 218 267 q 103 168 136 214 l 96 306 "},"<":{"ha":833,"x_min":108,"x_max":703,"o":"m 703 105 l 108 355 l 108 497 l 703 747 l 703 575 l 322 441 l 278 425 l 322 410 l 703 278 l 703 105 "},">":{"ha":833,"x_min":112,"x_max":720,"o":"m 112 104 l 112 277 l 511 414 l 552 427 l 511 441 l 112 576 l 112 747 l 720 498 l 720 355 l 112 104 "},"≤":{"ha":833,"x_min":118,"x_max":713,"o":"m 713 262 l 118 488 l 118 614 l 713 840 l 713 685 l 332 564 l 288 550 l 332 536 l 713 418 l 713 262 m 703 20 l 123 20 l 123 163 l 703 163 l 703 20 "},"≥":{"ha":833,"x_min":119,"x_max":727,"o":"m 119 269 l 119 423 l 518 547 l 559 559 l 519 571 l 119 693 l 119 847 l 727 622 l 727 494 l 119 269 m 701 19 l 121 19 l 121 162 l 701 162 l 701 19 "},"¬":{"ha":833,"x_min":126,"x_max":692,"o":"m 692 254 l 558 254 l 558 431 l 126 431 l 126 545 l 692 545 l 692 254 "},"/":{"ha":833,"x_min":154,"x_max":694,"o":"m 316 -85 l 154 -85 l 532 987 l 694 987 l 316 -85 "},"∕":{"ha":833,"x_min":154,"x_max":694,"o":"m 316 -85 l 694 987 l 532 987 l 154 -85 l 316 -85 "},"\\":{"ha":833,"x_min":161,"x_max":703,"o":"m 161 987 l 325 987 l 703 -85 l 540 -85 l 161 987 "},"⁄":{"ha":833,"x_min":193,"x_max":626,"o":"m 279 152 l 193 197 l 539 836 l 626 790 l 279 152 "},"%":{"ha":833,"x_min":25,"x_max":808,"o":"m 25 811 q 37 885 25 850 q 73 945 49 920 q 132 986 96 971 q 216 1002 168 1002 q 300 986 264 1002 q 359 945 336 971 q 394 885 382 920 q 406 811 406 850 l 406 759 q 394 686 406 720 q 359 625 382 651 q 300 584 336 599 q 216 569 264 569 q 133 584 169 569 q 73 625 97 599 q 37 686 50 651 q 25 759 25 720 l 25 811 m 145 759 q 149 726 145 742 q 161 699 153 711 q 183 680 170 686 q 217 673 197 673 q 250 680 236 673 q 271 699 263 686 q 282 726 279 711 q 286 759 286 742 l 286 811 q 282 843 286 827 q 271 871 279 859 q 249 890 262 883 q 215 897 235 897 q 183 890 196 897 q 161 871 170 883 q 149 843 153 859 q 145 811 145 827 l 145 759 m 426 229 q 438 302 426 267 q 474 363 450 336 q 533 404 498 389 q 616 419 569 419 q 701 404 665 419 q 760 363 736 389 q 796 302 784 336 q 808 229 808 267 l 808 176 q 796 102 808 137 q 761 42 784 68 q 701 1 736 16 q 618 -14 666 -14 q 534 1 570 -14 q 474 42 498 16 q 438 102 450 68 q 426 176 426 137 l 426 229 m 546 176 q 550 144 546 159 q 564 116 555 128 q 586 97 572 104 q 618 90 600 90 q 653 97 640 90 q 674 116 667 104 q 684 143 682 127 q 687 176 687 159 l 687 229 q 683 261 687 245 q 671 289 680 276 q 650 307 663 300 q 616 314 636 314 q 583 307 597 314 q 562 288 570 300 q 550 261 553 276 q 546 229 546 245 l 546 176 m 279 133 l 191 176 l 572 875 l 661 831 l 279 133 "},"‰":{"ha":833,"x_min":48,"x_max":814,"o":"m 220 202 q 231 275 220 241 q 265 336 243 310 q 320 377 288 362 q 396 392 353 392 q 438 388 418 392 q 474 376 458 384 q 497 362 486 370 q 517 345 508 354 q 533 360 524 353 q 552 372 543 367 q 592 387 570 382 q 638 392 613 392 q 714 377 681 392 q 770 336 747 362 q 803 275 791 310 q 814 202 814 241 l 814 176 q 803 102 814 137 q 770 42 791 68 q 715 1 747 16 q 640 -14 682 -14 q 594 -9 615 -14 q 555 5 572 -4 q 535 18 544 11 q 517 33 526 25 q 498 17 509 24 q 477 3 488 9 q 440 -9 460 -5 q 397 -14 420 -14 q 320 1 353 -14 q 265 42 288 16 q 231 102 243 68 q 220 176 220 137 l 220 202 m 48 810 q 59 884 48 850 q 92 945 70 919 q 144 986 113 970 q 217 1001 176 1001 q 293 986 260 1001 q 349 945 326 970 q 383 884 372 919 q 394 810 394 850 l 394 785 q 382 712 394 747 q 349 652 371 678 q 293 611 326 626 q 218 596 260 596 q 145 611 177 596 q 92 652 114 626 q 59 712 70 678 q 48 785 48 747 l 48 810 m 340 176 q 343 143 340 159 q 354 116 347 127 q 371 97 360 104 q 397 90 382 90 q 426 97 414 90 q 442 116 437 104 q 450 143 448 127 q 452 176 452 159 l 452 202 q 449 234 452 219 q 439 262 446 250 q 422 280 433 273 q 396 288 412 288 q 369 280 380 288 q 351 262 358 273 q 342 234 345 250 q 340 202 340 219 l 340 176 m 161 785 q 164 753 161 768 q 174 726 167 737 q 191 706 180 713 q 218 699 202 699 q 244 706 234 699 q 262 726 255 713 q 271 753 268 737 q 274 785 274 768 l 274 810 q 271 843 274 827 q 262 871 268 859 q 243 890 254 882 q 217 897 233 897 q 191 890 201 897 q 173 871 180 882 q 163 843 166 859 q 161 810 161 827 l 161 785 m 581 176 q 585 143 581 159 q 595 116 589 127 q 613 97 602 104 q 640 90 624 90 q 668 97 657 90 q 685 116 679 104 q 692 143 690 127 q 694 176 694 159 l 694 202 q 691 234 694 219 q 682 262 688 250 q 664 280 675 273 q 638 288 653 288 q 611 280 622 288 q 593 262 600 273 q 584 234 587 250 q 581 202 581 219 l 581 176 m 133 318 l 71 380 l 623 792 l 684 730 l 133 318 "},"|":{"ha":833,"x_min":362,"x_max":477,"o":"m 477 -276 l 362 -276 l 362 987 l 477 987 l 477 -276 "},"¦":{"ha":833,"x_min":334,"x_max":496,"o":"m 334 -183 l 334 355 l 496 355 l 496 -183 l 334 -183 m 496 473 l 334 473 l 334 987 l 496 987 l 496 473 "},"†":{"ha":833,"x_min":74,"x_max":745,"o":"m 745 588 l 496 588 l 496 0 l 320 0 l 320 588 l 74 588 l 74 734 l 320 734 l 320 987 l 496 987 l 496 734 l 745 734 l 745 588 "},"‡":{"ha":833,"x_min":86,"x_max":757,"o":"m 757 0 l 507 0 l 507 -282 l 331 -282 l 331 0 l 86 0 l 86 141 l 331 141 l 331 591 l 86 591 l 86 734 l 331 734 l 331 987 l 507 987 l 507 734 l 757 734 l 757 591 l 507 591 l 507 141 l 757 141 l 757 0 "},"©":{"ha":833,"x_min":60,"x_max":783,"o":"m 585 300 q 574 234 585 262 q 546 186 564 205 q 490 152 524 163 q 414 140 457 140 q 341 155 374 140 q 285 195 308 170 q 250 257 262 221 q 238 336 238 293 l 238 397 q 250 476 238 440 q 285 539 262 513 q 341 580 308 566 q 414 595 374 595 q 490 583 457 595 q 546 549 524 572 q 575 500 565 529 q 585 434 585 471 l 507 434 q 501 475 507 458 q 485 503 496 492 q 456 520 473 515 q 414 526 438 526 q 371 516 390 526 q 340 490 353 507 q 321 449 328 473 q 315 398 315 426 l 315 336 q 321 285 315 309 q 340 245 328 261 q 371 218 353 228 q 414 208 390 208 q 458 214 439 208 q 487 233 476 220 q 501 260 496 243 q 506 300 506 277 l 585 300 m 121 368 q 145 242 121 300 q 209 141 168 184 q 304 73 250 98 q 422 48 359 48 q 538 73 484 48 q 633 141 593 98 q 697 242 674 184 q 721 368 721 300 q 697 492 721 435 q 633 593 674 550 q 538 660 593 635 q 422 684 484 684 q 304 660 359 684 q 209 593 250 635 q 145 492 168 550 q 121 368 121 435 m 60 368 q 89 518 60 448 q 168 639 118 587 q 282 719 216 690 q 422 747 348 747 q 563 718 497 747 q 677 638 629 689 q 754 517 726 587 q 783 368 783 448 q 754 217 783 287 q 677 96 726 148 q 563 16 629 45 q 422 -14 497 -14 q 281 16 347 -14 q 167 96 215 45 q 89 217 117 148 q 60 368 60 287 "},"®":{"ha":833,"x_min":60,"x_max":781,"o":"m 60 367 q 88 516 60 447 q 165 637 116 586 q 279 718 214 689 q 420 747 345 747 q 562 718 496 747 q 676 637 627 689 q 753 516 724 586 q 781 367 781 447 q 753 217 781 286 q 676 96 724 147 q 562 15 627 44 q 420 -14 496 -14 q 279 15 345 -14 q 165 96 214 44 q 88 217 116 147 q 60 367 60 286 m 121 367 q 144 242 121 300 q 208 141 168 184 q 303 74 249 98 q 420 49 358 49 q 537 74 483 49 q 633 141 592 98 q 697 242 673 184 q 720 367 720 300 q 697 492 720 434 q 633 593 673 550 q 537 660 592 635 q 420 684 483 684 q 303 660 358 684 q 208 593 249 635 q 144 492 168 550 q 121 367 121 434 m 347 328 l 347 157 l 271 157 l 271 589 l 414 589 q 534 557 489 589 q 579 458 579 524 q 555 394 579 420 q 487 352 532 368 l 586 157 l 508 157 l 428 328 l 347 328 m 347 396 l 425 396 q 454 401 440 397 q 479 412 469 405 q 497 431 490 420 q 503 456 503 441 q 483 507 503 493 q 414 522 463 522 l 347 522 l 347 396 "},"™":{"ha":833,"x_min":76,"x_max":762,"o":"m 683 868 l 602 621 l 557 621 l 476 868 l 476 621 l 397 621 l 397 987 l 495 987 l 580 731 l 669 987 l 762 987 l 762 621 l 683 621 l 683 868 m 348 920 l 256 920 l 256 622 l 170 622 l 170 920 l 76 920 l 76 987 l 348 987 l 348 920 "},"°":{"ha":833,"x_min":243,"x_max":602,"o":"m 243 817 q 257 888 243 854 q 296 947 272 922 q 354 986 321 972 q 424 1001 387 1001 q 493 986 460 1001 q 549 947 526 972 q 588 888 574 922 q 602 817 602 854 q 588 746 602 779 q 549 688 574 713 q 493 650 525 664 q 424 635 460 635 q 354 650 387 635 q 296 688 321 664 q 257 746 271 713 q 243 817 243 779 m 338 817 q 345 784 338 799 q 364 757 352 768 q 391 739 376 745 q 424 732 406 732 q 457 739 441 732 q 484 756 472 745 q 501 783 494 768 q 507 817 507 799 q 501 852 507 836 q 484 880 494 868 q 457 898 472 892 q 424 905 441 905 q 391 898 406 905 q 364 880 376 892 q 345 852 352 868 q 338 817 338 836 "},"*":{"ha":833,"x_min":105,"x_max":790,"o":"m 369 607 l 105 672 l 149 807 l 401 696 l 378 987 l 521 987 l 496 692 l 747 801 l 790 663 l 522 601 l 703 382 l 587 297 l 443 548 l 300 304 l 183 385 l 369 607 "},"#":{"ha":833,"x_min":31,"x_max":787,"o":"m 448 278 l 303 278 l 252 0 l 136 0 l 187 278 l 31 278 l 31 388 l 207 388 l 244 594 l 81 594 l 81 705 l 264 705 l 316 987 l 432 987 l 380 705 l 526 705 l 577 987 l 694 987 l 642 705 l 787 705 l 787 594 l 622 594 l 585 388 l 736 388 l 736 278 l 565 278 l 514 0 l 398 0 l 448 278 m 323 388 l 468 388 l 505 594 l 360 594 l 323 388 "},"&":{"ha":833,"x_min":56,"x_max":832,"o":"m 56 252 q 68 334 56 297 q 104 405 81 372 q 154 460 125 434 q 218 512 183 486 l 233 523 q 201 573 216 549 q 176 621 186 597 q 154 685 161 653 q 146 749 146 716 q 164 854 146 808 q 216 935 182 901 q 299 984 251 966 q 406 1002 347 1002 q 497 984 456 1002 q 568 935 538 966 q 613 863 597 904 q 629 777 629 823 q 618 712 629 742 q 589 655 607 682 q 544 605 570 629 q 489 560 518 581 l 433 514 l 609 287 q 643 373 631 326 q 656 475 655 420 l 807 475 q 782 304 807 383 q 705 162 758 225 l 832 0 l 630 0 l 584 60 q 543 34 564 46 q 501 14 522 22 q 430 -7 467 0 q 351 -14 393 -14 q 228 5 282 -14 q 135 60 173 25 q 76 144 96 96 q 56 252 56 193 m 357 127 q 401 131 379 127 q 444 142 423 135 q 472 154 458 147 q 500 170 486 161 l 313 414 l 306 408 q 268 368 284 390 q 245 327 252 345 q 234 291 237 308 q 231 260 231 275 q 240 208 231 232 q 265 165 249 183 q 304 137 281 147 q 357 127 328 127 m 307 750 q 312 715 307 732 q 323 680 316 697 q 338 648 330 664 q 358 616 347 632 l 425 666 q 457 694 446 680 q 473 724 468 709 q 479 749 478 737 q 479 768 479 760 q 474 802 479 785 q 460 831 469 819 q 437 851 450 844 q 406 859 423 859 q 362 851 381 859 q 332 827 344 842 q 313 792 319 812 q 307 750 307 772 "},"@":{"ha":833,"x_min":29,"x_max":795,"o":"m 792 553 q 778 430 790 492 q 743 320 766 369 q 682 240 719 271 q 593 210 645 210 q 555 215 573 210 q 522 233 536 221 q 502 253 511 241 q 486 280 493 265 q 466 255 477 267 q 444 235 455 244 q 408 217 427 224 q 368 211 389 211 q 300 229 329 211 q 252 281 271 247 q 227 362 234 315 q 226 467 220 409 q 252 594 233 537 q 302 691 271 650 q 373 753 332 731 q 465 774 414 774 q 549 759 516 774 q 602 721 582 743 l 573 367 q 574 333 572 345 q 583 315 577 321 q 595 307 587 309 q 610 304 602 304 q 645 323 629 304 q 671 374 661 342 q 689 452 683 407 q 695 549 695 497 q 683 695 698 633 q 635 799 667 758 q 556 860 604 840 q 446 880 508 880 q 323 850 378 880 q 229 764 268 819 q 165 632 188 709 q 139 463 142 555 q 152 303 136 372 q 202 189 168 234 q 288 119 236 142 q 409 96 340 96 q 452 98 430 96 q 495 107 474 101 q 535 119 516 112 q 570 134 554 126 l 591 45 q 551 23 574 33 q 505 7 529 14 q 454 -2 479 1 q 407 -5 429 -5 q 236 27 308 -5 q 117 121 164 60 q 50 269 71 182 q 33 463 29 356 q 68 665 36 570 q 156 831 100 760 q 286 940 211 900 q 452 980 361 980 q 597 949 533 980 q 706 863 662 919 q 772 728 750 806 q 792 553 795 649 m 336 467 q 337 400 334 429 q 347 353 340 372 q 368 322 355 332 q 397 312 380 312 q 422 316 410 312 q 446 329 434 320 q 459 342 452 334 q 472 361 466 351 l 473 370 l 498 671 q 488 674 494 673 q 474 675 482 675 q 419 661 443 675 q 379 621 395 647 q 351 555 362 594 q 336 467 340 517 "},"§":{"ha":833,"x_min":58,"x_max":789,"o":"m 789 316 q 774 236 789 272 q 734 174 760 201 q 707 151 722 161 q 675 131 692 140 q 707 103 693 118 q 732 71 722 88 q 759 12 750 45 q 768 -63 768 -22 q 743 -171 768 -124 q 673 -250 718 -218 q 565 -299 628 -282 q 423 -315 501 -315 q 289 -301 355 -315 q 173 -254 224 -287 q 90 -165 121 -220 q 58 -29 58 -111 l 234 -28 q 251 -99 234 -71 q 294 -143 267 -127 q 355 -166 321 -160 q 423 -173 389 -173 q 506 -162 471 -173 q 562 -134 541 -152 q 585 -102 576 -120 q 593 -64 593 -85 q 583 -21 593 -39 q 548 15 572 -2 q 507 36 531 25 q 452 57 484 46 q 366 83 414 70 q 279 111 318 96 q 206 142 239 125 q 147 180 173 159 q 83 258 105 213 q 61 365 61 303 q 74 440 61 406 q 111 501 87 474 q 139 528 123 515 q 174 551 155 541 q 146 575 159 562 q 122 603 133 589 q 92 666 102 631 q 82 745 82 701 q 107 851 82 804 q 177 932 132 898 q 286 983 222 965 q 429 1001 350 1001 q 573 982 509 1001 q 683 926 637 963 q 751 835 727 889 q 775 710 775 781 l 600 710 q 589 769 600 742 q 556 817 578 796 q 502 848 534 836 q 429 859 470 859 q 352 850 385 859 q 299 826 320 842 q 268 790 278 810 q 258 747 258 770 q 268 699 258 719 q 300 664 277 680 q 324 650 311 656 q 354 637 338 644 q 404 620 376 629 q 467 602 431 612 q 527 585 498 593 q 581 566 555 576 q 649 536 618 552 q 704 500 680 520 q 767 423 745 468 q 789 316 789 378 m 404 454 q 351 469 376 461 q 303 485 326 477 q 276 470 288 479 q 256 450 264 460 q 241 417 245 435 q 236 379 236 399 q 248 326 236 347 q 289 286 259 304 q 350 257 312 271 q 445 227 388 243 q 497 212 472 219 q 545 196 522 204 q 571 211 559 202 q 591 229 583 219 q 609 262 603 244 q 616 302 616 280 q 606 348 616 328 q 570 386 595 368 q 542 403 557 395 q 505 419 526 411 q 459 436 485 427 q 404 454 434 444 "},"¶":{"ha":833,"x_min":146,"x_max":678,"o":"m 536 0 l 536 353 l 479 353 q 336 376 399 353 q 232 443 274 400 q 168 543 189 485 q 146 670 146 602 q 168 796 146 738 q 232 897 189 854 q 336 963 274 939 q 479 987 399 987 l 678 987 l 678 0 l 536 0 "},"^":{"ha":833,"x_min":147,"x_max":705,"o":"m 147 465 l 363 987 l 489 987 l 705 465 l 562 465 l 439 777 l 425 831 l 412 777 l 292 465 l 147 465 "},"~":{"ha":833,"x_min":21,"x_max":781,"o":"m 781 508 q 766 410 781 456 q 724 331 751 364 q 657 279 696 298 q 573 260 619 260 q 516 265 543 260 q 465 283 490 271 q 415 311 439 294 q 364 351 390 328 q 331 377 347 366 q 298 395 314 388 q 267 407 282 403 q 235 410 251 410 q 197 401 215 410 q 166 376 180 392 q 144 340 153 361 q 136 298 136 320 l 21 312 q 36 410 21 365 q 78 487 51 454 q 143 537 105 519 q 227 555 182 555 q 286 549 258 555 q 339 531 313 543 q 389 503 365 520 q 438 465 413 486 q 471 439 455 450 q 503 420 488 428 q 534 409 519 413 q 566 406 550 406 q 603 415 585 406 q 633 441 620 425 q 653 478 646 457 q 661 521 661 499 l 781 508 "},"Á":{"ha":833,"x_min":26,"x_max":824,"o":"m 578 216 l 274 216 l 212 0 l 26 0 l 349 987 l 508 987 l 824 0 l 640 0 l 578 216 m 318 368 l 535 368 l 428 745 l 318 368 m 480 1237 l 676 1237 l 490 1049 l 354 1049 l 480 1237 "},"Ă":{"ha":833,"x_min":26,"x_max":824,"o":"m 578 216 l 274 216 l 212 0 l 26 0 l 349 987 l 508 987 l 824 0 l 640 0 l 578 216 m 318 368 l 535 368 l 428 745 l 318 368 m 654 1261 q 638 1182 654 1218 q 593 1120 623 1146 q 523 1080 564 1095 q 429 1066 481 1066 q 335 1080 377 1066 q 265 1120 294 1095 q 220 1182 235 1146 q 204 1261 204 1218 l 332 1261 q 338 1225 332 1242 q 355 1196 343 1208 q 385 1176 366 1183 q 429 1168 403 1168 q 473 1176 455 1168 q 503 1196 491 1183 q 519 1226 514 1208 q 525 1261 525 1243 l 654 1261 "},"Â":{"ha":833,"x_min":26,"x_max":824,"o":"m 578 216 l 274 216 l 212 0 l 26 0 l 349 987 l 508 987 l 824 0 l 640 0 l 578 216 m 318 368 l 535 368 l 428 745 l 318 368 m 673 1101 l 673 1082 l 532 1082 l 429 1172 l 326 1082 l 187 1082 l 187 1102 l 378 1265 l 480 1265 l 673 1101 "},"Ä":{"ha":833,"x_min":26,"x_max":824,"o":"m 578 216 l 274 216 l 212 0 l 26 0 l 349 987 l 508 987 l 824 0 l 640 0 l 578 216 m 318 368 l 535 368 l 428 745 l 318 368 m 178 1163 q 202 1221 178 1198 q 267 1245 227 1245 q 331 1221 307 1245 q 355 1163 355 1198 q 330 1105 355 1128 q 267 1082 306 1082 q 203 1105 227 1082 q 178 1163 178 1128 m 496 1163 q 520 1221 496 1197 q 585 1244 545 1244 q 649 1221 625 1244 q 673 1163 673 1197 q 649 1104 673 1128 q 585 1080 625 1080 q 521 1104 545 1080 q 496 1163 496 1128 "},"À":{"ha":833,"x_min":26,"x_max":824,"o":"m 578 216 l 274 216 l 212 0 l 26 0 l 349 987 l 508 987 l 824 0 l 640 0 l 578 216 m 318 368 l 535 368 l 428 745 l 318 368 m 500 1051 l 361 1051 l 185 1239 l 380 1239 l 500 1051 "},"Ā":{"ha":833,"x_min":26,"x_max":824,"o":"m 578 216 l 274 216 l 212 0 l 26 0 l 349 987 l 508 987 l 824 0 l 640 0 l 578 216 m 318 368 l 535 368 l 428 745 l 318 368 m 677 1099 l 184 1099 l 184 1207 l 677 1207 l 677 1099 "},"Ą":{"ha":833,"x_min":26,"x_max":824,"o":"m 508 987 l 824 0 l 781 0 q 731 -26 751 -12 q 698 -55 711 -40 q 678 -89 684 -71 q 672 -127 672 -107 q 683 -160 672 -147 q 720 -174 694 -174 q 754 -169 739 -174 q 779 -159 768 -163 l 808 -259 q 759 -279 789 -269 q 683 -289 729 -289 q 626 -280 652 -289 q 579 -254 599 -271 q 548 -211 559 -236 q 536 -151 536 -185 q 545 -102 536 -127 q 570 -54 554 -77 q 598 -20 582 -36 q 636 11 615 -3 l 578 216 l 274 216 l 212 0 l 26 0 l 349 987 l 508 987 m 318 368 l 535 368 l 428 745 l 318 368 "},"Å":{"ha":833,"x_min":26,"x_max":824,"o":"m 578 216 l 274 216 l 212 0 l 26 0 l 349 987 l 508 987 l 824 0 l 640 0 l 578 216 m 318 368 l 535 368 l 428 745 l 318 368 m 286 1175 q 297 1227 286 1203 q 328 1270 308 1252 q 373 1298 347 1288 q 429 1308 399 1308 q 484 1298 458 1308 q 529 1270 510 1288 q 559 1227 548 1252 q 570 1175 570 1203 q 559 1122 570 1145 q 529 1081 548 1098 q 484 1054 510 1063 q 429 1044 458 1044 q 373 1054 399 1044 q 328 1081 347 1063 q 297 1122 308 1098 q 286 1175 286 1145 m 361 1175 q 367 1147 361 1160 q 381 1126 372 1135 q 402 1112 390 1117 q 429 1107 415 1107 q 455 1112 443 1107 q 475 1125 467 1116 q 489 1146 484 1134 q 494 1175 494 1159 q 490 1203 494 1190 q 477 1225 485 1216 q 455 1239 467 1234 q 429 1244 444 1244 q 402 1239 415 1244 q 380 1224 389 1234 q 366 1203 372 1215 q 361 1175 361 1190 "},"Ǻ":{"ha":833,"x_min":26,"x_max":824,"o":"m 578 216 l 274 216 l 212 0 l 26 0 l 349 987 l 508 987 l 824 0 l 640 0 l 578 216 m 318 368 l 535 368 l 428 745 l 318 368 m 503 1438 l 672 1438 l 500 1303 l 385 1303 l 503 1438 m 298 1152 q 309 1200 298 1177 q 337 1240 319 1223 q 379 1264 355 1255 q 430 1274 403 1274 q 480 1264 456 1274 q 521 1240 503 1255 q 548 1200 538 1223 q 558 1152 558 1177 q 548 1103 558 1125 q 521 1065 538 1080 q 480 1040 503 1048 q 430 1031 456 1031 q 379 1040 403 1031 q 337 1065 355 1049 q 309 1103 319 1081 q 298 1152 298 1125 m 370 1152 q 387 1109 370 1126 q 430 1093 404 1093 q 471 1109 455 1093 q 487 1152 487 1126 q 471 1196 487 1179 q 430 1213 455 1213 q 387 1196 404 1213 q 370 1152 370 1179 "},"Ã":{"ha":833,"x_min":26,"x_max":824,"o":"m 578 216 l 274 216 l 212 0 l 26 0 l 349 987 l 508 987 l 824 0 l 640 0 l 578 216 m 318 368 l 535 368 l 428 745 l 318 368 m 673 1260 q 662 1200 673 1230 q 633 1148 652 1171 q 587 1111 613 1125 q 528 1097 560 1097 q 474 1105 497 1097 q 432 1124 452 1114 q 392 1143 412 1135 q 349 1154 373 1152 q 325 1153 337 1156 q 303 1143 313 1150 q 282 1123 290 1137 q 275 1089 275 1108 l 184 1109 q 195 1168 184 1139 q 224 1221 205 1198 q 270 1258 243 1244 q 329 1273 296 1273 q 380 1263 357 1273 q 427 1243 404 1254 q 471 1222 448 1232 q 520 1213 494 1213 q 545 1218 533 1213 q 566 1233 557 1223 q 578 1254 574 1242 q 583 1281 583 1266 l 673 1260 "},"Ǽ":{"ha":833,"x_min":31,"x_max":801,"o":"m 801 0 l 438 0 l 438 229 l 277 229 l 210 0 l 31 0 l 367 987 l 786 987 l 786 844 l 606 844 l 606 581 l 765 581 l 765 437 l 606 437 l 606 142 l 801 142 l 801 0 m 322 382 l 438 382 l 437 768 l 322 382 m 543 1237 l 739 1237 l 553 1049 l 417 1049 l 543 1237 "},"Ć":{"ha":833,"x_min":58,"x_max":772,"o":"m 771 307 q 738 174 765 233 q 665 73 711 115 q 557 8 620 31 q 419 -14 495 -14 q 307 2 358 -14 q 214 48 255 18 q 147 116 176 77 q 98 204 117 156 q 68 308 78 252 q 58 426 58 364 l 58 560 q 67 672 58 618 q 96 773 77 726 q 150 871 117 828 q 228 945 184 915 q 315 987 267 972 q 420 1002 363 1002 q 562 979 500 1002 q 669 913 625 956 q 739 810 713 871 q 772 673 764 749 l 595 673 q 580 751 591 717 q 548 809 569 785 q 495 845 527 833 q 420 857 464 857 q 371 850 393 857 q 330 831 348 844 q 284 782 303 813 q 254 711 265 751 q 241 642 245 680 q 237 562 237 604 l 237 426 q 243 327 237 372 q 262 247 249 282 q 285 199 271 220 q 317 162 299 177 q 362 138 338 146 q 419 130 387 130 q 490 141 459 130 q 543 174 522 151 q 578 229 565 195 q 594 307 591 262 l 771 307 m 512 1239 l 708 1239 l 522 1051 l 386 1051 l 512 1239 "},"Č":{"ha":833,"x_min":58,"x_max":772,"o":"m 771 307 q 738 174 765 233 q 665 73 711 115 q 557 8 620 31 q 419 -14 495 -14 q 307 2 358 -14 q 214 48 255 18 q 147 116 176 77 q 98 204 117 156 q 68 308 78 252 q 58 426 58 364 l 58 560 q 67 672 58 618 q 96 773 77 726 q 150 871 117 828 q 228 945 184 915 q 315 987 267 972 q 420 1002 363 1002 q 562 979 500 1002 q 669 913 625 956 q 739 810 713 871 q 772 673 764 749 l 595 673 q 580 751 591 717 q 548 809 569 785 q 495 845 527 833 q 420 857 464 857 q 371 850 393 857 q 330 831 348 844 q 284 782 303 813 q 254 711 265 751 q 241 642 245 680 q 237 562 237 604 l 237 426 q 243 327 237 372 q 262 247 249 282 q 285 199 271 220 q 317 162 299 177 q 362 138 338 146 q 419 130 387 130 q 490 141 459 130 q 543 174 522 151 q 578 229 565 195 q 594 307 591 262 l 771 307 m 460 1179 l 561 1267 l 710 1267 l 710 1255 l 515 1084 l 406 1084 l 212 1254 l 212 1267 l 361 1267 l 460 1179 "},"Ç":{"ha":833,"x_min":58,"x_max":772,"o":"m 771 307 q 738 174 765 233 q 665 73 711 115 q 557 8 620 31 q 419 -14 495 -14 q 307 2 358 -14 q 214 48 255 18 q 147 116 176 77 q 98 204 117 156 q 68 308 78 252 q 58 426 58 364 l 58 560 q 67 672 58 618 q 96 773 77 726 q 150 871 117 828 q 228 945 184 915 q 315 987 267 972 q 420 1002 363 1002 q 562 979 500 1002 q 669 913 625 956 q 739 810 713 871 q 772 673 764 749 l 595 673 q 580 751 591 717 q 548 809 569 785 q 495 845 527 833 q 420 857 464 857 q 371 850 393 857 q 330 831 348 844 q 284 782 303 813 q 254 711 265 751 q 241 642 245 680 q 237 562 237 604 l 237 426 q 243 327 237 372 q 262 247 249 282 q 285 199 271 220 q 317 162 299 177 q 362 138 338 146 q 419 130 387 130 q 490 141 459 130 q 543 174 522 151 q 578 229 565 195 q 594 307 591 262 l 771 307 m 487 5 l 479 -32 q 517 -43 498 -35 q 550 -64 536 -51 q 573 -99 564 -79 q 582 -149 582 -120 q 566 -215 582 -186 q 520 -264 551 -244 q 450 -294 492 -283 q 354 -304 408 -304 l 349 -203 q 384 -200 368 -203 q 411 -191 399 -197 q 430 -173 423 -184 q 437 -145 437 -161 q 431 -121 437 -131 q 414 -104 425 -111 q 382 -95 401 -98 q 336 -90 363 -92 l 357 5 l 487 5 "},"Ĉ":{"ha":833,"x_min":58,"x_max":772,"o":"m 771 307 q 738 174 765 233 q 665 73 711 115 q 557 8 620 31 q 419 -14 495 -14 q 307 2 358 -14 q 214 48 255 18 q 147 116 176 77 q 98 204 117 156 q 68 308 78 252 q 58 426 58 364 l 58 560 q 67 672 58 618 q 96 773 77 726 q 150 871 117 828 q 228 945 184 915 q 315 987 267 972 q 420 1002 363 1002 q 562 979 500 1002 q 669 913 625 956 q 739 810 713 871 q 772 673 764 749 l 595 673 q 580 751 591 717 q 548 809 569 785 q 495 845 527 833 q 420 857 464 857 q 371 850 393 857 q 330 831 348 844 q 284 782 303 813 q 254 711 265 751 q 241 642 245 680 q 237 562 237 604 l 237 426 q 243 327 237 372 q 262 247 249 282 q 285 199 271 220 q 317 162 299 177 q 362 138 338 146 q 419 130 387 130 q 490 141 459 130 q 543 174 522 151 q 578 229 565 195 q 594 307 591 262 l 771 307 m 705 1103 l 705 1084 l 564 1084 l 460 1174 l 357 1084 l 219 1084 l 219 1104 l 410 1267 l 512 1267 l 705 1103 "},"Ď":{"ha":833,"x_min":89,"x_max":772,"o":"m 89 0 l 89 987 l 339 987 q 463 972 406 987 q 569 928 521 956 q 651 864 615 902 q 713 780 688 826 q 757 666 742 728 q 772 533 772 604 l 772 453 q 758 325 772 386 q 718 214 744 264 q 656 129 692 168 q 579 63 621 90 q 472 16 531 33 q 347 0 414 0 l 89 0 m 267 844 l 267 142 l 347 142 q 419 152 386 142 q 479 180 452 162 q 530 229 508 199 q 567 296 552 258 q 586 368 579 329 q 593 453 592 408 l 593 534 q 586 617 592 578 q 566 689 579 656 q 525 761 551 729 q 465 812 500 792 q 408 835 439 827 q 339 844 376 844 l 267 844 m 370 1172 l 471 1261 l 620 1261 l 620 1248 l 425 1077 l 315 1077 l 121 1247 l 121 1261 l 271 1261 l 370 1172 "},"Đ":{"ha":833,"x_min":-31,"x_max":783,"o":"m 99 0 l 99 439 l -31 439 l -31 557 l 99 557 l 99 987 l 349 987 q 528 954 448 987 q 665 861 608 920 q 752 716 722 800 q 783 533 783 633 l 783 453 q 752 270 783 353 q 666 127 722 186 q 532 33 610 66 q 357 0 453 0 l 99 0 m 431 439 l 277 439 l 277 142 l 357 142 q 461 164 416 142 q 539 227 507 186 q 586 325 570 267 q 603 453 602 382 l 603 534 q 586 659 602 602 q 539 757 570 715 q 459 821 507 798 q 349 844 412 844 l 277 844 l 277 557 l 431 557 l 431 439 "},"É":{"ha":833,"x_min":104,"x_max":758,"o":"m 689 437 l 282 437 l 282 144 l 758 144 l 758 0 l 104 0 l 104 987 l 755 987 l 755 842 l 282 842 l 282 579 l 689 579 l 689 437 m 484 1232 l 680 1232 l 493 1044 l 357 1044 l 484 1232 "},"Ĕ":{"ha":833,"x_min":104,"x_max":758,"o":"m 689 437 l 282 437 l 282 144 l 758 144 l 758 0 l 104 0 l 104 987 l 755 987 l 755 842 l 282 842 l 282 579 l 689 579 l 689 437 m 657 1255 q 642 1177 657 1213 q 597 1115 626 1141 q 526 1075 568 1089 q 433 1061 484 1061 q 339 1075 380 1061 q 269 1115 297 1089 q 223 1177 239 1141 q 208 1255 208 1213 l 336 1255 q 341 1220 336 1237 q 358 1190 347 1203 q 388 1170 370 1178 q 433 1162 406 1162 q 476 1170 458 1162 q 507 1191 494 1178 q 523 1220 517 1203 q 528 1255 528 1238 l 657 1255 "},"Ě":{"ha":833,"x_min":104,"x_max":758,"o":"m 689 437 l 282 437 l 282 144 l 758 144 l 758 0 l 104 0 l 104 987 l 755 987 l 755 842 l 282 842 l 282 579 l 689 579 l 689 437 m 431 1172 l 532 1261 l 681 1261 l 681 1248 l 486 1077 l 376 1077 l 182 1247 l 182 1261 l 332 1261 l 431 1172 "},"Ê":{"ha":833,"x_min":104,"x_max":758,"o":"m 689 437 l 282 437 l 282 144 l 758 144 l 758 0 l 104 0 l 104 987 l 755 987 l 755 842 l 282 842 l 282 579 l 689 579 l 689 437 m 676 1095 l 676 1076 l 536 1076 l 432 1166 l 329 1076 l 191 1076 l 191 1097 l 381 1259 l 484 1259 l 676 1095 "},"Ë":{"ha":833,"x_min":104,"x_max":758,"o":"m 689 437 l 282 437 l 282 144 l 758 144 l 758 0 l 104 0 l 104 987 l 755 987 l 755 842 l 282 842 l 282 579 l 689 579 l 689 437 m 182 1158 q 206 1216 182 1192 q 270 1240 230 1240 q 334 1216 310 1240 q 358 1158 358 1192 q 334 1100 358 1123 q 270 1076 309 1076 q 206 1100 231 1076 q 182 1158 182 1123 m 500 1158 q 524 1215 500 1192 q 588 1239 548 1239 q 653 1215 629 1239 q 677 1158 677 1192 q 652 1099 677 1122 q 588 1075 628 1075 q 524 1099 549 1075 q 500 1158 500 1122 "},"Ė":{"ha":833,"x_min":104,"x_max":758,"o":"m 689 437 l 282 437 l 282 144 l 758 144 l 758 0 l 104 0 l 104 987 l 755 987 l 755 842 l 282 842 l 282 579 l 689 579 l 689 437 m 334 1164 q 359 1229 334 1203 q 431 1255 385 1255 q 502 1229 476 1255 q 528 1164 528 1203 q 502 1099 528 1125 q 431 1074 476 1074 q 359 1099 385 1074 q 334 1164 334 1125 "},"È":{"ha":833,"x_min":104,"x_max":758,"o":"m 689 437 l 282 437 l 282 144 l 758 144 l 758 0 l 104 0 l 104 987 l 755 987 l 755 842 l 282 842 l 282 579 l 689 579 l 689 437 m 504 1046 l 365 1046 l 189 1234 l 384 1234 l 504 1046 "},"Ē":{"ha":833,"x_min":104,"x_max":758,"o":"m 689 437 l 282 437 l 282 144 l 758 144 l 758 0 l 104 0 l 104 987 l 755 987 l 755 842 l 282 842 l 282 579 l 689 579 l 689 437 m 680 1094 l 188 1094 l 188 1202 l 680 1202 l 680 1094 "},"Ŋ":{"ha":833,"x_min":104,"x_max":736,"o":"m 736 987 l 736 -33 q 720 -146 736 -97 q 671 -228 703 -195 q 593 -279 639 -262 q 490 -296 548 -296 q 445 -294 465 -296 q 399 -285 424 -292 l 409 -145 q 441 -151 423 -149 q 475 -153 459 -153 q 506 -147 492 -153 q 530 -131 519 -142 q 552 -91 545 -115 q 559 -33 559 -67 l 559 0 l 281 624 l 281 0 l 104 0 l 104 987 l 281 987 l 282 985 l 559 363 l 559 987 l 736 987 "},"Ę":{"ha":833,"x_min":104,"x_max":758,"o":"m 689 437 l 282 437 l 282 144 l 758 144 l 758 0 l 679 0 q 629 -26 650 -12 q 596 -55 609 -40 q 576 -89 583 -71 q 570 -127 570 -107 q 581 -160 570 -147 q 618 -174 592 -174 q 652 -169 637 -174 q 676 -159 667 -163 l 706 -259 q 657 -279 687 -269 q 581 -289 627 -289 q 524 -280 551 -289 q 477 -254 497 -271 q 446 -211 458 -236 q 435 -151 435 -185 q 442 -104 435 -127 q 464 -59 450 -81 q 489 -28 475 -43 q 519 0 503 -14 l 104 0 l 104 987 l 755 987 l 755 842 l 282 842 l 282 579 l 689 579 l 689 437 "},"Ð":{"ha":833,"x_min":-31,"x_max":783,"o":"m 99 0 l 99 439 l -31 439 l -31 557 l 99 557 l 99 987 l 349 987 q 528 954 448 987 q 665 861 608 920 q 752 716 722 800 q 783 533 783 633 l 783 453 q 752 270 783 353 q 666 127 722 186 q 532 33 610 66 q 357 0 453 0 l 99 0 m 431 439 l 277 439 l 277 142 l 357 142 q 461 164 416 142 q 539 227 507 186 q 586 325 570 267 q 603 453 602 382 l 603 534 q 586 659 602 602 q 539 757 570 715 q 459 821 507 798 q 349 844 412 844 l 277 844 l 277 557 l 431 557 l 431 439 "},"Ğ":{"ha":833,"x_min":61,"x_max":766,"o":"m 766 118 q 715 72 746 95 q 645 31 685 50 q 546 -2 600 10 q 429 -14 491 -14 q 325 0 374 -14 q 237 39 277 14 q 165 102 197 65 q 111 185 133 139 q 74 297 86 235 q 61 428 61 358 l 61 558 q 73 685 61 625 q 108 794 85 744 q 159 876 130 840 q 224 940 188 913 q 314 985 265 970 q 420 1001 363 1001 q 561 980 500 1001 q 665 920 623 959 q 733 823 708 880 q 764 695 758 766 l 592 695 q 575 762 587 732 q 546 812 564 791 q 495 845 526 834 q 423 857 465 857 q 373 848 397 857 q 331 824 350 840 q 289 775 307 805 q 259 707 271 745 q 244 638 249 675 q 239 559 239 601 l 239 428 q 246 335 239 378 q 266 257 253 292 q 287 213 275 233 q 315 177 299 193 q 368 143 338 155 q 436 130 398 131 q 482 133 459 130 q 526 143 505 136 q 563 158 547 149 q 589 179 579 168 l 589 367 l 418 367 l 418 502 l 764 502 l 766 118 m 667 1263 q 651 1184 667 1220 q 606 1122 635 1148 q 535 1082 577 1097 q 442 1068 494 1068 q 348 1082 390 1068 q 278 1122 307 1097 q 233 1184 248 1148 q 217 1263 217 1220 l 345 1263 q 351 1227 345 1244 q 368 1198 356 1211 q 397 1178 379 1185 q 442 1170 416 1170 q 486 1178 468 1170 q 516 1198 504 1185 q 532 1228 527 1211 q 538 1263 538 1245 l 667 1263 "},"Ĝ":{"ha":833,"x_min":61,"x_max":766,"o":"m 766 118 q 715 72 746 95 q 645 31 685 50 q 546 -2 600 10 q 429 -14 491 -14 q 325 0 374 -14 q 237 39 277 14 q 165 102 197 65 q 111 185 133 139 q 74 297 86 235 q 61 428 61 358 l 61 558 q 73 685 61 625 q 108 794 85 744 q 159 876 130 840 q 224 940 188 913 q 314 985 265 970 q 420 1001 363 1001 q 561 980 500 1001 q 665 920 623 959 q 733 823 708 880 q 764 695 758 766 l 592 695 q 575 762 587 732 q 546 812 564 791 q 495 845 526 834 q 423 857 465 857 q 373 848 397 857 q 331 824 350 840 q 289 775 307 805 q 259 707 271 745 q 244 638 249 675 q 239 559 239 601 l 239 428 q 246 335 239 378 q 266 257 253 292 q 287 213 275 233 q 315 177 299 193 q 368 143 338 155 q 436 130 398 131 q 482 133 459 130 q 526 143 505 136 q 563 158 547 149 q 589 179 579 168 l 589 367 l 418 367 l 418 502 l 764 502 l 766 118 m 686 1103 l 686 1084 l 545 1084 l 441 1174 l 338 1084 l 200 1084 l 200 1104 l 391 1267 l 493 1267 l 686 1103 "},"Ģ":{"ha":833,"x_min":61,"x_max":766,"o":"m 766 118 q 715 72 746 95 q 645 31 685 50 q 546 -2 600 10 q 429 -14 491 -14 q 325 0 374 -14 q 237 39 277 14 q 165 102 197 65 q 111 185 133 139 q 74 297 86 235 q 61 428 61 358 l 61 558 q 73 685 61 625 q 108 794 85 744 q 159 876 130 840 q 224 940 188 913 q 314 985 265 970 q 420 1001 363 1001 q 561 980 500 1001 q 665 920 623 959 q 733 823 708 880 q 764 695 758 766 l 592 695 q 575 762 587 732 q 546 812 564 791 q 495 845 526 834 q 423 857 465 857 q 373 848 397 857 q 331 824 350 840 q 289 775 307 805 q 259 707 271 745 q 244 638 249 675 q 239 559 239 601 l 239 428 q 246 335 239 378 q 266 257 253 292 q 287 213 275 233 q 315 177 299 193 q 368 143 338 155 q 436 130 398 131 q 482 133 459 130 q 526 143 505 136 q 563 158 547 149 q 589 179 579 168 l 589 367 l 418 367 l 418 502 l 764 502 l 766 118 m 513 -95 q 488 -220 513 -155 q 412 -330 463 -285 l 336 -279 q 374 -192 361 -236 q 387 -97 387 -148 l 387 -47 l 513 -47 l 513 -95 "},"Ħ":{"ha":833,"x_min":16,"x_max":837,"o":"m 712 819 l 837 819 l 837 707 l 712 707 l 712 0 l 538 0 l 538 434 l 233 434 l 233 0 l 58 0 l 58 707 l 16 707 l 16 819 l 58 819 l 58 987 l 233 987 l 233 819 l 538 819 l 538 987 l 712 987 l 712 819 m 233 578 l 538 578 l 538 707 l 233 707 l 233 578 "},"Ĥ":{"ha":833,"x_min":86,"x_max":740,"o":"m 740 0 l 566 0 l 566 434 l 260 434 l 260 0 l 86 0 l 86 987 l 260 987 l 260 578 l 566 578 l 566 987 l 740 987 l 740 0 m 655 1095 l 655 1076 l 515 1076 l 411 1166 l 308 1076 l 170 1076 l 170 1097 l 360 1259 l 463 1259 l 655 1095 "},"Í":{"ha":833,"x_min":128,"x_max":705,"o":"m 128 987 l 705 987 l 705 843 l 503 843 l 503 144 l 705 144 l 705 0 l 128 0 l 128 144 l 325 144 l 325 843 l 128 843 l 128 987 m 454 1237 l 650 1237 l 463 1049 l 328 1049 l 454 1237 "},"Ĭ":{"ha":833,"x_min":128,"x_max":705,"o":"m 128 987 l 705 987 l 705 843 l 503 843 l 503 144 l 705 144 l 705 0 l 128 0 l 128 144 l 325 144 l 325 843 l 128 843 l 128 987 m 628 1261 q 612 1182 628 1218 q 568 1120 597 1146 q 497 1080 538 1095 q 404 1066 455 1066 q 310 1080 351 1066 q 239 1120 268 1095 q 194 1182 210 1146 q 178 1261 178 1218 l 307 1261 q 312 1225 307 1242 q 329 1196 317 1208 q 359 1176 340 1183 q 404 1168 377 1168 q 447 1176 429 1168 q 477 1196 465 1183 q 494 1226 488 1208 q 499 1261 499 1243 l 628 1261 "},"Î":{"ha":833,"x_min":128,"x_max":705,"o":"m 128 987 l 705 987 l 705 843 l 503 843 l 503 144 l 705 144 l 705 0 l 128 0 l 128 144 l 325 144 l 325 843 l 128 843 l 128 987 m 646 1101 l 646 1082 l 506 1082 l 402 1172 l 299 1082 l 161 1082 l 161 1102 l 351 1265 l 454 1265 l 646 1101 "},"Ï":{"ha":833,"x_min":128,"x_max":705,"o":"m 128 987 l 705 987 l 705 843 l 503 843 l 503 144 l 705 144 l 705 0 l 128 0 l 128 144 l 325 144 l 325 843 l 128 843 l 128 987 m 152 1163 q 176 1221 152 1198 q 240 1245 200 1245 q 304 1221 280 1245 q 328 1163 328 1198 q 304 1105 328 1128 q 240 1082 279 1082 q 176 1105 201 1082 q 152 1163 152 1128 m 470 1163 q 494 1221 470 1197 q 558 1244 518 1244 q 623 1221 599 1244 q 647 1163 647 1197 q 623 1104 647 1128 q 558 1080 598 1080 q 494 1104 519 1080 q 470 1163 470 1128 "},"İ":{"ha":833,"x_min":128,"x_max":705,"o":"m 128 987 l 705 987 l 705 843 l 503 843 l 503 144 l 705 144 l 705 0 l 128 0 l 128 144 l 325 144 l 325 843 l 128 843 l 128 987 m 304 1168 q 330 1234 304 1208 q 401 1259 356 1259 q 473 1234 447 1259 q 498 1168 498 1208 q 473 1104 498 1130 q 401 1078 447 1078 q 330 1104 356 1078 q 304 1168 304 1130 "},"Ì":{"ha":833,"x_min":128,"x_max":705,"o":"m 128 987 l 705 987 l 705 843 l 503 843 l 503 144 l 705 144 l 705 0 l 128 0 l 128 144 l 325 144 l 325 843 l 128 843 l 128 987 m 474 1051 l 335 1051 l 159 1239 l 354 1239 l 474 1051 "},"Ī":{"ha":833,"x_min":128,"x_max":705,"o":"m 128 987 l 705 987 l 705 843 l 503 843 l 503 144 l 705 144 l 705 0 l 128 0 l 128 144 l 325 144 l 325 843 l 128 843 l 128 987 m 651 1099 l 159 1099 l 159 1207 l 651 1207 l 651 1099 "},"Į":{"ha":833,"x_min":128,"x_max":705,"o":"m 128 987 l 705 987 l 705 843 l 503 843 l 503 144 l 705 144 l 705 0 l 525 0 q 476 -26 496 -12 q 443 -55 456 -39 q 423 -89 429 -71 q 416 -127 416 -107 q 427 -160 416 -147 q 464 -174 438 -174 q 498 -169 484 -174 q 523 -159 513 -163 l 552 -259 q 503 -279 533 -269 q 427 -289 473 -289 q 370 -280 397 -289 q 323 -254 343 -271 q 292 -211 304 -236 q 281 -151 281 -185 q 289 -103 281 -127 q 312 -57 296 -79 q 335 -28 322 -42 q 365 0 349 -14 l 128 0 l 128 144 l 325 144 l 325 843 l 128 843 l 128 987 "},"Ĩ":{"ha":833,"x_min":128,"x_max":705,"o":"m 128 987 l 705 987 l 705 843 l 503 843 l 503 144 l 705 144 l 705 0 l 128 0 l 128 144 l 325 144 l 325 843 l 128 843 l 128 987 m 646 1260 q 636 1200 646 1230 q 606 1148 625 1171 q 560 1111 587 1125 q 501 1097 534 1097 q 448 1105 471 1097 q 406 1124 425 1114 q 366 1143 385 1135 q 323 1154 347 1152 q 299 1153 311 1156 q 277 1143 287 1150 q 256 1123 264 1137 q 248 1089 248 1108 l 158 1109 q 169 1168 158 1139 q 198 1221 179 1198 q 243 1258 217 1244 q 302 1273 270 1273 q 354 1263 330 1273 q 400 1243 377 1254 q 445 1222 422 1232 q 494 1213 468 1213 q 519 1218 507 1213 q 539 1233 531 1223 q 552 1254 547 1242 q 556 1281 556 1266 l 646 1260 "},"Ĵ":{"ha":833,"x_min":73,"x_max":898,"o":"m 560 987 l 738 987 l 739 302 q 711 175 737 233 q 641 75 686 117 q 535 9 596 33 q 405 -14 475 -14 q 271 6 331 -14 q 168 64 211 25 q 100 158 124 101 q 73 290 75 214 l 252 290 q 260 224 252 253 q 285 176 269 196 q 334 142 304 153 q 405 130 363 130 q 469 143 439 130 q 517 180 498 157 q 549 235 538 203 q 560 302 560 267 l 560 987 m 898 1092 l 898 1073 l 758 1073 l 654 1163 l 551 1073 l 412 1073 l 412 1093 l 603 1256 l 705 1256 l 898 1092 "},"Ķ":{"ha":833,"x_min":94,"x_max":844,"o":"m 377 416 l 272 300 l 272 0 l 94 0 l 94 987 l 272 987 l 272 529 l 362 649 l 613 987 l 829 987 l 494 551 l 844 0 l 633 0 l 377 416 m 486 -97 q 461 -222 486 -157 q 385 -332 436 -287 l 309 -281 q 347 -194 334 -238 q 359 -99 359 -150 l 359 -50 l 486 -50 l 486 -97 "},"Ĺ":{"ha":833,"x_min":109,"x_max":753,"o":"m 286 144 l 753 144 l 753 0 l 109 0 l 109 987 l 286 987 l 286 144 m 252 1217 l 448 1217 l 261 1029 l 125 1029 l 252 1217 "},"Ľ":{"ha":833,"x_min":109,"x_max":753,"o":"m 286 144 l 753 144 l 753 0 l 109 0 l 109 987 l 286 987 l 286 144 m 691 874 q 682 804 691 840 q 656 732 673 767 q 617 666 640 697 q 568 610 595 635 l 486 663 q 529 759 513 708 q 545 873 545 810 l 545 988 l 691 988 l 691 874 "},"Ļ":{"ha":833,"x_min":109,"x_max":753,"o":"m 286 144 l 753 144 l 753 0 l 109 0 l 109 987 l 286 987 l 286 144 m 489 -85 q 464 -210 489 -145 q 387 -320 439 -275 l 311 -269 q 350 -182 337 -227 q 362 -87 362 -138 l 362 -38 l 489 -38 l 489 -85 "},"Ŀ":{"ha":833,"x_min":109,"x_max":753,"o":"m 286 144 l 753 144 l 753 0 l 109 0 l 109 987 l 286 987 l 286 144 m 416 549 q 442 614 416 589 q 513 640 468 640 q 585 614 559 640 q 610 549 610 589 q 585 485 610 511 q 513 459 559 459 q 442 485 468 459 q 416 549 416 511 "},"Ł":{"ha":833,"x_min":35,"x_max":769,"o":"m 302 595 l 464 644 l 464 515 l 302 467 l 302 144 l 769 144 l 769 0 l 125 0 l 125 415 l 35 389 l 35 517 l 125 543 l 125 987 l 302 987 l 302 595 "},"Ń":{"ha":833,"x_min":86,"x_max":739,"o":"m 739 0 l 562 0 l 265 658 l 264 0 l 86 0 l 86 987 l 264 987 l 560 332 l 562 987 l 739 987 l 739 0 m 464 1237 l 660 1237 l 473 1049 l 338 1049 l 464 1237 "},"Ň":{"ha":833,"x_min":86,"x_max":739,"o":"m 739 0 l 562 0 l 265 658 l 264 0 l 86 0 l 86 987 l 264 987 l 560 332 l 562 987 l 739 987 l 739 0 m 412 1177 l 513 1265 l 662 1265 l 662 1253 l 467 1082 l 357 1082 l 163 1252 l 163 1265 l 313 1265 l 412 1177 "},"Ņ":{"ha":833,"x_min":86,"x_max":739,"o":"m 739 0 l 562 0 l 265 658 l 264 0 l 86 0 l 86 987 l 264 987 l 560 332 l 562 987 l 739 987 l 739 0 m 482 -90 q 457 -214 482 -149 q 380 -324 432 -279 l 304 -273 q 343 -186 330 -231 q 355 -92 355 -142 l 355 -42 l 482 -42 l 482 -90 "},"Ñ":{"ha":833,"x_min":86,"x_max":739,"o":"m 739 0 l 562 0 l 265 658 l 264 0 l 86 0 l 86 987 l 264 987 l 560 332 l 562 987 l 739 987 l 739 0 m 656 1260 q 646 1200 656 1230 q 616 1148 635 1171 q 570 1111 597 1125 q 511 1097 544 1097 q 458 1105 481 1097 q 416 1124 435 1114 q 376 1143 395 1135 q 333 1154 357 1152 q 309 1153 321 1156 q 287 1143 297 1150 q 266 1123 274 1137 q 258 1089 258 1108 l 168 1109 q 179 1168 168 1139 q 208 1221 189 1198 q 254 1258 227 1244 q 313 1273 280 1273 q 364 1263 340 1273 q 410 1243 387 1254 q 455 1222 432 1232 q 504 1213 478 1213 q 529 1218 517 1213 q 549 1233 541 1223 q 562 1254 557 1242 q 566 1281 566 1266 l 656 1260 "},"Ó":{"ha":833,"x_min":58,"x_max":774,"o":"m 774 425 q 763 306 774 363 q 731 201 752 250 q 677 110 709 151 q 602 41 644 69 q 515 1 563 15 q 412 -14 468 -14 q 305 2 354 -14 q 216 46 256 18 q 147 116 178 75 q 96 208 117 157 q 68 310 77 256 q 58 425 58 365 l 58 562 q 69 682 58 624 q 100 789 79 739 q 150 875 121 836 q 219 943 180 914 q 306 986 258 970 q 412 1001 354 1001 q 519 985 469 1001 q 608 942 569 970 q 677 877 648 915 q 728 793 707 838 q 762 684 751 743 q 774 562 774 626 l 774 425 m 595 563 q 592 635 595 600 q 579 702 588 671 q 552 768 569 739 q 512 819 536 798 q 468 843 492 834 q 412 852 443 852 q 357 844 381 852 q 315 820 334 836 q 276 770 292 800 q 251 702 260 740 q 240 635 243 671 q 237 563 237 600 l 237 425 q 240 354 237 389 q 250 290 243 320 q 273 223 258 254 q 309 172 288 192 q 354 144 328 154 q 412 134 379 134 q 470 143 444 134 q 515 171 496 153 q 554 221 538 191 q 580 288 570 251 q 592 353 588 318 q 595 425 595 388 l 595 563 m 471 1251 l 667 1251 l 480 1063 l 345 1063 l 471 1251 "},"Ŏ":{"ha":833,"x_min":58,"x_max":774,"o":"m 774 425 q 763 306 774 363 q 731 201 752 250 q 677 110 709 151 q 602 41 644 69 q 515 1 563 15 q 412 -14 468 -14 q 305 2 354 -14 q 216 46 256 18 q 147 116 178 75 q 96 208 117 157 q 68 310 77 256 q 58 425 58 365 l 58 562 q 69 682 58 624 q 100 789 79 739 q 150 875 121 836 q 219 943 180 914 q 306 986 258 970 q 412 1001 354 1001 q 519 985 469 1001 q 608 942 569 970 q 677 877 648 915 q 728 793 707 838 q 762 684 751 743 q 774 562 774 626 l 774 425 m 595 563 q 592 635 595 600 q 579 702 588 671 q 552 768 569 739 q 512 819 536 798 q 468 843 492 834 q 412 852 443 852 q 357 844 381 852 q 315 820 334 836 q 276 770 292 800 q 251 702 260 740 q 240 635 243 671 q 237 563 237 600 l 237 425 q 240 354 237 389 q 250 290 243 320 q 273 223 258 254 q 309 172 288 192 q 354 144 328 154 q 412 134 379 134 q 470 143 444 134 q 515 171 496 153 q 554 221 538 191 q 580 288 570 251 q 592 353 588 318 q 595 425 595 388 l 595 563 m 646 1275 q 630 1196 646 1232 q 585 1135 614 1160 q 514 1095 556 1109 q 421 1080 473 1080 q 327 1095 369 1080 q 257 1135 286 1109 q 212 1196 227 1160 q 196 1275 196 1232 l 324 1275 q 330 1240 324 1257 q 347 1210 335 1223 q 376 1190 358 1198 q 421 1182 395 1182 q 465 1190 447 1182 q 495 1211 483 1198 q 511 1240 506 1223 q 517 1275 517 1257 l 646 1275 "},"Ô":{"ha":833,"x_min":58,"x_max":774,"o":"m 774 425 q 763 306 774 363 q 731 201 752 250 q 677 110 709 151 q 602 41 644 69 q 515 1 563 15 q 412 -14 468 -14 q 305 2 354 -14 q 216 46 256 18 q 147 116 178 75 q 96 208 117 157 q 68 310 77 256 q 58 425 58 365 l 58 562 q 69 682 58 624 q 100 789 79 739 q 150 875 121 836 q 219 943 180 914 q 306 986 258 970 q 412 1001 354 1001 q 519 985 469 1001 q 608 942 569 970 q 677 877 648 915 q 728 793 707 838 q 762 684 751 743 q 774 562 774 626 l 774 425 m 595 563 q 592 635 595 600 q 579 702 588 671 q 552 768 569 739 q 512 819 536 798 q 468 843 492 834 q 412 852 443 852 q 357 844 381 852 q 315 820 334 836 q 276 770 292 800 q 251 702 260 740 q 240 635 243 671 q 237 563 237 600 l 237 425 q 240 354 237 389 q 250 290 243 320 q 273 223 258 254 q 309 172 288 192 q 354 144 328 154 q 412 134 379 134 q 470 143 444 134 q 515 171 496 153 q 554 221 538 191 q 580 288 570 251 q 592 353 588 318 q 595 425 595 388 l 595 563 m 664 1115 l 664 1096 l 524 1096 l 420 1186 l 317 1096 l 178 1096 l 178 1116 l 369 1279 l 471 1279 l 664 1115 "},"Ö":{"ha":833,"x_min":58,"x_max":774,"o":"m 774 425 q 763 306 774 363 q 731 201 752 250 q 677 110 709 151 q 602 41 644 69 q 515 1 563 15 q 412 -14 468 -14 q 305 2 354 -14 q 216 46 256 18 q 147 116 178 75 q 96 208 117 157 q 68 310 77 256 q 58 425 58 365 l 58 562 q 69 682 58 624 q 100 789 79 739 q 150 875 121 836 q 219 943 180 914 q 306 986 258 970 q 412 1001 354 1001 q 519 985 469 1001 q 608 942 569 970 q 677 877 648 915 q 728 793 707 838 q 762 684 751 743 q 774 562 774 626 l 774 425 m 595 563 q 592 635 595 600 q 579 702 588 671 q 552 768 569 739 q 512 819 536 798 q 468 843 492 834 q 412 852 443 852 q 357 844 381 852 q 315 820 334 836 q 276 770 292 800 q 251 702 260 740 q 240 635 243 671 q 237 563 237 600 l 237 425 q 240 354 237 389 q 250 290 243 320 q 273 223 258 254 q 309 172 288 192 q 354 144 328 154 q 412 134 379 134 q 470 143 444 134 q 515 171 496 153 q 554 221 538 191 q 580 288 570 251 q 592 353 588 318 q 595 425 595 388 l 595 563 m 169 1177 q 193 1236 169 1212 q 257 1259 217 1259 q 321 1236 297 1259 q 345 1177 345 1212 q 321 1119 345 1143 q 257 1096 296 1096 q 193 1119 218 1096 q 169 1177 169 1143 m 487 1177 q 511 1235 487 1211 q 575 1259 535 1259 q 640 1235 616 1259 q 664 1177 664 1211 q 640 1118 664 1142 q 575 1095 615 1095 q 511 1118 536 1095 q 487 1177 487 1142 "},"Ò":{"ha":833,"x_min":58,"x_max":774,"o":"m 774 425 q 763 306 774 363 q 731 201 752 250 q 677 110 709 151 q 602 41 644 69 q 515 1 563 15 q 412 -14 468 -14 q 305 2 354 -14 q 216 46 256 18 q 147 116 178 75 q 96 208 117 157 q 68 310 77 256 q 58 425 58 365 l 58 562 q 69 682 58 624 q 100 789 79 739 q 150 875 121 836 q 219 943 180 914 q 306 986 258 970 q 412 1001 354 1001 q 519 985 469 1001 q 608 942 569 970 q 677 877 648 915 q 728 793 707 838 q 762 684 751 743 q 774 562 774 626 l 774 425 m 595 563 q 592 635 595 600 q 579 702 588 671 q 552 768 569 739 q 512 819 536 798 q 468 843 492 834 q 412 852 443 852 q 357 844 381 852 q 315 820 334 836 q 276 770 292 800 q 251 702 260 740 q 240 635 243 671 q 237 563 237 600 l 237 425 q 240 354 237 389 q 250 290 243 320 q 273 223 258 254 q 309 172 288 192 q 354 144 328 154 q 412 134 379 134 q 470 143 444 134 q 515 171 496 153 q 554 221 538 191 q 580 288 570 251 q 592 353 588 318 q 595 425 595 388 l 595 563 m 492 1065 l 353 1065 l 176 1253 l 372 1253 l 492 1065 "},"Ơ":{"ha":833,"x_min":64,"x_max":843,"o":"m 780 425 q 756 252 780 332 q 686 113 732 172 q 572 20 639 54 q 418 -14 505 -14 q 265 20 332 -14 q 155 115 199 54 q 87 253 111 174 q 64 425 64 333 l 64 562 q 89 739 64 656 q 161 882 113 822 q 269 969 205 937 q 417 1001 334 1001 q 502 992 463 1001 q 576 965 542 983 q 628 932 604 951 q 673 889 652 912 q 691 910 684 897 q 704 939 699 922 q 712 977 709 956 q 715 1023 715 998 l 842 1023 q 836 944 843 980 q 814 880 828 908 q 780 830 800 851 q 733 795 760 808 q 768 685 757 743 q 780 562 780 626 l 780 425 m 602 563 q 591 679 602 625 q 556 772 580 733 q 500 831 534 810 q 417 852 466 852 q 338 832 370 852 q 285 774 305 811 q 252 679 262 734 q 243 563 243 624 l 243 425 q 252 311 243 365 q 282 216 261 257 q 336 156 302 178 q 418 134 369 134 q 502 156 467 134 q 559 218 537 179 q 591 311 581 257 q 602 425 601 365 l 602 563 "},"Ő":{"ha":833,"x_min":58,"x_max":792,"o":"m 774 425 q 763 306 774 363 q 731 201 752 250 q 677 110 709 151 q 602 41 644 69 q 515 1 563 15 q 412 -14 468 -14 q 305 2 354 -14 q 216 46 256 18 q 147 116 178 75 q 96 208 117 157 q 68 310 77 256 q 58 425 58 365 l 58 562 q 69 682 58 624 q 100 789 79 739 q 150 875 121 836 q 219 943 180 914 q 306 986 258 970 q 412 1001 354 1001 q 519 985 469 1001 q 608 942 569 970 q 677 877 648 915 q 728 793 707 838 q 762 684 751 743 q 774 562 774 626 l 774 425 m 595 563 q 592 635 595 600 q 579 702 588 671 q 552 768 569 739 q 512 819 536 798 q 468 843 492 834 q 412 852 443 852 q 357 844 381 852 q 315 820 334 836 q 276 770 292 800 q 251 702 260 740 q 240 635 243 671 q 237 563 237 600 l 237 425 q 240 354 237 389 q 250 290 243 320 q 273 223 258 254 q 309 172 288 192 q 354 144 328 154 q 412 134 379 134 q 470 143 444 134 q 515 171 496 153 q 554 221 538 191 q 580 288 570 251 q 592 353 588 318 q 595 425 595 388 l 595 563 m 614 1280 l 792 1280 l 585 1100 l 447 1100 l 614 1280 m 371 1280 l 541 1280 l 368 1100 l 236 1100 l 371 1280 "},"Ō":{"ha":833,"x_min":58,"x_max":774,"o":"m 774 425 q 763 306 774 363 q 731 201 752 250 q 677 110 709 151 q 602 41 644 69 q 515 1 563 15 q 412 -14 468 -14 q 305 2 354 -14 q 216 46 256 18 q 147 116 178 75 q 96 208 117 157 q 68 310 77 256 q 58 425 58 365 l 58 562 q 69 682 58 624 q 100 789 79 739 q 150 875 121 836 q 219 943 180 914 q 306 986 258 970 q 412 1001 354 1001 q 519 985 469 1001 q 608 942 569 970 q 677 877 648 915 q 728 793 707 838 q 762 684 751 743 q 774 562 774 626 l 774 425 m 595 563 q 592 635 595 600 q 579 702 588 671 q 552 768 569 739 q 512 819 536 798 q 468 843 492 834 q 412 852 443 852 q 357 844 381 852 q 315 820 334 836 q 276 770 292 800 q 251 702 260 740 q 240 635 243 671 q 237 563 237 600 l 237 425 q 240 354 237 389 q 250 290 243 320 q 273 223 258 254 q 309 172 288 192 q 354 144 328 154 q 412 134 379 134 q 470 143 444 134 q 515 171 496 153 q 554 221 538 191 q 580 288 570 251 q 592 353 588 318 q 595 425 595 388 l 595 563 m 668 1113 l 176 1113 l 176 1221 l 668 1221 l 668 1113 "},"Ø":{"ha":833,"x_min":36,"x_max":778,"o":"m 776 425 q 751 251 776 332 q 679 110 726 170 q 566 19 633 52 q 414 -14 499 -14 q 306 2 355 -14 q 218 47 258 18 l 154 -64 l 36 -64 l 142 123 q 106 187 122 153 q 80 258 91 221 q 65 338 70 296 q 60 425 60 380 l 60 562 q 83 735 60 654 q 151 876 106 816 q 261 967 196 933 q 413 1001 327 1001 q 475 996 446 1001 q 532 981 505 991 q 572 964 553 974 q 609 941 591 954 l 659 1029 l 778 1029 l 686 867 q 753 730 730 808 q 776 562 776 652 l 776 425 m 238 425 q 239 390 238 407 q 242 355 240 372 q 246 334 244 345 q 250 312 248 323 l 530 802 q 508 823 519 814 q 481 838 496 832 q 450 849 467 845 q 413 852 433 852 q 330 830 363 852 q 277 769 297 807 q 247 675 256 729 q 238 563 238 622 l 238 425 m 597 563 q 594 627 597 595 q 583 688 591 659 l 297 186 q 347 148 318 161 q 414 134 375 134 q 495 155 461 134 q 551 213 529 176 q 586 309 575 254 q 597 425 597 363 l 597 563 "},"Ǿ":{"ha":833,"x_min":36,"x_max":778,"o":"m 776 425 q 751 251 776 332 q 679 110 726 170 q 566 19 633 52 q 414 -14 499 -14 q 306 2 355 -14 q 218 47 258 18 l 154 -64 l 36 -64 l 142 123 q 106 187 122 153 q 80 258 91 221 q 65 338 70 296 q 60 425 60 380 l 60 562 q 83 735 60 654 q 151 876 106 816 q 261 967 196 933 q 413 1001 327 1001 q 475 996 446 1001 q 532 981 505 991 q 572 964 553 974 q 609 941 591 954 l 659 1029 l 778 1029 l 686 867 q 753 730 730 808 q 776 562 776 652 l 776 425 m 238 425 q 239 390 238 407 q 242 355 240 372 q 246 334 244 345 q 250 312 248 323 l 530 802 q 508 823 519 814 q 481 838 496 832 q 450 849 467 845 q 413 852 433 852 q 330 830 363 852 q 277 769 297 807 q 247 675 256 729 q 238 563 238 622 l 238 425 m 597 563 q 594 627 597 595 q 583 688 591 659 l 297 186 q 347 148 318 161 q 414 134 375 134 q 495 155 461 134 q 551 213 529 176 q 586 309 575 254 q 597 425 597 363 l 597 563 m 469 1279 l 665 1279 l 478 1091 l 342 1091 l 469 1279 "},"Õ":{"ha":833,"x_min":58,"x_max":774,"o":"m 774 425 q 763 306 774 363 q 731 201 752 250 q 677 110 709 151 q 602 41 644 69 q 515 1 563 15 q 412 -14 468 -14 q 305 2 354 -14 q 216 46 256 18 q 147 116 178 75 q 96 208 117 157 q 68 310 77 256 q 58 425 58 365 l 58 562 q 69 682 58 624 q 100 789 79 739 q 150 875 121 836 q 219 943 180 914 q 306 986 258 970 q 412 1001 354 1001 q 519 985 469 1001 q 608 942 569 970 q 677 877 648 915 q 728 793 707 838 q 762 684 751 743 q 774 562 774 626 l 774 425 m 595 563 q 592 635 595 600 q 579 702 588 671 q 552 768 569 739 q 512 819 536 798 q 468 843 492 834 q 412 852 443 852 q 357 844 381 852 q 315 820 334 836 q 276 770 292 800 q 251 702 260 740 q 240 635 243 671 q 237 563 237 600 l 237 425 q 240 354 237 389 q 250 290 243 320 q 273 223 258 254 q 309 172 288 192 q 354 144 328 154 q 412 134 379 134 q 470 143 444 134 q 515 171 496 153 q 554 221 538 191 q 580 288 570 251 q 592 353 588 318 q 595 425 595 388 l 595 563 m 664 1274 q 653 1214 664 1244 q 624 1162 643 1185 q 578 1125 604 1139 q 519 1112 551 1112 q 466 1120 488 1112 q 423 1139 443 1128 q 384 1158 403 1149 q 340 1168 364 1166 q 316 1167 328 1170 q 294 1158 304 1164 q 274 1137 281 1152 q 266 1103 266 1122 l 176 1123 q 186 1182 176 1153 q 216 1235 197 1212 q 261 1273 235 1258 q 320 1287 288 1287 q 371 1278 348 1287 q 418 1257 395 1268 q 463 1236 439 1246 q 511 1227 486 1227 q 536 1232 524 1227 q 557 1247 549 1238 q 569 1268 565 1256 q 574 1295 574 1280 l 664 1274 "},"Ŕ":{"ha":833,"x_min":96,"x_max":805,"o":"m 429 376 l 273 376 l 273 0 l 96 0 l 96 987 l 418 987 q 563 968 498 987 q 675 911 628 949 q 748 819 722 875 q 773 690 773 764 q 760 596 773 638 q 724 522 747 554 q 667 463 700 488 q 593 419 634 437 l 805 9 l 805 0 l 616 0 l 429 376 m 273 520 l 420 520 q 497 533 463 520 q 555 569 532 545 q 585 617 574 589 q 595 680 595 645 q 583 752 595 721 q 546 804 570 784 q 491 833 523 823 q 418 844 459 844 l 273 844 l 273 520 m 457 1229 l 653 1229 l 467 1041 l 331 1041 l 457 1229 "},"Ř":{"ha":833,"x_min":96,"x_max":805,"o":"m 429 376 l 273 376 l 273 0 l 96 0 l 96 987 l 418 987 q 563 968 498 987 q 675 911 628 949 q 748 819 722 875 q 773 690 773 764 q 760 596 773 638 q 724 522 747 554 q 667 463 700 488 q 593 419 634 437 l 805 9 l 805 0 l 616 0 l 429 376 m 273 520 l 420 520 q 497 533 463 520 q 555 569 532 545 q 585 617 574 589 q 595 680 595 645 q 583 752 595 721 q 546 804 570 784 q 491 833 523 823 q 418 844 459 844 l 273 844 l 273 520 m 406 1168 l 507 1257 l 656 1257 l 656 1244 l 461 1074 l 351 1074 l 157 1244 l 157 1257 l 307 1257 l 406 1168 "},"Ŗ":{"ha":833,"x_min":96,"x_max":805,"o":"m 429 376 l 273 376 l 273 0 l 96 0 l 96 987 l 418 987 q 563 968 498 987 q 675 911 628 949 q 748 819 722 875 q 773 690 773 764 q 760 596 773 638 q 724 522 747 554 q 667 463 700 488 q 593 419 634 437 l 805 9 l 805 0 l 616 0 l 429 376 m 273 520 l 420 520 q 497 533 463 520 q 555 569 532 545 q 585 617 574 589 q 595 680 595 645 q 583 752 595 721 q 546 804 570 784 q 491 833 523 823 q 418 844 459 844 l 273 844 l 273 520 m 479 -85 q 454 -210 479 -145 q 378 -320 429 -275 l 302 -269 q 340 -182 328 -227 q 353 -87 353 -138 l 353 -38 l 479 -38 l 479 -85 "},"Ś":{"ha":833,"x_min":64,"x_max":785,"o":"m 608 256 q 597 311 608 286 q 562 357 585 336 q 501 393 537 376 q 415 422 465 409 q 279 474 339 444 q 178 541 218 504 q 116 625 138 578 q 94 728 94 671 q 121 841 94 790 q 195 927 148 892 q 303 982 241 963 q 437 1001 366 1001 q 575 979 511 1001 q 684 917 638 957 q 756 821 730 877 q 783 699 783 766 l 609 699 q 595 764 607 734 q 562 814 583 793 q 508 847 540 835 q 434 859 476 859 q 366 849 397 859 q 314 823 336 840 q 281 781 292 805 q 269 728 269 757 q 284 672 269 696 q 328 631 300 648 q 393 597 355 612 q 475 570 431 583 q 575 534 527 555 q 663 484 623 513 q 751 387 718 443 q 785 257 785 331 q 758 142 785 192 q 684 57 731 92 q 575 5 638 22 q 441 -13 513 -13 q 296 9 368 -13 q 172 75 225 32 q 94 172 123 116 q 64 302 65 228 l 239 302 q 257 224 241 257 q 298 170 272 192 q 361 139 325 149 q 441 129 397 129 q 509 138 479 129 q 562 163 540 146 q 596 203 584 179 q 608 256 608 227 m 486 1251 l 682 1251 l 496 1063 l 360 1063 l 486 1251 "},"Š":{"ha":833,"x_min":64,"x_max":785,"o":"m 608 256 q 597 311 608 286 q 562 357 585 336 q 501 393 537 376 q 415 422 465 409 q 279 474 339 444 q 178 541 218 504 q 116 625 138 578 q 94 728 94 671 q 121 841 94 790 q 195 927 148 892 q 303 982 241 963 q 437 1001 366 1001 q 575 979 511 1001 q 684 917 638 957 q 756 821 730 877 q 783 699 783 766 l 609 699 q 595 764 607 734 q 562 814 583 793 q 508 847 540 835 q 434 859 476 859 q 366 849 397 859 q 314 823 336 840 q 281 781 292 805 q 269 728 269 757 q 284 672 269 696 q 328 631 300 648 q 393 597 355 612 q 475 570 431 583 q 575 534 527 555 q 663 484 623 513 q 751 387 718 443 q 785 257 785 331 q 758 142 785 192 q 684 57 731 92 q 575 5 638 22 q 441 -13 513 -13 q 296 9 368 -13 q 172 75 225 32 q 94 172 123 116 q 64 302 65 228 l 239 302 q 257 224 241 257 q 298 170 272 192 q 361 139 325 149 q 441 129 397 129 q 509 138 479 129 q 562 163 540 146 q 596 203 584 179 q 608 256 608 227 m 435 1191 l 535 1280 l 684 1280 l 684 1267 l 490 1096 l 380 1096 l 186 1266 l 186 1280 l 335 1280 l 435 1191 "},"Ş":{"ha":833,"x_min":64,"x_max":785,"o":"m 608 256 q 597 311 608 286 q 562 357 585 336 q 501 393 537 376 q 415 422 465 409 q 279 474 339 444 q 178 541 218 504 q 116 625 138 578 q 94 728 94 671 q 121 841 94 790 q 195 927 148 892 q 303 982 241 963 q 437 1001 366 1001 q 575 979 511 1001 q 684 917 638 957 q 756 821 730 877 q 783 699 783 766 l 609 699 q 595 764 607 734 q 562 814 583 793 q 508 847 540 835 q 434 859 476 859 q 366 849 397 859 q 314 823 336 840 q 281 781 292 805 q 269 728 269 757 q 284 672 269 696 q 328 631 300 648 q 393 597 355 612 q 475 570 431 583 q 575 534 527 555 q 663 484 623 513 q 751 387 718 443 q 785 257 785 331 q 758 142 785 192 q 684 57 731 92 q 575 5 638 22 q 441 -13 513 -13 q 296 9 368 -13 q 172 75 225 32 q 94 172 123 116 q 64 302 65 228 l 239 302 q 257 224 241 257 q 298 170 272 192 q 361 139 325 149 q 441 129 397 129 q 509 138 479 129 q 562 163 540 146 q 596 203 584 179 q 608 256 608 227 m 509 -3 l 502 -41 q 539 -52 521 -44 q 572 -73 558 -60 q 595 -108 587 -87 q 604 -158 604 -129 q 589 -224 604 -195 q 543 -273 573 -253 q 472 -303 514 -292 q 376 -313 431 -313 l 372 -212 q 406 -209 390 -212 q 433 -199 422 -206 q 452 -181 446 -193 q 459 -154 459 -170 q 453 -130 459 -140 q 436 -113 448 -120 q 405 -103 424 -106 q 359 -98 385 -100 l 380 -3 l 509 -3 "},"Ŝ":{"ha":833,"x_min":64,"x_max":785,"o":"m 608 256 q 597 311 608 286 q 562 357 585 336 q 501 393 537 376 q 415 422 465 409 q 279 474 339 444 q 178 541 218 504 q 116 625 138 578 q 94 728 94 671 q 121 841 94 790 q 195 927 148 892 q 303 982 241 963 q 437 1001 366 1001 q 575 979 511 1001 q 684 917 638 957 q 756 821 730 877 q 783 699 783 766 l 609 699 q 595 764 607 734 q 562 814 583 793 q 508 847 540 835 q 434 859 476 859 q 366 849 397 859 q 314 823 336 840 q 281 781 292 805 q 269 728 269 757 q 284 672 269 696 q 328 631 300 648 q 393 597 355 612 q 475 570 431 583 q 575 534 527 555 q 663 484 623 513 q 751 387 718 443 q 785 257 785 331 q 758 142 785 192 q 684 57 731 92 q 575 5 638 22 q 441 -13 513 -13 q 296 9 368 -13 q 172 75 225 32 q 94 172 123 116 q 64 302 65 228 l 239 302 q 257 224 241 257 q 298 170 272 192 q 361 139 325 149 q 441 129 397 129 q 509 138 479 129 q 562 163 540 146 q 596 203 584 179 q 608 256 608 227 m 680 1115 l 680 1096 l 539 1096 l 435 1186 l 332 1096 l 194 1096 l 194 1116 l 385 1279 l 487 1279 l 680 1115 "},"Ŧ":{"ha":833,"x_min":25,"x_max":808,"o":"m 660 523 l 503 523 l 503 0 l 327 0 l 327 523 l 172 523 l 172 641 l 327 641 l 327 842 l 25 842 l 25 987 l 808 987 l 808 842 l 503 842 l 503 641 l 660 641 l 660 523 "},"Ť":{"ha":833,"x_min":25,"x_max":808,"o":"m 808 842 l 503 842 l 503 0 l 327 0 l 327 842 l 25 842 l 25 987 l 808 987 l 808 842 m 418 1173 l 519 1262 l 668 1262 l 668 1249 l 473 1078 l 363 1078 l 170 1249 l 170 1262 l 319 1262 l 418 1173 "},"Ú":{"ha":833,"x_min":87,"x_max":745,"o":"m 745 987 l 745 330 q 722 186 745 250 q 656 79 699 123 q 552 10 614 34 q 413 -14 491 -14 q 279 10 339 -14 q 177 78 220 34 q 111 186 134 122 q 87 330 87 250 l 88 987 l 264 987 l 265 330 q 276 243 266 281 q 305 180 286 205 q 351 143 323 155 q 413 130 378 130 q 479 143 450 130 q 528 182 509 157 q 558 245 548 208 q 569 330 568 283 l 570 987 l 745 987 m 479 1234 l 675 1234 l 488 1046 l 353 1046 l 479 1234 "},"Ŭ":{"ha":833,"x_min":87,"x_max":745,"o":"m 745 987 l 745 330 q 722 186 745 250 q 656 79 699 123 q 552 10 614 34 q 413 -14 491 -14 q 279 10 339 -14 q 177 78 220 34 q 111 186 134 122 q 87 330 87 250 l 88 987 l 264 987 l 265 330 q 276 243 266 281 q 305 180 286 205 q 351 143 323 155 q 413 130 378 130 q 479 143 450 130 q 528 182 509 157 q 558 245 548 208 q 569 330 568 283 l 570 987 l 745 987 m 653 1257 q 637 1179 653 1215 q 593 1117 622 1143 q 522 1077 564 1091 q 429 1063 480 1063 q 335 1077 376 1063 q 264 1117 293 1091 q 219 1179 235 1143 q 203 1257 203 1215 l 332 1257 q 337 1222 332 1239 q 354 1192 342 1205 q 384 1172 366 1180 q 429 1164 402 1164 q 472 1172 454 1164 q 503 1193 490 1180 q 519 1222 513 1205 q 524 1257 524 1240 l 653 1257 "},"Û":{"ha":833,"x_min":87,"x_max":745,"o":"m 745 987 l 745 330 q 722 186 745 250 q 656 79 699 123 q 552 10 614 34 q 413 -14 491 -14 q 279 10 339 -14 q 177 78 220 34 q 111 186 134 122 q 87 330 87 250 l 88 987 l 264 987 l 265 330 q 276 243 266 281 q 305 180 286 205 q 351 143 323 155 q 413 130 378 130 q 479 143 450 130 q 528 182 509 157 q 558 245 548 208 q 569 330 568 283 l 570 987 l 745 987 m 672 1097 l 672 1078 l 532 1078 l 428 1168 l 325 1078 l 186 1078 l 186 1099 l 377 1261 l 479 1261 l 672 1097 "},"Ü":{"ha":833,"x_min":87,"x_max":745,"o":"m 745 987 l 745 330 q 722 186 745 250 q 656 79 699 123 q 552 10 614 34 q 413 -14 491 -14 q 279 10 339 -14 q 177 78 220 34 q 111 186 134 122 q 87 330 87 250 l 88 987 l 264 987 l 265 330 q 276 243 266 281 q 305 180 286 205 q 351 143 323 155 q 413 130 378 130 q 479 143 450 130 q 528 182 509 157 q 558 245 548 208 q 569 330 568 283 l 570 987 l 745 987 m 177 1160 q 201 1218 177 1194 q 265 1242 225 1242 q 329 1218 305 1242 q 353 1160 353 1194 q 329 1102 353 1125 q 265 1078 304 1078 q 201 1102 226 1078 q 177 1160 177 1125 m 495 1160 q 519 1217 495 1194 q 583 1241 543 1241 q 648 1217 624 1241 q 672 1160 672 1194 q 648 1101 672 1124 q 583 1077 623 1077 q 519 1101 544 1077 q 495 1160 495 1124 "},"Ù":{"ha":833,"x_min":87,"x_max":745,"o":"m 745 987 l 745 330 q 722 186 745 250 q 656 79 699 123 q 552 10 614 34 q 413 -14 491 -14 q 279 10 339 -14 q 177 78 220 34 q 111 186 134 122 q 87 330 87 250 l 88 987 l 264 987 l 265 330 q 276 243 266 281 q 305 180 286 205 q 351 143 323 155 q 413 130 378 130 q 479 143 450 130 q 528 182 509 157 q 558 245 548 208 q 569 330 568 283 l 570 987 l 745 987 m 500 1048 l 361 1048 l 184 1236 l 380 1236 l 500 1048 "},"Ư":{"ha":833,"x_min":91,"x_max":985,"o":"m 749 987 l 749 857 q 804 870 783 859 q 836 903 825 882 q 850 953 847 923 q 854 1024 854 983 l 985 1024 q 971 908 985 958 q 930 825 958 858 q 857 773 901 791 q 749 753 812 755 l 749 330 q 726 186 749 250 q 661 79 703 123 q 556 10 617 34 q 417 -14 494 -14 q 283 10 343 -14 q 180 78 223 34 q 115 186 138 122 q 91 330 91 250 l 92 987 l 267 987 l 269 330 q 278 250 269 286 q 303 189 287 214 q 350 145 321 160 q 417 130 379 130 q 482 143 454 130 q 530 180 511 156 q 561 243 551 205 q 572 330 572 281 l 574 987 l 749 987 "},"Ű":{"ha":833,"x_min":87,"x_max":800,"o":"m 745 987 l 745 330 q 722 186 745 250 q 656 79 699 123 q 552 10 614 34 q 413 -14 491 -14 q 279 10 339 -14 q 177 78 220 34 q 111 186 134 122 q 87 330 87 250 l 88 987 l 264 987 l 265 330 q 276 243 266 281 q 305 180 286 205 q 351 143 323 155 q 413 130 378 130 q 479 143 450 130 q 528 182 509 157 q 558 245 548 208 q 569 330 568 283 l 570 987 l 745 987 m 622 1263 l 800 1263 l 593 1082 l 455 1082 l 622 1263 m 379 1263 l 549 1263 l 376 1082 l 244 1082 l 379 1263 "},"Ū":{"ha":833,"x_min":87,"x_max":745,"o":"m 745 987 l 745 330 q 722 186 745 250 q 656 79 699 123 q 552 10 614 34 q 413 -14 491 -14 q 279 10 339 -14 q 177 78 220 34 q 111 186 134 122 q 87 330 87 250 l 88 987 l 264 987 l 265 330 q 276 243 266 281 q 305 180 286 205 q 351 143 323 155 q 413 130 378 130 q 479 143 450 130 q 528 182 509 157 q 558 245 548 208 q 569 330 568 283 l 570 987 l 745 987 m 676 1095 l 184 1095 l 184 1204 l 676 1204 l 676 1095 "},"Ų":{"ha":833,"x_min":87,"x_max":745,"o":"m 745 987 l 745 330 q 731 214 745 267 q 690 120 717 161 q 633 57 667 83 q 559 13 600 30 q 533 -9 544 3 q 515 -33 522 -20 q 506 -58 509 -45 q 503 -85 503 -71 q 514 -119 503 -105 q 550 -132 524 -132 q 585 -127 570 -132 q 609 -118 600 -122 l 639 -218 q 590 -238 620 -228 q 513 -248 559 -248 q 456 -238 483 -248 q 410 -212 430 -229 q 378 -169 390 -195 q 367 -109 367 -143 q 370 -81 367 -95 q 378 -53 373 -67 q 388 -33 382 -43 q 400 -13 393 -22 q 397 -13 399 -13 q 393 -13 395 -13 q 269 15 325 -9 q 174 82 213 39 q 110 189 132 127 q 87 330 87 252 l 88 987 l 264 987 l 265 330 q 275 247 265 283 q 302 184 284 210 q 349 144 321 158 q 413 130 377 130 q 480 144 451 130 q 529 184 509 157 q 558 247 548 210 q 569 330 568 283 l 570 987 l 745 987 "},"Ů":{"ha":833,"x_min":87,"x_max":745,"o":"m 745 987 l 745 330 q 722 186 745 250 q 656 79 699 123 q 552 10 614 34 q 413 -14 491 -14 q 279 10 339 -14 q 177 78 220 34 q 111 186 134 122 q 87 330 87 250 l 88 987 l 264 987 l 265 330 q 276 243 266 281 q 305 180 286 205 q 351 143 323 155 q 413 130 378 130 q 479 143 450 130 q 528 182 509 157 q 558 245 548 208 q 569 330 568 283 l 570 987 l 745 987 m 285 1171 q 296 1224 285 1200 q 327 1267 307 1249 q 373 1295 347 1284 q 429 1305 399 1305 q 484 1295 458 1305 q 528 1267 509 1284 q 558 1224 547 1249 q 569 1171 569 1200 q 558 1118 569 1142 q 528 1078 547 1095 q 484 1050 509 1060 q 429 1041 458 1041 q 373 1050 399 1041 q 328 1078 347 1060 q 296 1118 307 1095 q 285 1171 285 1142 m 360 1171 q 366 1144 360 1156 q 380 1122 372 1131 q 402 1109 389 1114 q 429 1104 414 1104 q 454 1108 442 1104 q 474 1122 466 1113 q 489 1143 484 1131 q 494 1171 494 1156 q 489 1200 494 1187 q 476 1221 484 1213 q 455 1236 467 1231 q 429 1240 443 1240 q 401 1235 414 1240 q 380 1221 389 1230 q 366 1199 371 1212 q 360 1171 360 1187 "},"Ũ":{"ha":833,"x_min":87,"x_max":745,"o":"m 745 987 l 745 330 q 722 186 745 250 q 656 79 699 123 q 552 10 614 34 q 413 -14 491 -14 q 279 10 339 -14 q 177 78 220 34 q 111 186 134 122 q 87 330 87 250 l 88 987 l 264 987 l 265 330 q 276 243 266 281 q 305 180 286 205 q 351 143 323 155 q 413 130 378 130 q 479 143 450 130 q 528 182 509 157 q 558 245 548 208 q 569 330 568 283 l 570 987 l 745 987 m 672 1257 q 662 1197 672 1226 q 632 1145 651 1167 q 586 1108 612 1122 q 527 1094 559 1094 q 474 1102 496 1094 q 431 1121 451 1110 q 392 1140 411 1131 q 349 1151 372 1149 q 325 1149 336 1152 q 302 1140 313 1147 q 282 1119 290 1134 q 274 1086 274 1105 l 184 1105 q 194 1165 184 1135 q 224 1217 205 1194 q 269 1255 243 1240 q 328 1270 296 1270 q 379 1260 356 1270 q 426 1240 403 1251 q 471 1219 448 1228 q 519 1209 494 1209 q 545 1215 532 1209 q 565 1230 557 1220 q 577 1251 573 1238 q 582 1278 582 1263 l 672 1257 "},"Ẃ":{"ha":833,"x_min":24,"x_max":815,"o":"m 157 0 l 24 987 l 187 987 l 254 408 l 258 370 l 265 410 l 352 987 l 482 987 l 573 407 l 579 366 l 584 408 l 652 987 l 815 987 l 682 0 l 519 0 l 425 568 l 418 617 l 410 568 l 320 0 l 157 0 m 465 1237 l 661 1237 l 475 1049 l 339 1049 l 465 1237 "},"Ŵ":{"ha":833,"x_min":24,"x_max":815,"o":"m 157 0 l 24 987 l 187 987 l 254 408 l 258 370 l 265 410 l 352 987 l 482 987 l 573 407 l 579 366 l 584 408 l 652 987 l 815 987 l 682 0 l 519 0 l 425 568 l 418 617 l 410 568 l 320 0 l 157 0 m 659 1101 l 659 1082 l 518 1082 l 414 1172 l 311 1082 l 173 1082 l 173 1102 l 363 1265 l 466 1265 l 659 1101 "},"Ẅ":{"ha":833,"x_min":24,"x_max":815,"o":"m 157 0 l 24 987 l 187 987 l 254 408 l 258 370 l 265 410 l 352 987 l 482 987 l 573 407 l 579 366 l 584 408 l 652 987 l 815 987 l 682 0 l 519 0 l 425 568 l 418 617 l 410 568 l 320 0 l 157 0 m 163 1163 q 188 1221 163 1198 q 252 1245 212 1245 q 316 1221 292 1245 q 340 1163 340 1198 q 315 1105 340 1128 q 252 1082 291 1082 q 188 1105 212 1082 q 163 1163 163 1128 m 481 1163 q 506 1221 481 1197 q 570 1244 530 1244 q 634 1221 610 1244 q 659 1163 659 1197 q 634 1104 659 1128 q 570 1080 610 1080 q 506 1104 530 1080 q 481 1163 481 1128 "},"Ẁ":{"ha":833,"x_min":24,"x_max":815,"o":"m 157 0 l 24 987 l 187 987 l 254 408 l 258 370 l 265 410 l 352 987 l 482 987 l 573 407 l 579 366 l 584 408 l 652 987 l 815 987 l 682 0 l 519 0 l 425 568 l 418 617 l 410 568 l 320 0 l 157 0 m 486 1051 l 347 1051 l 171 1239 l 366 1239 l 486 1051 "},"Ý":{"ha":833,"x_min":26,"x_max":819,"o":"m 422 524 l 623 987 l 819 987 l 509 347 l 508 0 l 334 0 l 332 354 l 26 987 l 222 987 l 422 524 m 474 1236 l 670 1236 l 484 1048 l 348 1048 l 474 1236 "},"Ŷ":{"ha":833,"x_min":26,"x_max":819,"o":"m 422 524 l 623 987 l 819 987 l 509 347 l 508 0 l 334 0 l 332 354 l 26 987 l 222 987 l 422 524 m 667 1100 l 667 1081 l 526 1081 l 422 1171 l 319 1081 l 181 1081 l 181 1101 l 372 1264 l 474 1264 l 667 1100 "},"Ÿ":{"ha":833,"x_min":26,"x_max":819,"o":"m 422 524 l 623 987 l 819 987 l 509 347 l 508 0 l 334 0 l 332 354 l 26 987 l 222 987 l 422 524 m 172 1162 q 196 1221 172 1197 q 260 1244 220 1244 q 325 1221 300 1244 q 349 1162 349 1197 q 324 1104 349 1128 q 260 1081 300 1081 q 197 1104 221 1081 q 172 1162 172 1128 m 490 1162 q 514 1220 490 1196 q 578 1244 538 1244 q 643 1220 619 1244 q 667 1162 667 1196 q 643 1103 667 1127 q 578 1080 618 1080 q 515 1103 539 1080 q 490 1162 490 1127 "},"Ỳ":{"ha":833,"x_min":26,"x_max":819,"o":"m 422 524 l 623 987 l 819 987 l 509 347 l 508 0 l 334 0 l 332 354 l 26 987 l 222 987 l 422 524 m 495 1050 l 356 1050 l 180 1238 l 375 1238 l 495 1050 "},"Ź":{"ha":833,"x_min":64,"x_max":771,"o":"m 277 144 l 771 144 l 771 0 l 64 0 l 64 113 l 545 842 l 67 842 l 67 987 l 758 987 l 758 878 l 277 144 m 481 1234 l 677 1234 l 491 1046 l 355 1046 l 481 1234 "},"Ž":{"ha":833,"x_min":64,"x_max":771,"o":"m 277 144 l 771 144 l 771 0 l 64 0 l 64 113 l 545 842 l 67 842 l 67 987 l 758 987 l 758 878 l 277 144 m 430 1173 l 530 1262 l 680 1262 l 680 1249 l 485 1078 l 375 1078 l 181 1249 l 181 1262 l 330 1262 l 430 1173 "},"Ż":{"ha":833,"x_min":64,"x_max":771,"o":"m 277 144 l 771 144 l 771 0 l 64 0 l 64 113 l 545 842 l 67 842 l 67 987 l 758 987 l 758 878 l 277 144 m 332 1165 q 357 1230 332 1204 q 429 1256 383 1256 q 500 1230 474 1256 q 526 1165 526 1204 q 500 1101 526 1126 q 429 1075 474 1075 q 357 1101 383 1075 q 332 1165 332 1126 "},"á":{"ha":833,"x_min":84,"x_max":743,"o":"m 564 0 q 552 32 557 14 q 545 71 547 51 q 507 38 528 54 q 461 12 486 23 q 405 -7 435 0 q 340 -14 374 -14 q 236 3 283 -14 q 155 48 189 19 q 103 118 121 77 q 84 205 84 158 q 108 313 84 266 q 178 390 132 359 q 284 433 221 418 q 427 448 347 448 l 538 448 l 538 494 q 530 543 538 522 q 503 581 521 565 q 458 606 485 597 q 396 614 431 614 q 341 607 365 614 q 303 586 318 600 q 282 556 289 574 q 275 519 275 539 l 100 519 q 120 605 100 564 q 180 678 141 646 q 276 729 220 710 q 406 747 333 747 q 528 731 471 747 q 626 684 584 715 q 690 604 667 652 q 714 492 714 556 l 714 172 q 721 79 714 118 q 743 12 728 40 l 743 0 l 564 0 m 375 125 q 431 132 406 125 q 478 151 457 139 q 514 178 499 163 q 538 209 530 193 l 538 340 l 438 340 q 355 331 389 340 q 298 305 320 322 q 269 268 279 290 q 259 220 259 246 q 267 181 259 199 q 289 151 274 163 q 325 132 303 139 q 375 125 347 125 m 460 1019 l 656 1019 l 469 831 l 334 831 l 460 1019 "},"ă":{"ha":833,"x_min":84,"x_max":743,"o":"m 564 0 q 552 32 557 14 q 545 71 547 51 q 507 38 528 54 q 461 12 486 23 q 405 -7 435 0 q 340 -14 374 -14 q 236 3 283 -14 q 155 48 189 19 q 103 118 121 77 q 84 205 84 158 q 108 313 84 266 q 178 390 132 359 q 284 433 221 418 q 427 448 347 448 l 538 448 l 538 494 q 530 543 538 522 q 503 581 521 565 q 458 606 485 597 q 396 614 431 614 q 341 607 365 614 q 303 586 318 600 q 282 556 289 574 q 275 519 275 539 l 100 519 q 120 605 100 564 q 180 678 141 646 q 276 729 220 710 q 406 747 333 747 q 528 731 471 747 q 626 684 584 715 q 690 604 667 652 q 714 492 714 556 l 714 172 q 721 79 714 118 q 743 12 728 40 l 743 0 l 564 0 m 375 125 q 431 132 406 125 q 478 151 457 139 q 514 178 499 163 q 538 209 530 193 l 538 340 l 438 340 q 355 331 389 340 q 298 305 320 322 q 269 268 279 290 q 259 220 259 246 q 267 181 259 199 q 289 151 274 163 q 325 132 303 139 q 375 125 347 125 m 634 1042 q 618 964 634 1000 q 574 902 603 928 q 503 862 545 876 q 410 848 461 848 q 316 862 357 848 q 245 902 274 876 q 200 964 216 928 q 184 1042 184 1000 l 313 1042 q 318 1007 313 1024 q 335 977 323 990 q 365 957 347 965 q 410 949 383 949 q 453 957 435 949 q 484 978 471 965 q 500 1007 494 990 q 505 1042 505 1025 l 634 1042 "},"â":{"ha":833,"x_min":84,"x_max":743,"o":"m 564 0 q 552 32 557 14 q 545 71 547 51 q 507 38 528 54 q 461 12 486 23 q 405 -7 435 0 q 340 -14 374 -14 q 236 3 283 -14 q 155 48 189 19 q 103 118 121 77 q 84 205 84 158 q 108 313 84 266 q 178 390 132 359 q 284 433 221 418 q 427 448 347 448 l 538 448 l 538 494 q 530 543 538 522 q 503 581 521 565 q 458 606 485 597 q 396 614 431 614 q 341 607 365 614 q 303 586 318 600 q 282 556 289 574 q 275 519 275 539 l 100 519 q 120 605 100 564 q 180 678 141 646 q 276 729 220 710 q 406 747 333 747 q 528 731 471 747 q 626 684 584 715 q 690 604 667 652 q 714 492 714 556 l 714 172 q 721 79 714 118 q 743 12 728 40 l 743 0 l 564 0 m 375 125 q 431 132 406 125 q 478 151 457 139 q 514 178 499 163 q 538 209 530 193 l 538 340 l 438 340 q 355 331 389 340 q 298 305 320 322 q 269 268 279 290 q 259 220 259 246 q 267 181 259 199 q 289 151 274 163 q 325 132 303 139 q 375 125 347 125 m 652 882 l 652 863 l 512 863 l 408 954 l 305 863 l 167 863 l 167 884 l 357 1046 l 460 1046 l 652 882 "},"ä":{"ha":833,"x_min":84,"x_max":743,"o":"m 564 0 q 552 32 557 14 q 545 71 547 51 q 507 38 528 54 q 461 12 486 23 q 405 -7 435 0 q 340 -14 374 -14 q 236 3 283 -14 q 155 48 189 19 q 103 118 121 77 q 84 205 84 158 q 108 313 84 266 q 178 390 132 359 q 284 433 221 418 q 427 448 347 448 l 538 448 l 538 494 q 530 543 538 522 q 503 581 521 565 q 458 606 485 597 q 396 614 431 614 q 341 607 365 614 q 303 586 318 600 q 282 556 289 574 q 275 519 275 539 l 100 519 q 120 605 100 564 q 180 678 141 646 q 276 729 220 710 q 406 747 333 747 q 528 731 471 747 q 626 684 584 715 q 690 604 667 652 q 714 492 714 556 l 714 172 q 721 79 714 118 q 743 12 728 40 l 743 0 l 564 0 m 375 125 q 431 132 406 125 q 478 151 457 139 q 514 178 499 163 q 538 209 530 193 l 538 340 l 438 340 q 355 331 389 340 q 298 305 320 322 q 269 268 279 290 q 259 220 259 246 q 267 181 259 199 q 289 151 274 163 q 325 132 303 139 q 375 125 347 125 m 158 945 q 182 1003 158 979 q 246 1027 206 1027 q 310 1003 286 1027 q 334 945 334 979 q 310 887 334 910 q 246 863 286 863 q 182 887 207 863 q 158 945 158 910 m 476 945 q 500 1002 476 979 q 564 1026 524 1026 q 629 1002 605 1026 q 653 945 653 979 q 629 886 653 909 q 564 862 604 862 q 500 886 525 862 q 476 945 476 909 "},"à":{"ha":833,"x_min":84,"x_max":743,"o":"m 564 0 q 552 32 557 14 q 545 71 547 51 q 507 38 528 54 q 461 12 486 23 q 405 -7 435 0 q 340 -14 374 -14 q 236 3 283 -14 q 155 48 189 19 q 103 118 121 77 q 84 205 84 158 q 108 313 84 266 q 178 390 132 359 q 284 433 221 418 q 427 448 347 448 l 538 448 l 538 494 q 530 543 538 522 q 503 581 521 565 q 458 606 485 597 q 396 614 431 614 q 341 607 365 614 q 303 586 318 600 q 282 556 289 574 q 275 519 275 539 l 100 519 q 120 605 100 564 q 180 678 141 646 q 276 729 220 710 q 406 747 333 747 q 528 731 471 747 q 626 684 584 715 q 690 604 667 652 q 714 492 714 556 l 714 172 q 721 79 714 118 q 743 12 728 40 l 743 0 l 564 0 m 375 125 q 431 132 406 125 q 478 151 457 139 q 514 178 499 163 q 538 209 530 193 l 538 340 l 438 340 q 355 331 389 340 q 298 305 320 322 q 269 268 279 290 q 259 220 259 246 q 267 181 259 199 q 289 151 274 163 q 325 132 303 139 q 375 125 347 125 m 480 833 l 341 833 l 165 1021 l 360 1021 l 480 833 "},"ā":{"ha":833,"x_min":84,"x_max":743,"o":"m 564 0 q 552 32 557 14 q 545 71 547 51 q 507 38 528 54 q 461 12 486 23 q 405 -7 435 0 q 340 -14 374 -14 q 236 3 283 -14 q 155 48 189 19 q 103 118 121 77 q 84 205 84 158 q 108 313 84 266 q 178 390 132 359 q 284 433 221 418 q 427 448 347 448 l 538 448 l 538 494 q 530 543 538 522 q 503 581 521 565 q 458 606 485 597 q 396 614 431 614 q 341 607 365 614 q 303 586 318 600 q 282 556 289 574 q 275 519 275 539 l 100 519 q 120 605 100 564 q 180 678 141 646 q 276 729 220 710 q 406 747 333 747 q 528 731 471 747 q 626 684 584 715 q 690 604 667 652 q 714 492 714 556 l 714 172 q 721 79 714 118 q 743 12 728 40 l 743 0 l 564 0 m 375 125 q 431 132 406 125 q 478 151 457 139 q 514 178 499 163 q 538 209 530 193 l 538 340 l 438 340 q 355 331 389 340 q 298 305 320 322 q 269 268 279 290 q 259 220 259 246 q 267 181 259 199 q 289 151 274 163 q 325 132 303 139 q 375 125 347 125 m 656 880 l 164 880 l 164 989 l 656 989 l 656 880 "},"ą":{"ha":833,"x_min":84,"x_max":743,"o":"m 560 7 q 551 37 555 20 q 545 71 547 53 q 507 38 528 54 q 461 12 486 23 q 405 -7 435 0 q 340 -14 374 -14 q 236 3 283 -14 q 155 48 189 19 q 103 118 121 77 q 84 205 84 158 q 110 316 84 268 q 186 395 136 364 q 289 434 229 421 q 427 448 350 448 l 538 448 l 538 494 q 530 541 538 519 q 507 577 522 562 q 461 605 489 595 q 396 614 433 614 q 346 608 368 614 q 309 591 324 602 q 284 560 292 578 q 275 519 275 541 l 100 519 q 120 605 100 564 q 180 678 141 646 q 276 729 220 710 q 406 747 333 747 q 528 731 471 747 q 626 684 584 715 q 690 604 667 652 q 714 492 714 556 l 714 172 q 721 79 714 118 q 743 12 728 40 l 743 0 l 709 0 q 659 -27 680 -13 q 625 -58 637 -42 q 607 -91 612 -74 q 602 -127 602 -108 q 612 -160 602 -147 q 648 -174 623 -174 q 683 -169 669 -174 q 707 -159 698 -163 l 737 -259 q 688 -279 718 -269 q 612 -289 659 -289 q 555 -280 581 -289 q 509 -254 528 -271 q 477 -211 488 -236 q 465 -151 465 -185 q 473 -103 465 -127 q 496 -57 481 -79 q 524 -23 508 -40 q 560 7 540 -7 m 375 125 q 431 132 406 125 q 478 151 457 139 q 514 178 499 163 q 538 209 530 193 l 538 340 l 438 340 q 354 331 389 340 q 298 305 319 321 q 269 268 279 290 q 259 220 259 246 q 265 184 259 201 q 284 155 271 168 q 321 133 298 141 q 375 125 344 125 "},"å":{"ha":833,"x_min":84,"x_max":743,"o":"m 564 0 q 552 32 557 14 q 545 71 547 51 q 507 38 528 54 q 461 12 486 23 q 405 -7 435 0 q 340 -14 374 -14 q 236 3 283 -14 q 155 48 189 19 q 103 118 121 77 q 84 205 84 158 q 108 313 84 266 q 178 390 132 359 q 284 433 221 418 q 427 448 347 448 l 538 448 l 538 494 q 530 543 538 522 q 503 581 521 565 q 458 606 485 597 q 396 614 431 614 q 341 607 365 614 q 303 586 318 600 q 282 556 289 574 q 275 519 275 539 l 100 519 q 120 605 100 564 q 180 678 141 646 q 276 729 220 710 q 406 747 333 747 q 528 731 471 747 q 626 684 584 715 q 690 604 667 652 q 714 492 714 556 l 714 172 q 721 79 714 118 q 743 12 728 40 l 743 0 l 564 0 m 375 125 q 431 132 406 125 q 478 151 457 139 q 514 178 499 163 q 538 209 530 193 l 538 340 l 438 340 q 355 331 389 340 q 298 305 320 322 q 269 268 279 290 q 259 220 259 246 q 267 181 259 199 q 289 151 274 163 q 325 132 303 139 q 375 125 347 125 m 266 956 q 277 1009 266 985 q 308 1052 288 1034 q 354 1080 328 1069 q 410 1090 380 1090 q 465 1080 439 1090 q 509 1052 490 1069 q 539 1009 528 1034 q 550 956 550 985 q 539 903 550 927 q 509 863 528 880 q 465 836 490 845 q 410 826 439 826 q 354 836 380 826 q 309 863 328 845 q 277 903 288 880 q 266 956 266 927 m 341 956 q 347 929 341 941 q 361 907 353 916 q 383 894 370 899 q 410 889 395 889 q 435 893 423 889 q 455 907 447 898 q 470 928 465 916 q 475 956 475 941 q 470 985 475 972 q 457 1006 465 998 q 436 1021 448 1016 q 410 1025 424 1025 q 382 1020 395 1025 q 361 1006 370 1015 q 347 984 352 997 q 341 956 341 972 "},"ǻ":{"ha":833,"x_min":84,"x_max":743,"o":"m 564 0 q 552 32 557 14 q 545 71 547 51 q 507 38 528 54 q 461 12 486 23 q 405 -7 435 0 q 340 -14 374 -14 q 236 3 283 -14 q 155 48 189 19 q 103 118 121 77 q 84 205 84 158 q 108 313 84 266 q 178 390 132 359 q 284 433 221 418 q 427 448 347 448 l 538 448 l 538 494 q 530 543 538 522 q 503 581 521 565 q 458 606 485 597 q 396 614 431 614 q 341 607 365 614 q 303 586 318 600 q 282 556 289 574 q 275 519 275 539 l 100 519 q 120 605 100 564 q 180 678 141 646 q 276 729 220 710 q 406 747 333 747 q 528 731 471 747 q 626 684 584 715 q 690 604 667 652 q 714 492 714 556 l 714 172 q 721 79 714 118 q 743 12 728 40 l 743 0 l 564 0 m 375 125 q 431 132 406 125 q 478 151 457 139 q 514 178 499 163 q 538 209 530 193 l 538 340 l 438 340 q 355 331 389 340 q 298 305 320 322 q 269 268 279 290 q 259 220 259 246 q 267 181 259 199 q 289 151 274 163 q 325 132 303 139 q 375 125 347 125 m 483 1220 l 652 1220 l 479 1084 l 364 1084 l 483 1220 m 278 933 q 289 982 278 959 q 317 1021 299 1004 q 358 1046 334 1037 q 410 1055 382 1055 q 459 1046 436 1055 q 500 1021 483 1037 q 528 982 518 1004 q 538 933 538 959 q 528 884 538 907 q 500 846 518 862 q 459 822 483 830 q 410 813 436 813 q 358 822 382 813 q 317 847 334 831 q 289 885 299 863 q 278 933 278 907 m 349 933 q 367 891 349 908 q 410 874 384 874 q 451 891 435 874 q 467 933 467 908 q 451 977 467 960 q 410 994 435 994 q 367 977 384 994 q 349 933 349 960 "},"ã":{"ha":833,"x_min":84,"x_max":743,"o":"m 564 0 q 552 32 557 14 q 545 71 547 51 q 507 38 528 54 q 461 12 486 23 q 405 -7 435 0 q 340 -14 374 -14 q 236 3 283 -14 q 155 48 189 19 q 103 118 121 77 q 84 205 84 158 q 108 313 84 266 q 178 390 132 359 q 284 433 221 418 q 427 448 347 448 l 538 448 l 538 494 q 530 543 538 522 q 503 581 521 565 q 458 606 485 597 q 396 614 431 614 q 341 607 365 614 q 303 586 318 600 q 282 556 289 574 q 275 519 275 539 l 100 519 q 120 605 100 564 q 180 678 141 646 q 276 729 220 710 q 406 747 333 747 q 528 731 471 747 q 626 684 584 715 q 690 604 667 652 q 714 492 714 556 l 714 172 q 721 79 714 118 q 743 12 728 40 l 743 0 l 564 0 m 375 125 q 431 132 406 125 q 478 151 457 139 q 514 178 499 163 q 538 209 530 193 l 538 340 l 438 340 q 355 331 389 340 q 298 305 320 322 q 269 268 279 290 q 259 220 259 246 q 267 181 259 199 q 289 151 274 163 q 325 132 303 139 q 375 125 347 125 m 652 1042 q 642 982 652 1011 q 612 930 631 952 q 566 893 593 907 q 507 879 540 879 q 454 887 477 879 q 412 906 431 895 q 372 925 391 916 q 329 936 353 934 q 305 935 317 937 q 283 925 293 932 q 262 904 270 919 q 254 871 254 890 l 164 890 q 175 950 164 920 q 204 1002 185 979 q 250 1040 223 1025 q 309 1055 276 1055 q 360 1045 336 1055 q 406 1025 383 1036 q 451 1004 428 1013 q 500 994 474 994 q 525 1000 513 994 q 545 1015 537 1005 q 558 1036 553 1023 q 562 1063 562 1048 l 652 1042 "},"ǽ":{"ha":833,"x_min":31,"x_max":810,"o":"m 593 -14 q 523 -6 555 -14 q 465 18 491 2 q 433 42 448 28 q 406 71 418 55 q 377 39 393 54 q 340 12 361 23 q 296 -7 320 0 q 243 -14 271 -14 q 152 2 191 -14 q 86 45 113 17 q 45 112 59 72 q 31 199 31 151 q 46 291 31 250 q 90 362 61 332 q 188 418 127 399 q 330 437 248 437 l 340 437 l 340 522 q 336 563 340 545 q 321 590 331 580 q 304 601 314 597 q 280 605 294 605 q 248 600 262 605 q 225 583 234 595 q 214 560 218 574 q 211 528 211 547 l 45 534 q 61 623 45 583 q 106 690 77 662 q 178 732 136 717 q 273 747 220 747 q 331 742 304 747 q 381 727 358 737 q 408 712 395 720 q 432 692 420 703 q 457 712 444 703 q 486 727 470 721 q 532 743 507 737 q 587 747 558 748 q 680 729 638 747 q 750 675 721 710 q 794 590 779 640 q 810 479 810 541 l 810 314 l 496 314 l 496 253 q 498 221 496 236 q 506 193 501 205 q 521 167 511 178 q 545 146 530 155 q 578 132 559 137 q 624 127 598 127 q 666 131 648 127 q 701 140 685 134 q 729 151 715 144 q 756 163 743 157 l 792 41 q 760 21 780 31 q 715 4 741 12 q 659 -9 689 -4 q 593 -14 628 -14 m 286 117 q 303 120 294 117 q 320 127 312 123 q 332 135 326 130 q 341 143 337 139 q 341 189 341 172 q 341 231 341 206 q 341 273 341 255 q 340 319 340 291 l 332 319 q 278 309 301 319 q 238 283 254 299 q 213 243 222 266 q 205 197 205 221 q 210 165 205 180 q 224 140 214 151 q 249 123 234 130 q 286 117 264 117 m 648 435 l 648 514 q 643 551 648 534 q 630 581 639 568 q 608 598 621 592 q 576 605 595 605 q 550 602 562 605 q 530 591 538 598 q 512 568 519 582 q 501 536 505 554 q 497 508 498 523 q 496 478 496 494 l 496 435 l 648 435 m 495 1019 l 691 1019 l 505 831 l 369 831 l 495 1019 "},"ć":{"ha":833,"x_min":83,"x_max":734,"o":"m 422 127 q 478 136 452 127 q 525 160 505 144 q 557 198 545 176 q 568 247 568 220 l 733 247 q 709 143 734 191 q 642 61 684 96 q 544 6 600 26 q 425 -14 488 -14 q 276 15 340 -14 q 170 94 212 44 q 105 212 127 144 q 83 355 83 279 l 83 377 q 104 521 83 454 q 170 639 126 588 q 276 718 212 689 q 425 747 340 747 q 549 727 492 747 q 647 670 606 707 q 711 582 688 633 q 733 467 734 530 l 568 467 q 558 520 568 495 q 528 564 547 546 q 481 594 509 583 q 422 605 454 605 q 343 586 374 605 q 293 534 312 566 q 266 461 274 503 q 258 377 258 420 l 258 355 q 266 270 258 311 q 293 197 273 229 q 343 146 311 165 q 422 127 374 127 m 479 1019 l 675 1019 l 489 831 l 353 831 l 479 1019 "},"č":{"ha":833,"x_min":83,"x_max":734,"o":"m 422 127 q 478 136 452 127 q 525 160 505 144 q 557 198 545 176 q 568 247 568 220 l 733 247 q 709 143 734 191 q 642 61 684 96 q 544 6 600 26 q 425 -14 488 -14 q 276 15 340 -14 q 170 94 212 44 q 105 212 127 144 q 83 355 83 279 l 83 377 q 104 521 83 454 q 170 639 126 588 q 276 718 212 689 q 425 747 340 747 q 549 727 492 747 q 647 670 606 707 q 711 582 688 633 q 733 467 734 530 l 568 467 q 558 520 568 495 q 528 564 547 546 q 481 594 509 583 q 422 605 454 605 q 343 586 374 605 q 293 534 312 566 q 266 461 274 503 q 258 377 258 420 l 258 355 q 266 270 258 311 q 293 197 273 229 q 343 146 311 165 q 422 127 374 127 m 428 958 l 528 1047 l 677 1047 l 677 1034 l 483 863 l 373 863 l 179 1034 l 179 1047 l 328 1047 l 428 958 "},"ç":{"ha":833,"x_min":83,"x_max":734,"o":"m 422 127 q 478 136 452 127 q 525 160 505 144 q 557 198 545 176 q 568 247 568 220 l 733 247 q 709 143 734 191 q 642 61 684 96 q 544 6 600 26 q 425 -14 488 -14 q 276 15 340 -14 q 170 94 212 44 q 105 212 127 144 q 83 355 83 279 l 83 377 q 104 521 83 454 q 170 639 126 588 q 276 718 212 689 q 425 747 340 747 q 549 727 492 747 q 647 670 606 707 q 711 582 688 633 q 733 467 734 530 l 568 467 q 558 520 568 495 q 528 564 547 546 q 481 594 509 583 q 422 605 454 605 q 343 586 374 605 q 293 534 312 566 q 266 461 274 503 q 258 377 258 420 l 258 355 q 266 270 258 311 q 293 197 273 229 q 343 146 311 165 q 422 127 374 127 m 490 5 l 482 -32 q 520 -43 501 -35 q 553 -64 538 -51 q 576 -99 567 -79 q 585 -149 585 -120 q 569 -215 585 -186 q 523 -264 553 -244 q 453 -294 494 -283 q 357 -304 411 -304 l 352 -203 q 386 -200 370 -203 q 414 -191 402 -197 q 433 -173 426 -184 q 439 -145 439 -161 q 434 -121 439 -131 q 416 -104 428 -111 q 385 -95 404 -98 q 339 -90 366 -92 l 360 5 l 490 5 "},"ĉ":{"ha":833,"x_min":83,"x_max":734,"o":"m 422 127 q 478 136 452 127 q 525 160 505 144 q 557 198 545 176 q 568 247 568 220 l 733 247 q 709 143 734 191 q 642 61 684 96 q 544 6 600 26 q 425 -14 488 -14 q 276 15 340 -14 q 170 94 212 44 q 105 212 127 144 q 83 355 83 279 l 83 377 q 104 521 83 454 q 170 639 126 588 q 276 718 212 689 q 425 747 340 747 q 549 727 492 747 q 647 670 606 707 q 711 582 688 633 q 733 467 734 530 l 568 467 q 558 520 568 495 q 528 564 547 546 q 481 594 509 583 q 422 605 454 605 q 343 586 374 605 q 293 534 312 566 q 266 461 274 503 q 258 377 258 420 l 258 355 q 266 270 258 311 q 293 197 273 229 q 343 146 311 165 q 422 127 374 127 m 672 882 l 672 863 l 532 863 l 428 954 l 325 863 l 186 863 l 186 884 l 377 1046 l 479 1046 l 672 882 "},"ď":{"ha":833,"x_min":36,"x_max":960,"o":"m 36 372 q 56 525 36 456 q 113 644 75 594 q 203 720 150 693 q 325 747 257 747 q 429 726 385 747 q 509 667 474 705 l 509 1042 l 684 1042 l 684 0 l 526 0 l 517 77 q 434 10 482 34 q 323 -14 387 -14 q 203 15 257 -14 q 113 92 150 43 q 56 211 76 142 q 36 358 36 279 l 36 372 m 211 358 q 219 269 211 311 q 248 197 228 228 q 296 148 266 165 q 368 130 326 130 q 454 153 420 130 q 509 214 488 175 l 509 520 q 454 581 488 559 q 370 604 420 604 q 297 586 327 604 q 248 536 267 568 q 220 463 229 505 q 211 372 211 420 l 211 358 m 961 944 q 952 873 961 910 q 926 802 943 837 q 887 736 909 767 q 838 680 865 705 l 755 733 q 799 829 783 778 q 815 943 815 880 l 815 1058 l 961 1058 l 961 944 "},"đ":{"ha":833,"x_min":70,"x_max":837,"o":"m 837 829 l 718 829 l 718 0 l 559 0 l 551 77 q 520 44 537 59 q 485 19 503 30 q 427 -5 458 3 q 357 -14 395 -14 q 237 15 291 -14 q 147 92 184 43 q 90 211 110 142 q 70 358 70 279 l 70 372 q 90 525 70 456 q 146 644 109 594 q 237 720 184 693 q 359 747 291 747 q 430 738 397 747 q 490 712 463 729 q 517 691 505 703 q 543 667 530 680 l 543 829 l 376 829 l 376 947 l 543 947 l 543 1042 l 718 1042 l 718 947 l 837 947 l 837 829 m 245 358 q 253 269 245 311 q 281 197 262 228 q 330 148 300 165 q 402 130 359 130 q 450 136 429 130 q 490 153 472 142 q 519 180 506 164 q 543 214 532 195 l 543 520 q 517 558 532 541 q 483 585 503 574 q 447 598 467 593 q 404 604 427 604 q 331 586 361 604 q 281 536 300 568 q 254 463 262 505 q 245 372 245 420 l 245 358 "},"é":{"ha":833,"x_min":79,"x_max":760,"o":"m 450 -14 q 298 14 366 -14 q 181 90 230 41 q 106 202 132 137 q 79 341 79 267 l 79 368 q 106 523 79 454 q 180 643 133 593 q 292 720 228 692 q 430 747 356 747 q 571 721 509 747 q 675 647 632 694 q 739 533 717 600 q 760 386 760 466 l 760 311 l 256 311 l 256 309 q 280 233 265 262 q 321 179 296 203 q 384 141 349 155 q 460 127 418 127 q 570 150 518 127 q 656 215 623 172 l 746 122 q 633 28 710 70 q 450 -14 556 -14 m 429 605 q 367 593 395 605 q 318 559 339 582 q 282 506 296 537 q 260 435 267 475 l 587 435 l 587 449 q 576 509 587 479 q 545 559 565 538 q 496 592 525 580 q 429 605 467 605 m 462 1019 l 658 1019 l 471 831 l 336 831 l 462 1019 "},"ĕ":{"ha":833,"x_min":79,"x_max":760,"o":"m 450 -14 q 298 14 366 -14 q 181 90 230 41 q 106 202 132 137 q 79 341 79 267 l 79 368 q 106 523 79 454 q 180 643 133 593 q 292 720 228 692 q 430 747 356 747 q 571 721 509 747 q 675 647 632 694 q 739 533 717 600 q 760 386 760 466 l 760 311 l 256 311 l 256 309 q 280 233 265 262 q 321 179 296 203 q 384 141 349 155 q 460 127 418 127 q 570 150 518 127 q 656 215 623 172 l 746 122 q 633 28 710 70 q 450 -14 556 -14 m 429 605 q 367 593 395 605 q 318 559 339 582 q 282 506 296 537 q 260 435 267 475 l 587 435 l 587 449 q 576 509 587 479 q 545 559 565 538 q 496 592 525 580 q 429 605 467 605 m 636 1043 q 621 964 636 1000 q 576 903 605 928 q 505 863 547 877 q 412 848 463 848 q 318 863 359 848 q 248 903 276 877 q 202 964 218 928 q 186 1043 186 1000 l 315 1043 q 320 1008 315 1025 q 337 978 326 991 q 367 958 349 966 q 412 950 385 950 q 455 958 437 950 q 486 979 473 966 q 502 1008 496 991 q 507 1043 507 1025 l 636 1043 "},"ě":{"ha":833,"x_min":79,"x_max":760,"o":"m 450 -14 q 298 14 366 -14 q 181 90 230 41 q 106 202 132 137 q 79 341 79 267 l 79 368 q 106 523 79 454 q 180 643 133 593 q 292 720 228 692 q 430 747 356 747 q 571 721 509 747 q 675 647 632 694 q 739 533 717 600 q 760 386 760 466 l 760 311 l 256 311 l 256 309 q 280 233 265 262 q 321 179 296 203 q 384 141 349 155 q 460 127 418 127 q 570 150 518 127 q 656 215 623 172 l 746 122 q 633 28 710 70 q 450 -14 556 -14 m 429 605 q 367 593 395 605 q 318 559 339 582 q 282 506 296 537 q 260 435 267 475 l 587 435 l 587 449 q 576 509 587 479 q 545 559 565 538 q 496 592 525 580 q 429 605 467 605 m 410 959 l 511 1048 l 660 1048 l 660 1035 l 465 864 l 355 864 l 161 1034 l 161 1048 l 311 1048 l 410 959 "},"ê":{"ha":833,"x_min":79,"x_max":760,"o":"m 450 -14 q 298 14 366 -14 q 181 90 230 41 q 106 202 132 137 q 79 341 79 267 l 79 368 q 106 523 79 454 q 180 643 133 593 q 292 720 228 692 q 430 747 356 747 q 571 721 509 747 q 675 647 632 694 q 739 533 717 600 q 760 386 760 466 l 760 311 l 256 311 l 256 309 q 280 233 265 262 q 321 179 296 203 q 384 141 349 155 q 460 127 418 127 q 570 150 518 127 q 656 215 623 172 l 746 122 q 633 28 710 70 q 450 -14 556 -14 m 429 605 q 367 593 395 605 q 318 559 339 582 q 282 506 296 537 q 260 435 267 475 l 587 435 l 587 449 q 576 509 587 479 q 545 559 565 538 q 496 592 525 580 q 429 605 467 605 m 654 883 l 654 864 l 514 864 l 410 954 l 307 864 l 169 864 l 169 884 l 359 1047 l 462 1047 l 654 883 "},"ë":{"ha":833,"x_min":79,"x_max":760,"o":"m 450 -14 q 298 14 366 -14 q 181 90 230 41 q 106 202 132 137 q 79 341 79 267 l 79 368 q 106 523 79 454 q 180 643 133 593 q 292 720 228 692 q 430 747 356 747 q 571 721 509 747 q 675 647 632 694 q 739 533 717 600 q 760 386 760 466 l 760 311 l 256 311 l 256 309 q 280 233 265 262 q 321 179 296 203 q 384 141 349 155 q 460 127 418 127 q 570 150 518 127 q 656 215 623 172 l 746 122 q 633 28 710 70 q 450 -14 556 -14 m 429 605 q 367 593 395 605 q 318 559 339 582 q 282 506 296 537 q 260 435 267 475 l 587 435 l 587 449 q 576 509 587 479 q 545 559 565 538 q 496 592 525 580 q 429 605 467 605 m 160 945 q 184 1004 160 980 q 248 1027 208 1027 q 312 1004 288 1027 q 336 945 336 980 q 312 887 336 911 q 248 864 288 864 q 184 887 209 864 q 160 945 160 911 m 478 945 q 502 1003 478 979 q 566 1027 526 1027 q 631 1003 607 1027 q 655 945 655 979 q 631 886 655 910 q 566 863 606 863 q 503 886 527 863 q 478 945 478 910 "},"ė":{"ha":833,"x_min":79,"x_max":760,"o":"m 450 -14 q 298 14 366 -14 q 181 90 230 41 q 106 202 132 137 q 79 341 79 267 l 79 368 q 106 523 79 454 q 180 643 133 593 q 292 720 228 692 q 430 747 356 747 q 571 721 509 747 q 675 647 632 694 q 739 533 717 600 q 760 386 760 466 l 760 311 l 256 311 l 256 309 q 280 233 265 262 q 321 179 296 203 q 384 141 349 155 q 460 127 418 127 q 570 150 518 127 q 656 215 623 172 l 746 122 q 633 28 710 70 q 450 -14 556 -14 m 429 605 q 367 593 395 605 q 318 559 339 582 q 282 506 296 537 q 260 435 267 475 l 587 435 l 587 449 q 576 509 587 479 q 545 559 565 538 q 496 592 525 580 q 429 605 467 605 m 313 951 q 338 1016 313 990 q 410 1042 364 1042 q 481 1016 455 1042 q 507 951 507 990 q 481 886 507 912 q 410 861 455 861 q 338 886 364 861 q 313 951 313 912 "},"è":{"ha":833,"x_min":79,"x_max":760,"o":"m 450 -14 q 298 14 366 -14 q 181 90 230 41 q 106 202 132 137 q 79 341 79 267 l 79 368 q 106 523 79 454 q 180 643 133 593 q 292 720 228 692 q 430 747 356 747 q 571 721 509 747 q 675 647 632 694 q 739 533 717 600 q 760 386 760 466 l 760 311 l 256 311 l 256 309 q 280 233 265 262 q 321 179 296 203 q 384 141 349 155 q 460 127 418 127 q 570 150 518 127 q 656 215 623 172 l 746 122 q 633 28 710 70 q 450 -14 556 -14 m 429 605 q 367 593 395 605 q 318 559 339 582 q 282 506 296 537 q 260 435 267 475 l 587 435 l 587 449 q 576 509 587 479 q 545 559 565 538 q 496 592 525 580 q 429 605 467 605 m 482 833 l 343 833 l 167 1021 l 362 1021 l 482 833 "},"ē":{"ha":833,"x_min":79,"x_max":760,"o":"m 450 -14 q 298 14 366 -14 q 181 90 230 41 q 106 202 132 137 q 79 341 79 267 l 79 368 q 106 523 79 454 q 180 643 133 593 q 292 720 228 692 q 430 747 356 747 q 571 721 509 747 q 675 647 632 694 q 739 533 717 600 q 760 386 760 466 l 760 311 l 256 311 l 256 309 q 280 233 265 262 q 321 179 296 203 q 384 141 349 155 q 460 127 418 127 q 570 150 518 127 q 656 215 623 172 l 746 122 q 633 28 710 70 q 450 -14 556 -14 m 429 605 q 367 593 395 605 q 318 559 339 582 q 282 506 296 537 q 260 435 267 475 l 587 435 l 587 449 q 576 509 587 479 q 545 559 565 538 q 496 592 525 580 q 429 605 467 605 m 659 881 l 166 881 l 166 989 l 659 989 l 659 881 "},"ŋ":{"ha":833,"x_min":106,"x_max":728,"o":"m 106 0 l 106 734 l 268 734 l 276 638 l 277 631 q 310 672 292 653 q 348 705 328 691 q 412 736 377 726 q 488 747 448 747 q 586 731 542 747 q 662 680 631 715 q 710 588 693 644 q 728 452 728 532 l 728 -34 q 710 -148 728 -98 q 661 -230 693 -197 q 583 -279 629 -262 q 481 -296 538 -296 q 435 -294 456 -296 q 390 -285 414 -292 l 399 -142 q 433 -149 414 -146 q 467 -151 451 -151 q 499 -144 485 -151 q 525 -127 514 -138 q 545 -89 538 -113 q 551 -34 551 -66 l 551 451 q 543 522 551 493 q 520 569 535 551 q 480 595 504 587 q 426 604 457 604 q 372 597 397 604 q 329 580 348 591 q 302 560 315 571 q 281 535 290 549 l 281 0 l 106 0 "},"ę":{"ha":833,"x_min":79,"x_max":760,"o":"m 79 341 l 79 368 q 106 523 79 454 q 180 643 133 593 q 292 720 228 692 q 430 747 356 747 q 571 721 509 747 q 675 647 632 694 q 739 533 717 600 q 760 386 760 466 l 760 311 l 256 311 l 256 309 q 278 238 261 273 q 321 179 294 204 q 383 141 348 155 q 460 127 418 127 q 570 150 518 127 q 656 215 623 172 l 746 122 q 688 62 725 91 q 602 14 652 33 q 554 -11 574 3 q 522 -39 535 -24 q 503 -74 509 -56 q 496 -112 496 -92 q 507 -145 496 -132 q 543 -159 517 -159 q 577 -154 563 -159 q 602 -144 592 -149 l 631 -244 q 583 -264 612 -254 q 507 -274 553 -274 q 449 -265 476 -274 q 403 -239 422 -256 q 372 -196 383 -221 q 360 -136 360 -170 q 374 -73 360 -105 q 418 -13 389 -40 q 416 -13 417 -13 q 412 -12 414 -12 q 277 23 339 -6 q 172 100 215 53 q 103 209 127 146 q 79 341 79 271 m 429 605 q 367 593 395 605 q 318 559 339 582 q 282 506 296 537 q 260 435 267 475 l 587 435 l 587 448 q 575 509 587 480 q 545 559 564 538 q 496 592 525 580 q 429 605 467 605 "},"ğ":{"ha":833,"x_min":81,"x_max":736,"o":"m 81 372 q 101 525 81 456 q 160 644 121 594 q 253 720 199 693 q 377 747 308 747 q 448 740 416 747 q 507 716 480 732 q 541 692 525 706 q 570 662 557 679 l 577 734 l 736 734 l 736 22 q 712 -110 736 -52 q 642 -208 687 -168 q 535 -268 597 -248 q 397 -289 472 -289 q 327 -282 364 -289 q 252 -261 289 -275 q 181 -224 214 -247 q 123 -170 147 -202 l 203 -64 q 245 -103 223 -86 q 290 -130 267 -119 q 337 -145 313 -140 q 387 -151 361 -151 q 462 -139 429 -151 q 517 -104 495 -127 q 550 -52 538 -83 q 561 19 561 -20 l 561 66 q 532 38 547 50 q 500 16 517 25 q 443 -6 474 2 q 376 -14 412 -14 q 253 15 308 -14 q 160 92 199 43 q 101 211 121 142 q 81 358 81 279 l 81 372 m 256 358 q 266 269 256 311 q 296 197 275 228 q 346 148 315 165 q 420 130 377 130 q 467 135 446 130 q 506 151 488 140 q 537 176 524 161 q 561 209 551 191 l 561 525 q 535 561 550 545 q 502 585 521 576 q 465 599 486 594 q 421 604 445 604 q 348 586 378 604 q 296 536 317 568 q 266 463 276 505 q 256 372 256 420 l 256 358 m 633 1042 q 617 964 633 1000 q 572 902 602 928 q 502 862 543 876 q 408 848 460 848 q 314 862 356 848 q 244 902 273 876 q 199 964 214 928 q 183 1042 183 1000 l 311 1042 q 317 1007 311 1024 q 334 977 322 990 q 363 957 345 965 q 408 949 382 949 q 452 957 434 949 q 482 978 470 965 q 498 1007 493 990 q 504 1042 504 1025 l 633 1042 "},"ĝ":{"ha":833,"x_min":81,"x_max":736,"o":"m 81 372 q 101 525 81 456 q 160 644 121 594 q 253 720 199 693 q 377 747 308 747 q 448 740 416 747 q 507 716 480 732 q 541 692 525 706 q 570 662 557 679 l 577 734 l 736 734 l 736 22 q 712 -110 736 -52 q 642 -208 687 -168 q 535 -268 597 -248 q 397 -289 472 -289 q 327 -282 364 -289 q 252 -261 289 -275 q 181 -224 214 -247 q 123 -170 147 -202 l 203 -64 q 245 -103 223 -86 q 290 -130 267 -119 q 337 -145 313 -140 q 387 -151 361 -151 q 462 -139 429 -151 q 517 -104 495 -127 q 550 -52 538 -83 q 561 19 561 -20 l 561 66 q 532 38 547 50 q 500 16 517 25 q 443 -6 474 2 q 376 -14 412 -14 q 253 15 308 -14 q 160 92 199 43 q 101 211 121 142 q 81 358 81 279 l 81 372 m 256 358 q 266 269 256 311 q 296 197 275 228 q 346 148 315 165 q 420 130 377 130 q 467 135 446 130 q 506 151 488 140 q 537 176 524 161 q 561 209 551 191 l 561 525 q 535 561 550 545 q 502 585 521 576 q 465 599 486 594 q 421 604 445 604 q 348 586 378 604 q 296 536 317 568 q 266 463 276 505 q 256 372 256 420 l 256 358 m 651 882 l 651 863 l 511 863 l 407 954 l 304 863 l 165 863 l 165 884 l 356 1046 l 458 1046 l 651 882 "},"ģ":{"ha":833,"x_min":81,"x_max":736,"o":"m 81 372 q 101 525 81 456 q 160 644 121 594 q 253 720 199 693 q 377 747 308 747 q 448 740 416 747 q 507 716 480 732 q 541 692 525 706 q 570 662 557 679 l 577 734 l 736 734 l 736 22 q 712 -110 736 -52 q 642 -208 687 -168 q 535 -268 597 -248 q 397 -289 472 -289 q 327 -282 364 -289 q 252 -261 289 -275 q 181 -224 214 -247 q 123 -170 147 -202 l 203 -64 q 245 -103 223 -86 q 290 -130 267 -119 q 337 -145 313 -140 q 387 -151 361 -151 q 462 -139 429 -151 q 517 -104 495 -127 q 550 -52 538 -83 q 561 19 561 -20 l 561 66 q 532 38 547 50 q 500 16 517 25 q 443 -6 474 2 q 376 -14 412 -14 q 253 15 308 -14 q 160 92 199 43 q 101 211 121 142 q 81 358 81 279 l 81 372 m 256 358 q 266 269 256 311 q 296 197 275 228 q 346 148 315 165 q 420 130 377 130 q 467 135 446 130 q 506 151 488 140 q 537 176 524 161 q 561 209 551 191 l 561 525 q 535 561 550 545 q 502 585 521 576 q 465 599 486 594 q 421 604 445 604 q 348 586 378 604 q 296 536 317 568 q 266 463 276 505 q 256 372 256 420 l 256 358 m 332 943 q 360 1070 332 1011 q 429 1158 389 1130 l 522 1105 q 490 1028 503 1070 q 477 935 477 986 l 476 852 l 332 852 l 332 943 "},"ħ":{"ha":833,"x_min":-1,"x_max":757,"o":"m 461 827 l 286 827 l 286 631 q 320 674 301 654 q 361 707 340 693 q 425 737 391 726 q 496 747 458 747 q 602 730 554 747 q 684 677 650 713 q 738 584 719 640 q 757 448 757 527 l 757 0 l 582 0 l 582 449 q 572 519 582 490 q 543 568 562 549 q 497 595 524 586 q 436 604 470 604 q 391 599 412 604 q 353 586 370 595 q 316 563 332 576 q 286 530 299 549 l 286 0 l 111 0 l 111 827 l -1 827 l -1 945 l 111 945 l 111 1042 l 286 1042 l 286 945 l 461 945 l 461 827 "},"ĥ":{"ha":833,"x_min":-54,"x_max":747,"o":"m 275 631 q 308 670 290 652 q 345 703 325 688 q 410 735 374 724 q 486 747 446 747 q 592 730 544 747 q 674 677 640 713 q 728 584 709 640 q 747 448 747 527 l 747 0 l 572 0 l 572 449 q 562 519 572 490 q 533 567 551 548 q 487 595 514 586 q 426 604 460 604 q 375 598 399 604 q 332 581 352 593 q 301 559 315 572 q 275 530 287 546 l 275 0 l 100 0 l 100 1042 l 275 1042 l 275 631 m 432 1157 l 432 1138 l 292 1138 l 188 1228 l 85 1138 l -54 1138 l -54 1158 l 137 1321 l 239 1321 l 432 1157 "},"í":{"ha":833,"x_min":136,"x_max":755,"o":"m 136 734 l 538 734 l 538 144 l 755 144 l 755 0 l 136 0 l 136 144 l 361 144 l 361 589 l 136 589 l 136 734 m 503 1002 l 699 1002 l 513 814 l 377 814 l 503 1002 "},"ĭ":{"ha":833,"x_min":136,"x_max":755,"o":"m 136 734 l 538 734 l 538 144 l 755 144 l 755 0 l 136 0 l 136 144 l 361 144 l 361 589 l 136 589 l 136 734 m 677 1025 q 662 947 677 983 q 617 885 646 911 q 546 845 588 859 q 453 831 505 831 q 359 845 401 831 q 289 885 317 859 q 243 947 259 911 q 228 1025 228 983 l 356 1025 q 361 990 356 1007 q 378 960 367 973 q 408 940 390 948 q 453 932 427 932 q 497 940 479 932 q 527 961 515 948 q 543 990 538 973 q 549 1025 549 1008 l 677 1025 "},"î":{"ha":833,"x_min":136,"x_max":755,"o":"m 136 734 l 538 734 l 538 144 l 755 144 l 755 0 l 136 0 l 136 144 l 361 144 l 361 589 l 136 589 l 136 734 m 696 865 l 696 846 l 556 846 l 452 937 l 349 846 l 211 846 l 211 867 l 401 1029 l 504 1029 l 696 865 "},"ï":{"ha":833,"x_min":136,"x_max":755,"o":"m 136 734 l 538 734 l 538 144 l 755 144 l 755 0 l 136 0 l 136 144 l 361 144 l 361 589 l 136 589 l 136 734 m 201 928 q 225 986 201 962 q 290 1010 250 1010 q 354 986 330 1010 q 378 928 378 962 q 353 870 378 893 q 290 846 329 846 q 226 870 250 846 q 201 928 201 893 m 519 928 q 544 985 519 962 q 608 1009 568 1009 q 672 985 648 1009 q 696 928 696 962 q 672 869 696 892 q 608 845 648 845 q 544 869 568 845 q 519 928 519 892 "},"ì":{"ha":833,"x_min":136,"x_max":755,"o":"m 136 734 l 538 734 l 538 144 l 755 144 l 755 0 l 136 0 l 136 144 l 361 144 l 361 589 l 136 589 l 136 734 m 524 816 l 385 816 l 209 1004 l 404 1004 l 524 816 "},"ī":{"ha":833,"x_min":136,"x_max":755,"o":"m 136 734 l 538 734 l 538 144 l 755 144 l 755 0 l 136 0 l 136 144 l 361 144 l 361 589 l 136 589 l 136 734 m 700 864 l 208 864 l 208 972 l 700 972 l 700 864 "},"į":{"ha":833,"x_min":144,"x_max":746,"o":"m 144 734 l 538 734 l 538 144 l 746 144 l 746 0 l 517 0 q 467 -26 488 -12 q 434 -56 447 -40 q 415 -90 421 -72 q 409 -127 409 -107 q 419 -160 409 -147 q 456 -174 430 -174 q 491 -169 476 -174 q 515 -159 505 -163 l 545 -259 q 496 -279 526 -269 q 419 -289 466 -289 q 362 -280 389 -289 q 316 -254 336 -271 q 284 -211 296 -236 q 273 -151 273 -185 q 281 -102 273 -127 q 307 -54 290 -77 q 329 -26 316 -40 q 357 0 342 -13 l 144 0 l 144 144 l 361 144 l 361 589 l 144 589 l 144 734 m 347 922 q 375 990 347 963 q 449 1017 402 1017 q 524 990 496 1017 q 551 922 551 964 q 524 855 551 882 q 449 828 496 828 q 375 855 403 828 q 347 922 347 882 "},"ĩ":{"ha":833,"x_min":136,"x_max":755,"o":"m 136 734 l 538 734 l 538 144 l 755 144 l 755 0 l 136 0 l 136 144 l 361 144 l 361 589 l 136 589 l 136 734 m 696 1025 q 686 965 696 994 q 656 913 675 935 q 610 876 637 890 q 551 862 584 862 q 498 870 521 862 q 456 889 475 878 q 416 908 435 899 q 373 919 397 917 q 349 918 361 920 q 327 908 337 915 q 306 887 314 902 q 298 854 298 873 l 208 873 q 219 933 208 903 q 248 985 229 962 q 294 1023 267 1008 q 353 1038 320 1038 q 404 1028 380 1038 q 450 1008 427 1019 q 495 987 472 996 q 544 977 518 977 q 569 983 557 977 q 589 998 581 988 q 602 1019 597 1006 q 606 1046 606 1031 l 696 1025 "},"ĵ":{"ha":833,"x_min":146,"x_max":739,"o":"m 203 734 l 578 734 l 578 -14 q 558 -140 578 -87 q 498 -227 537 -193 q 402 -279 458 -262 q 273 -296 345 -296 q 237 -296 255 -296 q 202 -294 220 -295 q 174 -290 188 -292 q 146 -285 160 -288 l 155 -142 q 179 -146 164 -144 q 211 -149 195 -148 q 241 -150 227 -150 q 263 -151 256 -151 q 317 -144 292 -151 q 361 -121 342 -137 q 391 -79 380 -105 q 401 -14 401 -53 l 401 589 l 203 589 l 203 734 m 739 857 l 739 838 l 598 838 l 494 928 l 391 838 l 253 838 l 253 858 l 444 1021 l 546 1021 l 739 857 "},"ķ":{"ha":833,"x_min":102,"x_max":802,"o":"m 365 311 l 277 230 l 277 0 l 102 0 l 102 1042 l 277 1042 l 277 437 l 340 507 l 551 734 l 762 734 l 481 428 l 802 0 l 585 0 l 365 311 m 463 -96 q 437 -221 463 -156 q 361 -331 412 -286 l 285 -280 q 323 -193 311 -237 q 336 -98 336 -149 l 336 -49 l 463 -49 l 463 -96 "},"ĺ":{"ha":833,"x_min":136,"x_max":755,"o":"m 136 1042 l 538 1042 l 538 144 l 755 144 l 755 0 l 136 0 l 136 144 l 361 144 l 361 897 l 136 897 l 136 1042 m 500 1284 l 696 1284 l 510 1097 l 374 1097 l 500 1284 "},"ľ":{"ha":833,"x_min":91,"x_max":817,"o":"m 91 1042 l 494 1042 l 494 144 l 710 144 l 710 0 l 91 0 l 91 144 l 317 144 l 317 897 l 91 897 l 91 1042 m 817 931 q 807 861 817 897 q 781 789 798 824 q 743 723 765 754 q 693 667 720 692 l 611 720 q 654 816 638 765 q 671 930 671 867 l 671 1045 l 817 1045 l 817 931 "},"ļ":{"ha":833,"x_min":136,"x_max":755,"o":"m 136 1042 l 538 1042 l 538 144 l 755 144 l 755 0 l 136 0 l 136 144 l 361 144 l 361 897 l 136 897 l 136 1042 m 521 -85 q 496 -210 521 -144 q 419 -319 471 -275 l 343 -269 q 381 -182 369 -226 q 394 -87 394 -138 l 394 -37 l 521 -37 l 521 -85 "},"ŀ":{"ha":833,"x_min":88,"x_max":751,"o":"m 88 1042 l 491 1042 l 491 144 l 707 144 l 707 0 l 88 0 l 88 144 l 314 144 l 314 897 l 88 897 l 88 1042 m 558 552 q 584 617 558 591 q 655 643 610 643 q 726 617 701 643 q 752 552 752 591 q 726 488 752 513 q 655 462 701 462 q 584 488 610 462 q 558 552 558 513 "},"ł":{"ha":833,"x_min":143,"x_max":762,"o":"m 546 684 l 738 770 l 738 643 l 546 557 l 546 144 l 762 144 l 762 0 l 143 0 l 143 144 l 369 144 l 369 478 l 153 382 l 153 510 l 369 606 l 369 897 l 143 897 l 143 1042 l 546 1042 l 546 684 "},"ń":{"ha":833,"x_min":100,"x_max":745,"o":"m 100 0 l 100 734 l 259 734 l 270 631 q 302 669 285 652 q 339 700 319 686 q 410 735 372 723 q 492 747 449 747 q 594 731 548 747 q 675 680 641 715 q 726 589 708 644 q 745 454 745 533 l 745 0 l 570 0 l 570 452 q 559 526 570 496 q 530 572 549 555 q 485 597 511 590 q 424 604 458 604 q 371 597 395 604 q 328 577 347 590 q 299 553 312 567 q 276 522 286 539 l 276 0 l 100 0 m 463 1019 l 659 1019 l 472 831 l 336 831 l 463 1019 "},"ň":{"ha":833,"x_min":100,"x_max":745,"o":"m 100 0 l 100 734 l 259 734 l 270 631 q 302 669 285 652 q 339 700 319 686 q 410 735 372 723 q 492 747 449 747 q 594 731 548 747 q 675 680 641 715 q 726 589 708 644 q 745 454 745 533 l 745 0 l 570 0 l 570 452 q 559 526 570 496 q 530 572 549 555 q 485 597 511 590 q 424 604 458 604 q 371 597 395 604 q 328 577 347 590 q 299 553 312 567 q 276 522 286 539 l 276 0 l 100 0 m 412 958 l 512 1047 l 661 1047 l 661 1034 l 467 863 l 357 863 l 163 1034 l 163 1047 l 312 1047 l 412 958 "},"ņ":{"ha":833,"x_min":100,"x_max":745,"o":"m 100 0 l 100 734 l 259 734 l 270 631 q 302 669 285 652 q 339 700 319 686 q 410 735 372 723 q 492 747 449 747 q 594 731 548 747 q 675 680 641 715 q 726 589 708 644 q 745 454 745 533 l 745 0 l 570 0 l 570 452 q 559 526 570 496 q 530 572 549 555 q 485 597 511 590 q 424 604 458 604 q 371 597 395 604 q 328 577 347 590 q 299 553 312 567 q 276 522 286 539 l 276 0 l 100 0 m 482 -85 q 457 -210 482 -145 q 380 -320 432 -275 l 304 -269 q 343 -182 330 -227 q 355 -87 355 -138 l 355 -38 l 482 -38 l 482 -85 "},"ñ":{"ha":833,"x_min":100,"x_max":745,"o":"m 100 0 l 100 734 l 259 734 l 270 631 q 302 669 285 652 q 339 700 319 686 q 410 735 372 723 q 492 747 449 747 q 594 731 548 747 q 675 680 641 715 q 726 589 708 644 q 745 454 745 533 l 745 0 l 570 0 l 570 452 q 559 526 570 496 q 530 572 549 555 q 485 597 511 590 q 424 604 458 604 q 371 597 395 604 q 328 577 347 590 q 299 553 312 567 q 276 522 286 539 l 276 0 l 100 0 m 656 1042 q 645 982 656 1011 q 616 930 635 952 q 570 893 596 907 q 511 879 543 879 q 457 887 480 879 q 415 906 435 895 q 375 925 395 916 q 332 936 356 934 q 308 935 320 937 q 286 925 296 932 q 266 904 273 919 q 258 871 258 890 l 168 890 q 178 950 168 920 q 208 1002 189 979 q 253 1040 227 1025 q 312 1055 279 1055 q 363 1045 340 1055 q 410 1025 387 1036 q 454 1004 431 1013 q 503 994 477 994 q 528 1000 516 994 q 549 1015 541 1005 q 561 1036 557 1023 q 566 1063 566 1048 l 656 1042 "},"ó":{"ha":833,"x_min":73,"x_max":760,"o":"m 73 374 q 96 522 73 454 q 163 640 119 590 q 271 719 207 690 q 416 747 334 747 q 562 719 498 747 q 670 640 625 690 q 736 522 713 590 q 760 374 760 454 l 760 359 q 736 211 760 279 q 670 92 713 142 q 562 14 626 42 q 417 -14 498 -14 q 271 14 335 -14 q 163 92 207 42 q 96 211 119 142 q 73 359 73 279 l 73 374 m 248 359 q 257 269 248 311 q 288 196 267 227 q 340 145 308 163 q 417 127 372 127 q 492 145 460 127 q 545 196 524 163 q 574 269 564 227 q 584 359 584 311 l 584 374 q 574 462 584 420 q 545 536 564 504 q 492 587 524 568 q 416 605 460 605 q 340 587 372 605 q 288 536 308 568 q 257 462 267 504 q 248 374 248 420 l 248 359 m 471 1019 l 667 1019 l 480 831 l 345 831 l 471 1019 "},"ŏ":{"ha":833,"x_min":73,"x_max":760,"o":"m 73 374 q 96 522 73 454 q 163 640 119 590 q 271 719 207 690 q 416 747 334 747 q 562 719 498 747 q 670 640 625 690 q 736 522 713 590 q 760 374 760 454 l 760 359 q 736 211 760 279 q 670 92 713 142 q 562 14 626 42 q 417 -14 498 -14 q 271 14 335 -14 q 163 92 207 42 q 96 211 119 142 q 73 359 73 279 l 73 374 m 248 359 q 257 269 248 311 q 288 196 267 227 q 340 145 308 163 q 417 127 372 127 q 492 145 460 127 q 545 196 524 163 q 574 269 564 227 q 584 359 584 311 l 584 374 q 574 462 584 420 q 545 536 564 504 q 492 587 524 568 q 416 605 460 605 q 340 587 372 605 q 288 536 308 568 q 257 462 267 504 q 248 374 248 420 l 248 359 m 646 1042 q 630 964 646 1000 q 585 902 614 928 q 514 862 556 876 q 421 848 473 848 q 327 862 369 848 q 257 902 286 876 q 212 964 227 928 q 196 1042 196 1000 l 324 1042 q 330 1007 324 1024 q 347 977 335 990 q 376 957 358 965 q 421 949 395 949 q 465 957 447 949 q 495 978 483 965 q 511 1007 506 990 q 517 1042 517 1025 l 646 1042 "},"ô":{"ha":833,"x_min":73,"x_max":760,"o":"m 73 374 q 96 522 73 454 q 163 640 119 590 q 271 719 207 690 q 416 747 334 747 q 562 719 498 747 q 670 640 625 690 q 736 522 713 590 q 760 374 760 454 l 760 359 q 736 211 760 279 q 670 92 713 142 q 562 14 626 42 q 417 -14 498 -14 q 271 14 335 -14 q 163 92 207 42 q 96 211 119 142 q 73 359 73 279 l 73 374 m 248 359 q 257 269 248 311 q 288 196 267 227 q 340 145 308 163 q 417 127 372 127 q 492 145 460 127 q 545 196 524 163 q 574 269 564 227 q 584 359 584 311 l 584 374 q 574 462 584 420 q 545 536 564 504 q 492 587 524 568 q 416 605 460 605 q 340 587 372 605 q 288 536 308 568 q 257 462 267 504 q 248 374 248 420 l 248 359 m 664 882 l 664 863 l 524 863 l 420 954 l 317 863 l 178 863 l 178 884 l 369 1046 l 471 1046 l 664 882 "},"ö":{"ha":833,"x_min":73,"x_max":760,"o":"m 73 374 q 96 522 73 454 q 163 640 119 590 q 271 719 207 690 q 416 747 334 747 q 562 719 498 747 q 670 640 625 690 q 736 522 713 590 q 760 374 760 454 l 760 359 q 736 211 760 279 q 670 92 713 142 q 562 14 626 42 q 417 -14 498 -14 q 271 14 335 -14 q 163 92 207 42 q 96 211 119 142 q 73 359 73 279 l 73 374 m 248 359 q 257 269 248 311 q 288 196 267 227 q 340 145 308 163 q 417 127 372 127 q 492 145 460 127 q 545 196 524 163 q 574 269 564 227 q 584 359 584 311 l 584 374 q 574 462 584 420 q 545 536 564 504 q 492 587 524 568 q 416 605 460 605 q 340 587 372 605 q 288 536 308 568 q 257 462 267 504 q 248 374 248 420 l 248 359 m 169 945 q 193 1003 169 979 q 257 1027 217 1027 q 321 1003 297 1027 q 345 945 345 979 q 321 887 345 910 q 257 863 296 863 q 193 887 218 863 q 169 945 169 910 m 487 945 q 511 1002 487 979 q 575 1026 535 1026 q 640 1002 616 1026 q 664 945 664 979 q 640 886 664 909 q 575 862 615 862 q 511 886 536 862 q 487 945 487 909 "},"ò":{"ha":833,"x_min":73,"x_max":760,"o":"m 73 374 q 96 522 73 454 q 163 640 119 590 q 271 719 207 690 q 416 747 334 747 q 562 719 498 747 q 670 640 625 690 q 736 522 713 590 q 760 374 760 454 l 760 359 q 736 211 760 279 q 670 92 713 142 q 562 14 626 42 q 417 -14 498 -14 q 271 14 335 -14 q 163 92 207 42 q 96 211 119 142 q 73 359 73 279 l 73 374 m 248 359 q 257 269 248 311 q 288 196 267 227 q 340 145 308 163 q 417 127 372 127 q 492 145 460 127 q 545 196 524 163 q 574 269 564 227 q 584 359 584 311 l 584 374 q 574 462 584 420 q 545 536 564 504 q 492 587 524 568 q 416 605 460 605 q 340 587 372 605 q 288 536 308 568 q 257 462 267 504 q 248 374 248 420 l 248 359 m 492 833 l 353 833 l 176 1021 l 372 1021 l 492 833 "},"ơ":{"ha":833,"x_min":68,"x_max":808,"o":"m 68 374 q 91 522 68 454 q 159 640 114 590 q 266 719 202 690 q 411 747 330 747 q 536 727 480 747 q 633 671 591 707 q 653 690 644 679 q 667 715 661 701 q 677 754 674 732 q 681 802 681 776 l 808 802 q 801 728 808 762 q 780 667 793 694 q 747 621 766 642 q 703 586 728 600 q 742 488 728 541 q 755 374 755 434 l 755 359 q 732 211 755 279 q 665 92 709 142 q 557 14 621 42 q 412 -14 494 -14 q 267 14 331 -14 q 159 92 202 42 q 91 211 114 142 q 68 359 68 279 l 68 374 m 243 359 q 253 269 243 311 q 283 196 262 227 q 335 145 303 163 q 412 127 368 127 q 488 145 456 127 q 540 196 519 163 q 569 269 559 227 q 579 359 579 311 l 579 374 q 569 462 579 420 q 540 536 559 504 q 488 587 519 568 q 411 605 456 605 q 335 587 367 605 q 283 536 303 568 q 253 462 262 504 q 243 374 243 420 l 243 359 "},"ő":{"ha":833,"x_min":73,"x_max":792,"o":"m 73 374 q 96 522 73 454 q 163 640 119 590 q 271 719 207 690 q 416 747 334 747 q 562 719 498 747 q 670 640 625 690 q 736 522 713 590 q 760 374 760 454 l 760 359 q 736 211 760 279 q 670 92 713 142 q 562 14 626 42 q 417 -14 498 -14 q 271 14 335 -14 q 163 92 207 42 q 96 211 119 142 q 73 359 73 279 l 73 374 m 248 359 q 257 269 248 311 q 288 196 267 227 q 340 145 308 163 q 417 127 372 127 q 492 145 460 127 q 545 196 524 163 q 574 269 564 227 q 584 359 584 311 l 584 374 q 574 462 584 420 q 545 536 564 504 q 492 587 524 568 q 416 605 460 605 q 340 587 372 605 q 288 536 308 568 q 257 462 267 504 q 248 374 248 420 l 248 359 m 614 1048 l 792 1048 l 585 867 l 447 867 l 614 1048 m 371 1048 l 541 1048 l 368 867 l 236 867 l 371 1048 "},"ō":{"ha":833,"x_min":73,"x_max":760,"o":"m 73 374 q 96 522 73 454 q 163 640 119 590 q 271 719 207 690 q 416 747 334 747 q 562 719 498 747 q 670 640 625 690 q 736 522 713 590 q 760 374 760 454 l 760 359 q 736 211 760 279 q 670 92 713 142 q 562 14 626 42 q 417 -14 498 -14 q 271 14 335 -14 q 163 92 207 42 q 96 211 119 142 q 73 359 73 279 l 73 374 m 248 359 q 257 269 248 311 q 288 196 267 227 q 340 145 308 163 q 417 127 372 127 q 492 145 460 127 q 545 196 524 163 q 574 269 564 227 q 584 359 584 311 l 584 374 q 574 462 584 420 q 545 536 564 504 q 492 587 524 568 q 416 605 460 605 q 340 587 372 605 q 288 536 308 568 q 257 462 267 504 q 248 374 248 420 l 248 359 m 668 880 l 176 880 l 176 989 l 668 989 l 668 880 "},"ø":{"ha":833,"x_min":73,"x_max":760,"o":"m 73 374 q 96 522 73 454 q 163 640 119 590 q 271 719 207 690 q 416 747 334 747 q 485 742 452 747 q 547 724 517 736 l 595 823 l 697 823 l 627 680 q 679 630 656 658 q 718 568 701 602 q 749 478 739 527 q 760 374 760 429 l 760 359 q 736 211 760 279 q 670 92 713 142 q 562 14 626 42 q 417 -14 498 -14 q 354 -9 385 -14 q 296 5 324 -5 l 248 -95 l 146 -95 l 215 46 q 109 176 146 95 q 73 359 73 258 l 73 374 m 248 359 q 257 269 248 311 q 288 195 267 227 l 481 591 q 451 602 467 598 q 416 605 435 605 q 340 587 372 605 q 288 536 308 568 q 257 462 267 504 q 248 374 248 420 l 248 359 m 584 374 q 582 420 584 397 q 574 463 579 443 q 563 495 569 479 q 550 524 557 511 l 361 136 q 388 129 374 132 q 417 127 402 127 q 492 145 460 127 q 545 196 524 163 q 574 269 564 227 q 584 359 584 311 l 584 374 "},"ǿ":{"ha":833,"x_min":73,"x_max":760,"o":"m 73 374 q 96 522 73 454 q 163 640 119 590 q 271 719 207 690 q 416 747 334 747 q 485 742 452 747 q 547 724 517 736 l 595 823 l 697 823 l 627 680 q 679 630 656 658 q 718 568 701 602 q 749 478 739 527 q 760 374 760 429 l 760 359 q 736 211 760 279 q 670 92 713 142 q 562 14 626 42 q 417 -14 498 -14 q 354 -9 385 -14 q 296 5 324 -5 l 248 -95 l 146 -95 l 215 46 q 109 176 146 95 q 73 359 73 258 l 73 374 m 248 359 q 257 269 248 311 q 288 195 267 227 l 481 591 q 451 602 467 598 q 416 605 435 605 q 340 587 372 605 q 288 536 308 568 q 257 462 267 504 q 248 374 248 420 l 248 359 m 584 374 q 582 420 584 397 q 574 463 579 443 q 563 495 569 479 q 550 524 557 511 l 361 136 q 388 129 374 132 q 417 127 402 127 q 492 145 460 127 q 545 196 524 163 q 574 269 564 227 q 584 359 584 311 l 584 374 m 443 1016 l 639 1016 l 452 828 l 317 828 l 443 1016 "},"õ":{"ha":833,"x_min":73,"x_max":760,"o":"m 73 374 q 96 522 73 454 q 163 640 119 590 q 271 719 207 690 q 416 747 334 747 q 562 719 498 747 q 670 640 625 690 q 736 522 713 590 q 760 374 760 454 l 760 359 q 736 211 760 279 q 670 92 713 142 q 562 14 626 42 q 417 -14 498 -14 q 271 14 335 -14 q 163 92 207 42 q 96 211 119 142 q 73 359 73 279 l 73 374 m 248 359 q 257 269 248 311 q 288 196 267 227 q 340 145 308 163 q 417 127 372 127 q 492 145 460 127 q 545 196 524 163 q 574 269 564 227 q 584 359 584 311 l 584 374 q 574 462 584 420 q 545 536 564 504 q 492 587 524 568 q 416 605 460 605 q 340 587 372 605 q 288 536 308 568 q 257 462 267 504 q 248 374 248 420 l 248 359 m 664 1042 q 653 982 664 1011 q 624 930 643 952 q 578 893 604 907 q 519 879 551 879 q 466 887 488 879 q 423 906 443 895 q 384 925 403 916 q 340 936 364 934 q 316 935 328 937 q 294 925 304 932 q 274 904 281 919 q 266 871 266 890 l 176 890 q 186 950 176 920 q 216 1002 197 979 q 261 1040 235 1025 q 320 1055 288 1055 q 371 1045 348 1055 q 418 1025 395 1036 q 463 1004 439 1013 q 511 994 486 994 q 536 1000 524 994 q 557 1015 549 1005 q 569 1036 565 1023 q 574 1063 574 1048 l 664 1042 "},"ŕ":{"ha":833,"x_min":201,"x_max":753,"o":"m 618 747 q 695 742 659 747 q 753 729 732 736 l 728 555 q 653 568 690 564 q 580 572 615 572 q 510 565 541 572 q 455 543 479 557 q 408 503 428 527 q 376 447 389 479 l 376 0 l 201 0 l 201 734 l 364 734 l 372 631 l 373 614 q 480 712 418 676 q 618 747 543 747 m 445 1019 l 641 1019 l 454 831 l 319 831 l 445 1019 "},"ř":{"ha":833,"x_min":145,"x_max":753,"o":"m 618 747 q 695 742 659 747 q 753 729 732 736 l 728 555 q 653 568 690 564 q 580 572 615 572 q 510 565 541 572 q 455 543 479 557 q 408 503 428 527 q 376 447 389 479 l 376 0 l 201 0 l 201 734 l 364 734 l 372 631 l 373 614 q 480 712 418 676 q 618 747 543 747 m 394 958 l 494 1047 l 644 1047 l 644 1034 l 449 863 l 339 863 l 145 1034 l 145 1047 l 294 1047 l 394 958 "},"ŗ":{"ha":833,"x_min":182,"x_max":753,"o":"m 618 747 q 695 742 659 747 q 753 729 732 736 l 728 555 q 653 568 690 564 q 580 572 615 572 q 510 565 541 572 q 455 543 479 557 q 408 503 428 527 q 376 447 389 479 l 376 0 l 201 0 l 201 734 l 364 734 l 372 631 l 373 614 q 480 712 418 676 q 618 747 543 747 m 359 -85 q 334 -210 359 -145 q 258 -320 309 -275 l 182 -269 q 220 -182 208 -227 q 233 -87 233 -138 l 233 -38 l 359 -38 l 359 -85 "},"ś":{"ha":833,"x_min":90,"x_max":747,"o":"m 576 200 q 569 232 576 218 q 541 258 561 246 q 487 280 520 270 q 402 300 453 290 q 285 332 338 313 q 195 378 232 351 q 136 440 157 405 q 115 523 115 476 q 136 609 115 568 q 197 680 157 650 q 295 729 237 711 q 423 747 352 747 q 557 729 498 747 q 659 680 617 711 q 722 605 700 648 q 744 512 744 562 l 569 512 q 562 549 569 532 q 540 581 554 566 q 492 608 522 597 q 423 618 463 618 q 360 611 387 618 q 317 591 334 604 q 293 564 301 579 q 284 530 284 548 q 291 499 284 513 q 317 473 298 484 q 365 451 334 460 q 443 434 395 441 q 566 405 509 422 q 662 361 622 388 q 725 297 703 334 q 747 208 747 260 q 724 119 747 159 q 659 48 701 78 q 557 2 617 19 q 425 -14 497 -14 q 281 7 343 -14 q 176 64 218 28 q 112 142 134 98 q 90 231 90 186 l 258 231 q 276 177 261 199 q 314 141 291 155 q 367 121 338 127 q 427 115 397 115 q 497 122 467 115 q 545 142 526 130 q 568 169 560 154 q 576 200 576 183 m 457 1019 l 653 1019 l 467 831 l 331 831 l 457 1019 "},"š":{"ha":833,"x_min":90,"x_max":747,"o":"m 576 200 q 569 232 576 218 q 541 258 561 246 q 487 280 520 270 q 402 300 453 290 q 285 332 338 313 q 195 378 232 351 q 136 440 157 405 q 115 523 115 476 q 136 609 115 568 q 197 680 157 650 q 295 729 237 711 q 423 747 352 747 q 557 729 498 747 q 659 680 617 711 q 722 605 700 648 q 744 512 744 562 l 569 512 q 562 549 569 532 q 540 581 554 566 q 492 608 522 597 q 423 618 463 618 q 360 611 387 618 q 317 591 334 604 q 293 564 301 579 q 284 530 284 548 q 291 499 284 513 q 317 473 298 484 q 365 451 334 460 q 443 434 395 441 q 566 405 509 422 q 662 361 622 388 q 725 297 703 334 q 747 208 747 260 q 724 119 747 159 q 659 48 701 78 q 557 2 617 19 q 425 -14 497 -14 q 281 7 343 -14 q 176 64 218 28 q 112 142 134 98 q 90 231 90 186 l 258 231 q 276 177 261 199 q 314 141 291 155 q 367 121 338 127 q 427 115 397 115 q 497 122 467 115 q 545 142 526 130 q 568 169 560 154 q 576 200 576 183 m 406 958 l 507 1047 l 656 1047 l 656 1034 l 461 863 l 351 863 l 157 1034 l 157 1047 l 307 1047 l 406 958 "},"ş":{"ha":833,"x_min":90,"x_max":747,"o":"m 576 200 q 569 232 576 218 q 541 258 561 246 q 487 280 520 270 q 402 300 453 290 q 285 332 338 313 q 195 378 232 351 q 136 440 157 405 q 115 523 115 476 q 136 609 115 568 q 197 680 157 650 q 295 729 237 711 q 423 747 352 747 q 557 729 498 747 q 659 680 617 711 q 722 605 700 648 q 744 512 744 562 l 569 512 q 562 549 569 532 q 540 581 554 566 q 492 608 522 597 q 423 618 463 618 q 360 611 387 618 q 317 591 334 604 q 293 564 301 579 q 284 530 284 548 q 291 499 284 513 q 317 473 298 484 q 365 451 334 460 q 443 434 395 441 q 566 405 509 422 q 662 361 622 388 q 725 297 703 334 q 747 208 747 260 q 724 119 747 159 q 659 48 701 78 q 557 2 617 19 q 425 -14 497 -14 q 281 7 343 -14 q 176 64 218 28 q 112 142 134 98 q 90 231 90 186 l 258 231 q 276 177 261 199 q 314 141 291 155 q 367 121 338 127 q 427 115 397 115 q 497 122 467 115 q 545 142 526 130 q 568 169 560 154 q 576 200 576 183 m 473 -3 l 466 -41 q 504 -52 485 -44 q 536 -73 522 -60 q 559 -108 551 -87 q 568 -158 568 -129 q 553 -224 568 -195 q 507 -273 537 -253 q 436 -303 478 -292 q 340 -313 395 -313 l 336 -212 q 370 -209 354 -212 q 397 -199 386 -206 q 416 -181 410 -193 q 423 -154 423 -170 q 417 -130 423 -140 q 400 -113 412 -120 q 369 -103 388 -106 q 323 -98 349 -100 l 344 -3 l 473 -3 "},"ŝ":{"ha":833,"x_min":90,"x_max":747,"o":"m 576 200 q 569 232 576 218 q 541 258 561 246 q 487 280 520 270 q 402 300 453 290 q 285 332 338 313 q 195 378 232 351 q 136 440 157 405 q 115 523 115 476 q 136 609 115 568 q 197 680 157 650 q 295 729 237 711 q 423 747 352 747 q 557 729 498 747 q 659 680 617 711 q 722 605 700 648 q 744 512 744 562 l 569 512 q 562 549 569 532 q 540 581 554 566 q 492 608 522 597 q 423 618 463 618 q 360 611 387 618 q 317 591 334 604 q 293 564 301 579 q 284 530 284 548 q 291 499 284 513 q 317 473 298 484 q 365 451 334 460 q 443 434 395 441 q 566 405 509 422 q 662 361 622 388 q 725 297 703 334 q 747 208 747 260 q 724 119 747 159 q 659 48 701 78 q 557 2 617 19 q 425 -14 497 -14 q 281 7 343 -14 q 176 64 218 28 q 112 142 134 98 q 90 231 90 186 l 258 231 q 276 177 261 199 q 314 141 291 155 q 367 121 338 127 q 427 115 397 115 q 497 122 467 115 q 545 142 526 130 q 568 169 560 154 q 576 200 576 183 m 650 882 l 650 863 l 510 863 l 406 954 l 303 863 l 165 863 l 165 884 l 355 1046 l 458 1046 l 650 882 "},"ŧ":{"ha":833,"x_min":87,"x_max":742,"o":"m 436 913 l 436 734 l 711 734 l 711 604 l 436 604 l 436 492 l 587 492 l 587 374 l 436 374 l 436 271 q 446 203 436 230 q 472 161 455 176 q 514 137 490 144 q 568 130 538 130 q 611 133 589 130 q 655 138 634 135 q 693 144 675 141 q 724 151 711 148 l 742 30 q 697 11 723 19 q 643 -3 672 3 q 582 -11 614 -8 q 519 -14 551 -14 q 414 1 462 -14 q 332 50 366 17 q 279 134 298 83 q 260 256 260 184 l 260 374 l 125 374 l 125 492 l 260 492 l 260 604 l 87 604 l 87 734 l 260 734 l 260 913 l 436 913 "},"ť":{"ha":833,"x_min":73,"x_max":811,"o":"m 422 911 l 422 732 l 696 732 l 696 602 l 422 602 l 422 269 q 431 202 422 229 q 458 159 441 175 q 500 136 475 142 q 553 129 524 129 q 597 131 574 129 q 641 137 620 134 q 679 143 661 140 q 709 150 697 146 l 728 28 q 683 9 709 18 q 629 -4 658 1 q 568 -13 600 -9 q 505 -16 536 -16 q 400 0 448 -16 q 318 49 352 16 q 265 132 283 81 q 246 255 246 183 l 246 602 l 73 602 l 73 732 l 246 732 l 246 911 l 422 911 m 811 1052 q 802 981 811 1018 q 776 910 793 945 q 737 844 760 875 q 688 788 715 812 l 606 841 q 649 937 633 886 q 665 1051 665 987 l 665 1166 l 811 1166 l 811 1052 "},"ú":{"ha":833,"x_min":106,"x_max":739,"o":"m 580 0 l 570 102 q 480 17 533 48 q 362 -14 427 -14 q 258 3 305 -14 q 177 60 210 21 q 124 157 143 98 q 106 299 106 216 l 106 734 l 281 734 l 281 298 q 289 218 281 250 q 311 166 296 185 q 350 138 326 146 q 408 130 374 130 q 466 136 440 130 q 512 156 492 143 q 541 182 528 167 q 563 216 554 198 l 563 734 l 739 734 l 739 0 l 580 0 m 472 1004 l 668 1004 l 481 817 l 346 817 l 472 1004 "},"ŭ":{"ha":833,"x_min":106,"x_max":739,"o":"m 580 0 l 570 102 q 480 17 533 48 q 362 -14 427 -14 q 258 3 305 -14 q 177 60 210 21 q 124 157 143 98 q 106 299 106 216 l 106 734 l 281 734 l 281 298 q 289 218 281 250 q 311 166 296 185 q 350 138 326 146 q 408 130 374 130 q 466 136 440 130 q 512 156 492 143 q 541 182 528 167 q 563 216 554 198 l 563 734 l 739 734 l 739 0 l 580 0 m 646 1028 q 631 949 646 985 q 586 888 615 913 q 515 848 557 862 q 422 833 473 833 q 328 848 370 833 q 258 888 286 862 q 212 949 228 913 q 197 1028 197 985 l 325 1028 q 330 993 325 1010 q 347 963 336 976 q 377 943 359 951 q 422 935 395 935 q 466 943 448 935 q 496 964 484 951 q 512 993 507 976 q 517 1028 517 1010 l 646 1028 "},"û":{"ha":833,"x_min":106,"x_max":739,"o":"m 580 0 l 570 102 q 480 17 533 48 q 362 -14 427 -14 q 258 3 305 -14 q 177 60 210 21 q 124 157 143 98 q 106 299 106 216 l 106 734 l 281 734 l 281 298 q 289 218 281 250 q 311 166 296 185 q 350 138 326 146 q 408 130 374 130 q 466 136 440 130 q 512 156 492 143 q 541 182 528 167 q 563 216 554 198 l 563 734 l 739 734 l 739 0 l 580 0 m 665 868 l 665 849 l 524 849 l 420 939 l 317 849 l 179 849 l 179 869 l 370 1032 l 472 1032 l 665 868 "},"ü":{"ha":833,"x_min":106,"x_max":739,"o":"m 580 0 l 570 102 q 480 17 533 48 q 362 -14 427 -14 q 258 3 305 -14 q 177 60 210 21 q 124 157 143 98 q 106 299 106 216 l 106 734 l 281 734 l 281 298 q 289 218 281 250 q 311 166 296 185 q 350 138 326 146 q 408 130 374 130 q 466 136 440 130 q 512 156 492 143 q 541 182 528 167 q 563 216 554 198 l 563 734 l 739 734 l 739 0 l 580 0 m 170 930 q 194 989 170 965 q 258 1013 218 1013 q 322 989 298 1013 q 347 930 347 965 q 322 872 347 896 q 258 849 298 849 q 195 872 219 849 q 170 930 170 896 m 488 930 q 512 988 488 964 q 576 1012 536 1012 q 641 988 617 1012 q 665 930 665 964 q 641 871 665 895 q 576 848 616 848 q 513 871 537 848 q 488 930 488 895 "},"ù":{"ha":833,"x_min":106,"x_max":739,"o":"m 580 0 l 570 102 q 480 17 533 48 q 362 -14 427 -14 q 258 3 305 -14 q 177 60 210 21 q 124 157 143 98 q 106 299 106 216 l 106 734 l 281 734 l 281 298 q 289 218 281 250 q 311 166 296 185 q 350 138 326 146 q 408 130 374 130 q 466 136 440 130 q 512 156 492 143 q 541 182 528 167 q 563 216 554 198 l 563 734 l 739 734 l 739 0 l 580 0 m 492 819 l 353 819 l 177 1006 l 372 1006 l 492 819 "},"ư":{"ha":833,"x_min":89,"x_max":928,"o":"m 928 798 q 877 609 928 675 q 722 526 827 543 l 722 0 l 563 0 l 553 102 q 463 17 515 48 q 345 -14 410 -14 q 241 3 288 -14 q 159 60 193 21 q 107 157 126 98 q 89 299 89 216 l 89 734 l 264 734 l 264 298 q 271 218 264 250 q 294 166 278 185 q 333 138 309 146 q 391 130 357 130 q 454 138 426 130 q 501 161 481 146 q 527 186 515 172 q 546 216 538 200 l 546 734 l 722 734 l 722 636 q 752 654 739 643 q 774 680 766 665 q 792 730 787 701 q 798 798 798 760 l 928 798 "},"ű":{"ha":833,"x_min":106,"x_max":793,"o":"m 580 0 l 570 102 q 480 17 533 48 q 362 -14 427 -14 q 258 3 305 -14 q 177 60 210 21 q 124 157 143 98 q 106 299 106 216 l 106 734 l 281 734 l 281 298 q 289 218 281 250 q 311 166 296 185 q 350 138 326 146 q 408 130 374 130 q 466 136 440 130 q 512 156 492 143 q 541 182 528 167 q 563 216 554 198 l 563 734 l 739 734 l 739 0 l 580 0 m 614 1034 l 793 1034 l 585 853 l 448 853 l 614 1034 m 372 1034 l 541 1034 l 368 853 l 237 853 l 372 1034 "},"ū":{"ha":833,"x_min":106,"x_max":739,"o":"m 580 0 l 570 102 q 480 17 533 48 q 362 -14 427 -14 q 258 3 305 -14 q 177 60 210 21 q 124 157 143 98 q 106 299 106 216 l 106 734 l 281 734 l 281 298 q 289 218 281 250 q 311 166 296 185 q 350 138 326 146 q 408 130 374 130 q 466 136 440 130 q 512 156 492 143 q 541 182 528 167 q 563 216 554 198 l 563 734 l 739 734 l 739 0 l 580 0 m 669 867 l 176 867 l 176 975 l 669 975 l 669 867 "},"ų":{"ha":833,"x_min":106,"x_max":756,"o":"m 729 0 q 678 -27 699 -13 q 644 -57 657 -41 q 626 -90 632 -73 q 621 -127 621 -108 q 631 -160 621 -147 q 667 -174 642 -174 q 702 -169 688 -174 q 726 -159 717 -163 l 756 -259 q 707 -279 737 -269 q 631 -289 677 -289 q 574 -280 601 -289 q 528 -254 547 -271 q 496 -211 508 -236 q 485 -151 485 -185 q 494 -99 485 -125 q 521 -49 503 -73 q 547 -19 532 -34 q 579 7 562 -5 l 570 102 q 480 17 533 48 q 362 -14 427 -14 q 258 3 305 -14 q 177 60 210 21 q 124 157 143 98 q 106 299 106 216 l 106 734 l 281 734 l 281 298 q 289 218 281 250 q 311 166 296 185 q 350 138 326 146 q 408 130 374 130 q 469 137 442 130 q 515 159 496 144 q 543 184 531 170 q 563 216 555 199 l 563 734 l 739 734 l 739 0 l 729 0 "},"ů":{"ha":833,"x_min":106,"x_max":739,"o":"m 580 0 l 570 102 q 480 17 533 48 q 362 -14 427 -14 q 258 3 305 -14 q 177 60 210 21 q 124 157 143 98 q 106 299 106 216 l 106 734 l 281 734 l 281 298 q 289 218 281 250 q 311 166 296 185 q 350 138 326 146 q 408 130 374 130 q 466 136 440 130 q 512 156 492 143 q 541 182 528 167 q 563 216 554 198 l 563 734 l 739 734 l 739 0 l 580 0 m 277 942 q 289 995 277 970 q 319 1038 300 1019 q 365 1065 339 1055 q 421 1076 391 1076 q 476 1065 450 1076 q 521 1038 502 1055 q 551 995 540 1019 q 562 942 562 970 q 551 889 562 913 q 521 848 540 865 q 476 821 502 831 q 421 812 450 812 q 365 821 391 812 q 320 848 339 831 q 289 889 300 865 q 277 942 277 913 m 353 942 q 358 915 353 927 q 373 893 364 902 q 394 880 382 884 q 421 875 407 875 q 447 879 435 875 q 467 892 458 884 q 481 914 476 901 q 486 942 486 926 q 481 970 486 958 q 469 992 477 983 q 447 1006 459 1002 q 421 1011 435 1011 q 394 1006 407 1011 q 372 991 381 1001 q 358 970 363 983 q 353 942 353 958 "},"ũ":{"ha":833,"x_min":106,"x_max":739,"o":"m 580 0 l 570 102 q 480 17 533 48 q 362 -14 427 -14 q 258 3 305 -14 q 177 60 210 21 q 124 157 143 98 q 106 299 106 216 l 106 734 l 281 734 l 281 298 q 289 218 281 250 q 311 166 296 185 q 350 138 326 146 q 408 130 374 130 q 466 136 440 130 q 512 156 492 143 q 541 182 528 167 q 563 216 554 198 l 563 734 l 739 734 l 739 0 l 580 0 m 665 1027 q 654 967 665 997 q 625 916 644 938 q 578 879 605 892 q 519 865 552 865 q 466 873 489 865 q 424 892 444 881 q 384 911 404 902 q 341 922 365 920 q 317 920 329 923 q 295 911 305 918 q 274 890 282 905 q 267 857 267 876 l 176 876 q 187 936 176 906 q 216 988 197 965 q 262 1026 235 1011 q 321 1040 288 1040 q 372 1031 349 1040 q 418 1010 395 1021 q 463 989 440 999 q 512 980 486 980 q 537 985 525 980 q 557 1000 549 991 q 570 1021 566 1009 q 574 1048 574 1034 l 665 1027 "},"ẃ":{"ha":833,"x_min":21,"x_max":803,"o":"m 158 0 l 21 734 l 181 734 l 242 291 l 252 214 l 267 291 l 353 734 l 470 734 l 557 293 l 572 213 l 583 294 l 643 734 l 803 734 l 666 0 l 515 0 l 427 404 l 410 487 l 395 404 l 309 0 l 158 0 m 463 1004 l 659 1004 l 472 817 l 336 817 l 463 1004 "},"ŵ":{"ha":833,"x_min":21,"x_max":803,"o":"m 158 0 l 21 734 l 181 734 l 242 291 l 252 214 l 267 291 l 353 734 l 470 734 l 557 293 l 572 213 l 583 294 l 643 734 l 803 734 l 666 0 l 515 0 l 427 404 l 410 487 l 395 404 l 309 0 l 158 0 m 656 868 l 656 849 l 515 849 l 412 939 l 309 849 l 170 849 l 170 869 l 361 1032 l 463 1032 l 656 868 "},"ẅ":{"ha":833,"x_min":21,"x_max":803,"o":"m 158 0 l 21 734 l 181 734 l 242 291 l 252 214 l 267 291 l 353 734 l 470 734 l 557 293 l 572 213 l 583 294 l 643 734 l 803 734 l 666 0 l 515 0 l 427 404 l 410 487 l 395 404 l 309 0 l 158 0 m 161 930 q 185 989 161 965 q 249 1013 209 1013 q 313 989 289 1013 q 337 930 337 965 q 313 872 337 896 q 249 849 288 849 q 185 872 210 849 q 161 930 161 896 m 479 930 q 503 988 479 964 q 567 1012 527 1012 q 632 988 608 1012 q 656 930 656 964 q 631 871 656 895 q 567 848 607 848 q 503 871 528 848 q 479 930 479 895 "},"ẁ":{"ha":833,"x_min":21,"x_max":803,"o":"m 158 0 l 21 734 l 181 734 l 242 291 l 252 214 l 267 291 l 353 734 l 470 734 l 557 293 l 572 213 l 583 294 l 643 734 l 803 734 l 666 0 l 515 0 l 427 404 l 410 487 l 395 404 l 309 0 l 158 0 m 484 819 l 345 819 l 168 1006 l 363 1006 l 484 819 "},"ý":{"ha":833,"x_min":37,"x_max":823,"o":"m 204 -296 q 158 -293 179 -296 q 116 -283 138 -290 l 138 -149 q 169 -150 151 -149 q 197 -151 186 -151 q 238 -137 220 -151 q 269 -106 256 -123 q 290 -78 283 -89 q 304 -52 296 -67 l 349 32 l 37 734 l 230 734 l 405 295 l 428 217 l 457 293 l 629 734 l 823 734 l 451 -111 q 419 -171 439 -138 q 370 -231 399 -203 q 301 -277 342 -258 q 204 -296 260 -296 m 488 1004 l 684 1004 l 497 817 l 361 817 l 488 1004 "},"ŷ":{"ha":833,"x_min":37,"x_max":823,"o":"m 204 -296 q 158 -293 179 -296 q 116 -283 138 -290 l 138 -149 q 169 -150 151 -149 q 197 -151 186 -151 q 238 -137 220 -151 q 269 -106 256 -123 q 290 -78 283 -89 q 304 -52 296 -67 l 349 32 l 37 734 l 230 734 l 405 295 l 428 217 l 457 293 l 629 734 l 823 734 l 451 -111 q 419 -171 439 -138 q 370 -231 399 -203 q 301 -277 342 -258 q 204 -296 260 -296 m 680 868 l 680 849 l 540 849 l 436 939 l 333 849 l 195 849 l 195 869 l 385 1032 l 488 1032 l 680 868 "},"ÿ":{"ha":833,"x_min":37,"x_max":823,"o":"m 204 -296 q 158 -293 179 -296 q 116 -283 138 -290 l 138 -149 q 169 -150 151 -149 q 197 -151 186 -151 q 238 -137 220 -151 q 269 -106 256 -123 q 290 -78 283 -89 q 304 -52 296 -67 l 349 32 l 37 734 l 230 734 l 405 295 l 428 217 l 457 293 l 629 734 l 823 734 l 451 -111 q 419 -171 439 -138 q 370 -231 399 -203 q 301 -277 342 -258 q 204 -296 260 -296 m 186 930 q 210 989 186 965 q 274 1013 234 1013 q 338 989 314 1013 q 362 930 362 965 q 338 872 362 896 q 274 849 313 849 q 210 872 235 849 q 186 930 186 896 m 504 930 q 528 988 504 964 q 592 1012 552 1012 q 657 988 633 1012 q 681 930 681 964 q 656 871 681 895 q 592 848 632 848 q 528 871 553 848 q 504 930 504 895 "},"ỳ":{"ha":833,"x_min":37,"x_max":823,"o":"m 204 -296 q 158 -293 179 -296 q 116 -283 138 -290 l 138 -149 q 169 -150 151 -149 q 197 -151 186 -151 q 238 -137 220 -151 q 269 -106 256 -123 q 290 -78 283 -89 q 304 -52 296 -67 l 349 32 l 37 734 l 230 734 l 405 295 l 428 217 l 457 293 l 629 734 l 823 734 l 451 -111 q 419 -171 439 -138 q 370 -231 399 -203 q 301 -277 342 -258 q 204 -296 260 -296 m 509 819 l 370 819 l 193 1006 l 389 1006 l 509 819 "},"ź":{"ha":833,"x_min":86,"x_max":763,"o":"m 323 141 l 763 141 l 763 0 l 86 0 l 86 111 l 503 591 l 95 591 l 95 734 l 744 734 l 744 626 l 323 141 m 496 1004 l 692 1004 l 505 817 l 370 817 l 496 1004 "},"ž":{"ha":833,"x_min":86,"x_max":763,"o":"m 323 141 l 763 141 l 763 0 l 86 0 l 86 111 l 503 591 l 95 591 l 95 734 l 744 734 l 744 626 l 323 141 m 444 944 l 545 1033 l 694 1033 l 694 1020 l 499 849 l 389 849 l 195 1019 l 195 1033 l 345 1033 l 444 944 "},"ż":{"ha":833,"x_min":86,"x_max":763,"o":"m 323 141 l 763 141 l 763 0 l 86 0 l 86 111 l 503 591 l 95 591 l 95 734 l 744 734 l 744 626 l 323 141 m 347 936 q 372 1001 347 975 q 444 1027 398 1027 q 515 1001 489 1027 q 541 936 541 975 q 515 871 541 897 q 444 846 489 846 q 372 871 398 846 q 347 936 347 897 "},"`":{"ha":833,"x_min":279,"x_max":595,"o":"m 595 815 l 456 815 l 279 1003 l 475 1003 l 595 815 "},"´":{"ha":833,"x_min":263,"x_max":585,"o":"m 389 1003 l 585 1003 l 399 815 l 263 815 l 389 1003 "},"ˆ":{"ha":833,"x_min":96,"x_max":582,"o":"m 582 864 l 582 845 l 441 845 l 338 935 l 235 845 l 96 845 l 96 865 l 287 1028 l 389 1028 l 582 864 "},"˜":{"ha":833,"x_min":88,"x_max":576,"o":"m 576 1022 q 566 962 576 991 q 536 910 555 932 q 490 873 517 887 q 431 859 464 859 q 378 867 401 859 q 336 886 355 876 q 296 905 315 897 q 253 916 277 914 q 229 915 241 918 q 207 905 217 912 q 186 885 194 899 q 178 851 178 870 l 88 871 q 99 930 88 901 q 128 983 109 960 q 174 1020 147 1006 q 233 1035 200 1035 q 284 1025 260 1035 q 330 1005 307 1016 q 375 984 352 994 q 424 975 398 975 q 449 980 437 975 q 469 995 461 985 q 482 1016 477 1004 q 486 1043 486 1028 l 576 1022 "},"¯":{"ha":833,"x_min":183,"x_max":675,"o":"m 675 879 l 183 879 l 183 987 l 675 987 l 675 879 "},"ˉ":{"ha":833,"x_min":183,"x_max":675,"o":"m 675 879 l 675 987 l 183 987 l 183 879 l 675 879 "},"˘":{"ha":833,"x_min":202,"x_max":652,"o":"m 652 980 q 636 901 652 937 q 591 840 621 865 q 520 800 562 814 q 427 785 479 785 q 333 800 375 785 q 263 840 292 814 q 218 901 233 865 q 202 980 202 937 l 330 980 q 336 945 330 962 q 353 915 341 928 q 382 895 364 903 q 427 887 401 887 q 471 895 453 887 q 501 916 489 903 q 517 945 512 928 q 523 980 523 962 l 652 980 "},"˙":{"ha":833,"x_min":323,"x_max":517,"o":"m 323 924 q 349 989 323 963 q 420 1015 375 1015 q 492 989 466 1015 q 517 924 517 963 q 492 859 517 885 q 420 833 466 833 q 349 859 375 833 q 323 924 323 885 "},"¨":{"ha":833,"x_min":183,"x_max":678,"o":"m 183 926 q 207 985 183 961 q 271 1008 231 1008 q 335 985 311 1008 q 359 926 359 961 q 335 868 359 892 q 271 845 311 845 q 208 868 232 845 q 183 926 183 892 m 501 926 q 525 984 501 960 q 589 1008 549 1008 q 654 984 630 1008 q 678 926 678 960 q 654 867 678 891 q 589 844 629 844 q 526 867 550 844 q 501 926 501 891 "},"˚":{"ha":833,"x_min":274,"x_max":558,"o":"m 274 846 q 285 899 274 875 q 316 942 296 924 q 362 970 336 960 q 418 980 388 980 q 473 970 447 980 q 517 942 498 960 q 547 899 536 924 q 558 846 558 875 q 547 793 558 817 q 517 753 536 770 q 473 726 498 735 q 418 716 447 716 q 362 726 388 716 q 317 753 336 735 q 285 793 296 770 q 274 846 274 817 m 349 846 q 355 819 349 831 q 370 798 361 806 q 391 784 378 789 q 418 779 404 779 q 443 784 431 779 q 463 797 455 788 q 478 818 473 806 q 483 846 483 831 q 478 875 483 862 q 465 897 473 888 q 444 911 456 906 q 418 916 432 916 q 391 910 404 916 q 369 896 378 905 q 355 874 360 887 q 349 846 349 862 "},"˝":{"ha":833,"x_min":148,"x_max":704,"o":"m 526 1029 l 704 1029 l 496 849 l 359 849 l 526 1029 m 283 1029 l 452 1029 l 279 849 l 148 849 l 283 1029 "},"ˇ":{"ha":833,"x_min":177,"x_max":675,"o":"m 426 940 l 526 1029 l 675 1029 l 675 1016 l 481 845 l 371 845 l 177 1015 l 177 1029 l 326 1029 l 426 940 "},"̣":{"ha":833,"x_min":-509,"x_max":-302,"o":"m -509 -153 q -481 -89 -509 -115 q -405 -62 -454 -62 q -329 -89 -357 -62 q -302 -153 -302 -115 q -330 -218 -302 -192 q -405 -244 -357 -244 q -481 -218 -454 -244 q -509 -153 -509 -192 "},"¸":{"ha":833,"x_min":301,"x_max":547,"o":"m 452 3 l 444 -35 q 482 -46 463 -38 q 515 -67 500 -54 q 538 -102 529 -81 q 547 -152 547 -123 q 531 -218 547 -189 q 485 -267 515 -247 q 415 -297 456 -286 q 319 -307 373 -307 l 314 -206 q 348 -203 332 -206 q 376 -193 364 -200 q 395 -175 388 -186 q 401 -148 401 -164 q 396 -124 401 -134 q 378 -107 390 -114 q 347 -97 366 -100 q 301 -92 328 -94 l 322 3 l 452 3 "},"˛":{"ha":833,"x_min":261,"x_max":532,"o":"m 505 0 q 456 -26 476 -12 q 423 -54 436 -39 q 403 -89 410 -71 q 397 -127 397 -106 q 407 -160 397 -147 q 444 -174 418 -174 q 478 -169 464 -174 q 503 -159 493 -163 l 532 -259 q 484 -279 513 -269 q 407 -289 454 -289 q 350 -280 377 -289 q 304 -254 323 -271 q 273 -211 284 -236 q 261 -151 261 -185 q 274 -90 261 -121 q 311 -32 286 -59 q 355 7 330 -12 q 410 40 380 26 l 505 0 "},"":{"ha":833,"x_min":191,"x_max":368,"o":"m 368 121 q 343 -4 368 61 q 267 -114 318 -69 l 191 -63 q 229 24 216 -20 q 241 119 241 68 l 241 168 l 368 168 l 368 121 "},"\r":{"ha":833,"x_min":0,"x_max":0,"o":""},"«":{"ha":833,"x_min":130,"x_max":691,"o":"m 274 337 l 440 66 l 323 66 l 130 331 l 130 344 l 323 608 l 440 608 l 274 337 m 525 337 l 691 66 l 574 66 l 381 331 l 381 344 l 574 608 l 691 608 l 525 337 "},"µ":{"ha":833,"x_min":119,"x_max":750,"o":"m 294 734 l 294 313 q 304 220 294 256 q 331 164 313 184 q 372 136 348 143 q 425 128 396 128 q 487 136 460 128 q 534 159 514 144 q 556 181 547 169 q 574 208 566 193 l 574 734 l 750 734 l 750 0 l 587 0 l 583 55 q 559 32 572 43 q 534 14 547 22 q 483 -7 511 0 q 423 -14 455 -14 q 352 -5 385 -14 q 294 22 320 4 l 294 -282 l 119 -282 l 119 734 l 294 734 "},"»":{"ha":833,"x_min":156,"x_max":718,"o":"m 273 631 l 467 367 l 467 354 l 273 90 l 156 90 l 322 360 l 156 631 l 273 631 m 524 631 l 718 367 l 718 354 l 524 90 l 407 90 l 573 360 l 407 631 l 524 631 "},"ı":{"ha":833,"x_min":136,"x_max":755,"o":"m 136 734 l 538 734 l 538 144 l 755 144 l 755 0 l 136 0 l 136 144 l 361 144 l 361 589 l 136 589 l 136 734 "},"Ĳ":{"ha":833,"x_min":85,"x_max":747,"o":"m 219 0 l 85 0 l 85 987 l 219 987 l 219 0 m 614 987 l 747 987 l 747 218 q 733 121 747 164 q 691 48 720 78 q 618 3 662 18 q 515 -13 574 -13 q 425 1 466 -13 q 353 43 383 15 q 306 115 323 72 q 290 218 290 159 l 423 218 q 448 124 423 153 q 515 94 473 94 q 563 103 544 94 q 593 128 582 112 q 609 167 604 144 q 614 218 614 190 l 614 987 "}}}
